<mxfile host="Electron" modified="2023-12-12T04:23:59.044Z" agent="Mozilla/5.0 (X11; Linux x86_64) AppleWebKit/537.36 (KHTML, like Gecko) draw.io/22.1.2 Chrome/114.0.5735.289 Electron/25.9.4 Safari/537.36" etag="LLef3SCwzu0I3FASJcNC" version="22.1.2" type="device">
  <diagram name="РОН а3" id="РОН">
    <mxGraphModel dx="979" dy="572" grid="1" gridSize="10" guides="1" tooltips="1" connect="1" arrows="1" fold="1" page="1" pageScale="1" pageWidth="1654" pageHeight="1169" math="0" shadow="0">
      <root>
        <mxCell id="0" />
        <mxCell id="1" style="" parent="0" />
        <UserObject label="" tags="Фон" id="2">
          <mxCell style="vsdxID=56;fillColor=#FFFFFF;gradientColor=none;shape=stencil(nY9LDoAgDERP0z3SI/i5BwkoRAUC+Lu9kGo0Lt3NtK/tFLCOWngFnMUU3Kg2I5MGbIBzY7UKJmUF2ALWvQtqCG6xkrwXhSxqdmvZsNNcxViZ4ewgT64jdDL2hf4E7wsXmsWThd549765c4l+xvYE);strokeColor=#000000;strokeWidth=4;spacingTop=-1;spacingBottom=-1;spacingLeft=-1;spacingRight=-1;points=[];labelBackgroundColor=#ffffff;rounded=0;html=1;whiteSpace=wrap;" parent="1" vertex="1">
            <mxGeometry x="905" y="940" width="740" height="220" as="geometry" />
          </mxCell>
        </UserObject>
        <UserObject label="" tags="Фон" id="51">
          <mxCell style="vsdxID=57;edgeStyle=none;startArrow=none;endArrow=none;startSize=5;endSize=5;strokeWidth=4;strokeColor=#000000;spacingTop=-1;spacingBottom=-1;spacingLeft=-1;spacingRight=-1;verticalAlign=middle;html=1;labelBackgroundColor=#ffffff;rounded=0;" parent="1" edge="1">
            <mxGeometry relative="1" as="geometry">
              <Array as="points" />
              <mxPoint x="1645" y="1000" as="sourcePoint" />
              <mxPoint x="1165" y="1000" as="targetPoint" />
            </mxGeometry>
          </mxCell>
        </UserObject>
        <UserObject label="" tags="Фон" id="52">
          <mxCell style="vsdxID=58;edgeStyle=none;startArrow=none;endArrow=none;startSize=5;endSize=5;strokeWidth=4;strokeColor=#000000;spacingTop=-1;spacingBottom=-1;spacingLeft=-1;spacingRight=-1;verticalAlign=middle;html=1;labelBackgroundColor=#ffffff;rounded=0;" parent="1" edge="1">
            <mxGeometry relative="1" as="geometry">
              <Array as="points" />
              <mxPoint x="1165" y="940" as="sourcePoint" />
              <mxPoint x="1165" y="1160" as="targetPoint" />
            </mxGeometry>
          </mxCell>
        </UserObject>
        <UserObject label="" tags="Фон" id="53">
          <mxCell style="vsdxID=59;edgeStyle=none;startArrow=none;endArrow=none;startSize=5;endSize=5;strokeWidth=4;strokeColor=#000000;spacingTop=-1;spacingBottom=-1;spacingLeft=-1;spacingRight=-1;verticalAlign=middle;html=1;labelBackgroundColor=#ffffff;rounded=0;" parent="1" edge="1">
            <mxGeometry relative="1" as="geometry">
              <Array as="points" />
              <mxPoint x="1645" y="1100" as="sourcePoint" />
              <mxPoint x="1165" y="1100" as="targetPoint" />
            </mxGeometry>
          </mxCell>
        </UserObject>
        <UserObject label="" tags="Фон" id="54">
          <mxCell style="vsdxID=60;edgeStyle=none;startArrow=none;endArrow=none;startSize=5;endSize=5;strokeWidth=4;strokeColor=#000000;spacingTop=-1;spacingBottom=-1;spacingLeft=-1;spacingRight=-1;verticalAlign=middle;html=1;labelBackgroundColor=#ffffff;rounded=0;" parent="1" edge="1">
            <mxGeometry relative="1" as="geometry">
              <Array as="points" />
              <mxPoint x="1445" y="1000" as="sourcePoint" />
              <mxPoint x="1445" y="1160" as="targetPoint" />
            </mxGeometry>
          </mxCell>
        </UserObject>
        <UserObject label="" tags="Фон" id="55">
          <mxCell style="vsdxID=61;edgeStyle=none;startArrow=none;endArrow=none;startSize=5;endSize=5;strokeWidth=4;strokeColor=#000000;spacingTop=-1;spacingBottom=-1;spacingLeft=-1;spacingRight=-1;verticalAlign=middle;html=1;labelBackgroundColor=#ffffff;rounded=0;" parent="1" edge="1">
            <mxGeometry relative="1" as="geometry">
              <mxPoint as="offset" />
              <Array as="points" />
              <mxPoint x="1445" y="1020" as="sourcePoint" />
              <mxPoint x="1645" y="1020" as="targetPoint" />
            </mxGeometry>
          </mxCell>
        </UserObject>
        <UserObject label="" tags="Фон" id="56">
          <mxCell style="vsdxID=62;edgeStyle=none;startArrow=none;endArrow=none;startSize=5;endSize=5;strokeWidth=4;strokeColor=#000000;spacingTop=-1;spacingBottom=-1;spacingLeft=-1;spacingRight=-1;verticalAlign=middle;html=1;labelBackgroundColor=#ffffff;rounded=0;" parent="1" edge="1">
            <mxGeometry relative="1" as="geometry">
              <mxPoint as="offset" />
              <Array as="points" />
              <mxPoint x="1445" y="1080" as="sourcePoint" />
              <mxPoint x="1645" y="1080" as="targetPoint" />
            </mxGeometry>
          </mxCell>
        </UserObject>
        <UserObject label="" tags="Фон" id="57">
          <mxCell style="vsdxID=63;edgeStyle=none;startArrow=none;endArrow=none;startSize=5;endSize=5;strokeWidth=4;strokeColor=#000000;spacingTop=-1;spacingBottom=-1;spacingLeft=-1;spacingRight=-1;verticalAlign=middle;html=1;labelBackgroundColor=#ffffff;rounded=0;" parent="1" edge="1">
            <mxGeometry relative="1" as="geometry">
              <Array as="points" />
              <mxPoint x="1505" y="1000" as="sourcePoint" />
              <mxPoint x="1505" y="1080" as="targetPoint" />
            </mxGeometry>
          </mxCell>
        </UserObject>
        <UserObject label="" tags="Фон" id="58">
          <mxCell style="vsdxID=64;edgeStyle=none;startArrow=none;endArrow=none;startSize=5;endSize=5;strokeColor=#000000;spacingTop=-1;spacingBottom=-1;spacingLeft=-1;spacingRight=-1;verticalAlign=middle;html=1;labelBackgroundColor=#ffffff;rounded=0;" parent="1" edge="1">
            <mxGeometry relative="1" as="geometry">
              <Array as="points" />
              <mxPoint x="1465" y="1020" as="sourcePoint" />
              <mxPoint x="1465" y="1080" as="targetPoint" />
            </mxGeometry>
          </mxCell>
        </UserObject>
        <UserObject label="" tags="Фон" id="59">
          <mxCell style="vsdxID=65;edgeStyle=none;startArrow=none;endArrow=none;startSize=5;endSize=5;strokeColor=#000000;spacingTop=-1;spacingBottom=-1;spacingLeft=-1;spacingRight=-1;verticalAlign=middle;html=1;labelBackgroundColor=#ffffff;rounded=0;" parent="1" edge="1">
            <mxGeometry relative="1" as="geometry">
              <Array as="points" />
              <mxPoint x="1485" y="1020" as="sourcePoint" />
              <mxPoint x="1485" y="1080" as="targetPoint" />
            </mxGeometry>
          </mxCell>
        </UserObject>
        <UserObject label="" tags="Фон" id="60">
          <mxCell style="vsdxID=66;edgeStyle=none;startArrow=none;endArrow=none;startSize=5;endSize=5;strokeWidth=4;strokeColor=#000000;spacingTop=-1;spacingBottom=-1;spacingLeft=-1;spacingRight=-1;verticalAlign=middle;html=1;labelBackgroundColor=#ffffff;rounded=0;" parent="1" edge="1">
            <mxGeometry relative="1" as="geometry">
              <Array as="points" />
              <mxPoint x="1525" y="1080" as="sourcePoint" />
              <mxPoint x="1525" y="1100" as="targetPoint" />
            </mxGeometry>
          </mxCell>
        </UserObject>
        <UserObject label="" tags="Фон" id="61">
          <mxCell style="vsdxID=67;edgeStyle=none;startArrow=none;endArrow=none;startSize=5;endSize=5;strokeWidth=4;strokeColor=#000000;spacingTop=-1;spacingBottom=-1;spacingLeft=-1;spacingRight=-1;verticalAlign=middle;html=1;labelBackgroundColor=#ffffff;rounded=0;" parent="1" edge="1">
            <mxGeometry relative="1" as="geometry">
              <Array as="points" />
              <mxPoint x="1575" y="1000" as="sourcePoint" />
              <mxPoint x="1575" y="1080" as="targetPoint" />
            </mxGeometry>
          </mxCell>
        </UserObject>
        <UserObject label="" tags="Фон" id="62">
          <mxCell style="vsdxID=68;edgeStyle=none;startArrow=none;endArrow=none;startSize=5;endSize=5;strokeWidth=4;strokeColor=#000000;spacingTop=-1;spacingBottom=-1;spacingLeft=-1;spacingRight=-1;verticalAlign=middle;html=1;labelBackgroundColor=#ffffff;rounded=0;" parent="1" edge="1">
            <mxGeometry relative="1" as="geometry">
              <Array as="points" />
              <mxPoint x="1125" y="940" as="sourcePoint" />
              <mxPoint x="1125" y="1160" as="targetPoint" />
            </mxGeometry>
          </mxCell>
        </UserObject>
        <UserObject label="" tags="Фон" id="63">
          <mxCell style="vsdxID=69;edgeStyle=none;startArrow=none;endArrow=none;startSize=5;endSize=5;strokeWidth=4;strokeColor=#000000;spacingTop=-1;spacingBottom=-1;spacingLeft=-1;spacingRight=-1;verticalAlign=middle;html=1;labelBackgroundColor=#ffffff;rounded=0;" parent="1" edge="1">
            <mxGeometry relative="1" as="geometry">
              <Array as="points" />
              <mxPoint x="1065" y="940" as="sourcePoint" />
              <mxPoint x="1065" y="1160" as="targetPoint" />
            </mxGeometry>
          </mxCell>
        </UserObject>
        <UserObject label="" tags="Фон" id="64">
          <mxCell style="vsdxID=70;edgeStyle=none;startArrow=none;endArrow=none;startSize=5;endSize=5;strokeWidth=4;strokeColor=#000000;spacingTop=-1;spacingBottom=-1;spacingLeft=-1;spacingRight=-1;verticalAlign=middle;html=1;labelBackgroundColor=#ffffff;rounded=0;" parent="1" edge="1">
            <mxGeometry relative="1" as="geometry">
              <Array as="points" />
              <mxPoint x="973" y="940" as="sourcePoint" />
              <mxPoint x="973" y="1160" as="targetPoint" />
            </mxGeometry>
          </mxCell>
        </UserObject>
        <UserObject label="" tags="Фон" id="65">
          <mxCell style="vsdxID=71;edgeStyle=none;startArrow=none;endArrow=none;startSize=5;endSize=5;strokeColor=#000000;spacingTop=-1;spacingBottom=-1;spacingLeft=-1;spacingRight=-1;verticalAlign=middle;html=1;labelBackgroundColor=#ffffff;rounded=0;" parent="1" edge="1">
            <mxGeometry relative="1" as="geometry">
              <mxPoint as="offset" />
              <Array as="points" />
              <mxPoint x="905" y="960" as="sourcePoint" />
              <mxPoint x="1165" y="960" as="targetPoint" />
            </mxGeometry>
          </mxCell>
        </UserObject>
        <UserObject label="" tags="Фон" id="66">
          <mxCell style="vsdxID=72;edgeStyle=none;startArrow=none;endArrow=none;startSize=5;endSize=5;strokeColor=#000000;spacingTop=-1;spacingBottom=-1;spacingLeft=-1;spacingRight=-1;verticalAlign=middle;html=1;labelBackgroundColor=#ffffff;rounded=0;" parent="1" edge="1">
            <mxGeometry relative="1" as="geometry">
              <mxPoint as="offset" />
              <Array as="points" />
              <mxPoint x="905" y="980" as="sourcePoint" />
              <mxPoint x="1165" y="980" as="targetPoint" />
            </mxGeometry>
          </mxCell>
        </UserObject>
        <UserObject label="" tags="Фон" id="67">
          <mxCell style="vsdxID=73;edgeStyle=none;startArrow=none;endArrow=none;startSize=5;endSize=5;strokeColor=#000000;spacingTop=-1;spacingBottom=-1;spacingLeft=-1;spacingRight=-1;verticalAlign=middle;html=1;labelBackgroundColor=#ffffff;rounded=0;" parent="1" edge="1">
            <mxGeometry relative="1" as="geometry">
              <mxPoint as="offset" />
              <Array as="points" />
              <mxPoint x="905" y="1000" as="sourcePoint" />
              <mxPoint x="1165" y="1000" as="targetPoint" />
            </mxGeometry>
          </mxCell>
        </UserObject>
        <UserObject label="" tags="Фон" id="68">
          <mxCell style="vsdxID=74;edgeStyle=none;startArrow=none;endArrow=none;startSize=5;endSize=5;strokeWidth=4;strokeColor=#000000;spacingTop=-1;spacingBottom=-1;spacingLeft=-1;spacingRight=-1;verticalAlign=middle;html=1;labelBackgroundColor=#ffffff;rounded=0;" parent="1" edge="1">
            <mxGeometry relative="1" as="geometry">
              <mxPoint as="offset" />
              <Array as="points" />
              <mxPoint x="905" y="1020" as="sourcePoint" />
              <mxPoint x="1165" y="1020" as="targetPoint" />
            </mxGeometry>
          </mxCell>
        </UserObject>
        <UserObject label="" tags="Фон" id="69">
          <mxCell style="vsdxID=75;edgeStyle=none;startArrow=none;endArrow=none;startSize=5;endSize=5;strokeWidth=4;strokeColor=#000000;spacingTop=-1;spacingBottom=-1;spacingLeft=-1;spacingRight=-1;verticalAlign=middle;html=1;labelBackgroundColor=#ffffff;rounded=0;" parent="1" edge="1">
            <mxGeometry relative="1" as="geometry">
              <mxPoint as="offset" />
              <Array as="points" />
              <mxPoint x="905" y="1040" as="sourcePoint" />
              <mxPoint x="1165" y="1040" as="targetPoint" />
            </mxGeometry>
          </mxCell>
        </UserObject>
        <UserObject label="" tags="Фон" id="70">
          <mxCell style="vsdxID=76;edgeStyle=none;startArrow=none;endArrow=none;startSize=5;endSize=5;strokeColor=#000000;spacingTop=-1;spacingBottom=-1;spacingLeft=-1;spacingRight=-1;verticalAlign=middle;html=1;labelBackgroundColor=#ffffff;rounded=0;" parent="1" edge="1">
            <mxGeometry relative="1" as="geometry">
              <mxPoint as="offset" />
              <Array as="points" />
              <mxPoint x="905" y="1060" as="sourcePoint" />
              <mxPoint x="1165" y="1060" as="targetPoint" />
            </mxGeometry>
          </mxCell>
        </UserObject>
        <UserObject label="" tags="Фон" id="71">
          <mxCell style="vsdxID=77;edgeStyle=none;startArrow=none;endArrow=none;startSize=5;endSize=5;strokeColor=#000000;spacingTop=-1;spacingBottom=-1;spacingLeft=-1;spacingRight=-1;verticalAlign=middle;html=1;labelBackgroundColor=#ffffff;rounded=0;" parent="1" edge="1">
            <mxGeometry relative="1" as="geometry">
              <mxPoint as="offset" />
              <Array as="points" />
              <mxPoint x="905" y="1080" as="sourcePoint" />
              <mxPoint x="1165" y="1080" as="targetPoint" />
            </mxGeometry>
          </mxCell>
        </UserObject>
        <UserObject label="" tags="Фон" id="72">
          <mxCell style="vsdxID=78;edgeStyle=none;startArrow=none;endArrow=none;startSize=5;endSize=5;strokeColor=#000000;spacingTop=-1;spacingBottom=-1;spacingLeft=-1;spacingRight=-1;verticalAlign=middle;html=1;labelBackgroundColor=#ffffff;rounded=0;" parent="1" edge="1">
            <mxGeometry relative="1" as="geometry">
              <mxPoint as="offset" />
              <Array as="points" />
              <mxPoint x="905" y="1100" as="sourcePoint" />
              <mxPoint x="1165" y="1100" as="targetPoint" />
            </mxGeometry>
          </mxCell>
        </UserObject>
        <UserObject label="" tags="Фон" id="73">
          <mxCell style="vsdxID=79;edgeStyle=none;startArrow=none;endArrow=none;startSize=5;endSize=5;strokeColor=#000000;spacingTop=-1;spacingBottom=-1;spacingLeft=-1;spacingRight=-1;verticalAlign=middle;html=1;labelBackgroundColor=#ffffff;rounded=0;" parent="1" edge="1">
            <mxGeometry relative="1" as="geometry">
              <mxPoint as="offset" />
              <Array as="points" />
              <mxPoint x="905" y="1120" as="sourcePoint" />
              <mxPoint x="1165" y="1120" as="targetPoint" />
            </mxGeometry>
          </mxCell>
        </UserObject>
        <UserObject label="" tags="Фон" id="74">
          <mxCell style="vsdxID=80;edgeStyle=none;startArrow=none;endArrow=none;startSize=5;endSize=5;strokeColor=#000000;spacingTop=-1;spacingBottom=-1;spacingLeft=-1;spacingRight=-1;verticalAlign=middle;html=1;labelBackgroundColor=#ffffff;rounded=0;" parent="1" edge="1">
            <mxGeometry relative="1" as="geometry">
              <mxPoint as="offset" />
              <Array as="points" />
              <mxPoint x="905" y="1140" as="sourcePoint" />
              <mxPoint x="1165" y="1140" as="targetPoint" />
            </mxGeometry>
          </mxCell>
        </UserObject>
        <UserObject label="" tags="Фон" id="75">
          <mxCell style="vsdxID=81;edgeStyle=none;startArrow=none;endArrow=none;startSize=5;endSize=5;strokeWidth=4;strokeColor=#000000;spacingTop=-1;spacingBottom=-1;spacingLeft=-1;spacingRight=-1;verticalAlign=middle;html=1;labelBackgroundColor=#ffffff;rounded=0;" parent="1" edge="1">
            <mxGeometry relative="1" as="geometry">
              <Array as="points" />
              <mxPoint x="933" y="940" as="sourcePoint" />
              <mxPoint x="933" y="1040" as="targetPoint" />
            </mxGeometry>
          </mxCell>
        </UserObject>
        <UserObject label="&lt;div style=&quot;font-size: 1px&quot;&gt;&lt;font style=&quot;font-size:11.29px;font-family:Arial;color:#000000;direction:ltr;letter-spacing:0px;line-height:120%;opacity:1&quot;&gt;&lt;i&gt;Изм&lt;br/&gt;&lt;/i&gt;&lt;/font&gt;&lt;/div&gt;" tags="Фон" id="3">
          <mxCell style="verticalAlign=middle;align=center;overflow=width;vsdxID=82;fillColor=none;gradientColor=none;shape=stencil(nZBLDoAgDERP0z3SIyjew0SURgSD+Lu9kMZoXLhwN9O+tukAlrNpJg1SzDH4QW/URgNYgZTkjA4UkwJUgGXng+6DX1zLfmoymdXo17xh5zmRJ6Q42BWCfc2oJfdAr+Yv+AP9Cb7OJ3H/2JG1HNGz/84klThPVCc=);strokeColor=none;strokeWidth=4;spacingTop=-1;spacingBottom=-1;spacingLeft=-1;spacingRight=-1;points=[];labelBackgroundColor=none;rounded=0;html=1;whiteSpace=wrap;" parent="1" vertex="1">
            <mxGeometry x="905" y="1022" width="27" height="16" as="geometry" />
          </mxCell>
        </UserObject>
        <UserObject label="&lt;div style=&quot;font-size: 1px&quot;&gt;&lt;font style=&quot;font-size:11.29px;font-family:Arial;color:#000000;direction:ltr;letter-spacing:0px;line-height:120%;opacity:1&quot;&gt;&lt;i&gt;Лист&lt;br/&gt;&lt;/i&gt;&lt;/font&gt;&lt;/div&gt;" tags="Фон" id="4">
          <mxCell style="verticalAlign=middle;align=center;overflow=width;vsdxID=83;fillColor=none;gradientColor=none;shape=stencil(nZBLDoAgDERP0z3SIyjew0SURgSD+Lu9kMZoXLhwN9O+tukAlrNpJg1SzDH4QW/URgNYgZTkjA4UkwJUgGXng+6DX1zLfmoymdXo17xh5zmRJ6Q42BWCfc2oJfdAr+Yv+AP9Cb7OJ3H/2JG1HNGz/84klThPVCc=);strokeColor=none;strokeWidth=4;spacingTop=-1;spacingBottom=-1;spacingLeft=-1;spacingRight=-1;points=[];labelBackgroundColor=none;rounded=0;html=1;whiteSpace=wrap;" parent="1" vertex="1">
            <mxGeometry x="935" y="1022" width="36" height="16" as="geometry" />
          </mxCell>
        </UserObject>
        <UserObject label="&lt;div style=&quot;font-size: 1px&quot;&gt;&lt;font style=&quot;font-size:11.29px;font-family:Arial;color:#000000;direction:ltr;letter-spacing:0px;line-height:120%;opacity:1&quot;&gt;&lt;i&gt;№ документа&lt;br/&gt;&lt;/i&gt;&lt;/font&gt;&lt;/div&gt;" tags="Фон" id="5">
          <mxCell style="verticalAlign=middle;align=center;overflow=width;vsdxID=84;fillColor=none;gradientColor=none;shape=stencil(nZBLDoAgDERP0z3SIyjew0SURgSD+Lu9kMZoXLhwN9O+tukAlrNpJg1SzDH4QW/URgNYgZTkjA4UkwJUgGXng+6DX1zLfmoymdXo17xh5zmRJ6Q42BWCfc2oJfdAr+Yv+AP9Cb7OJ3H/2JG1HNGz/84klThPVCc=);strokeColor=none;strokeWidth=4;spacingTop=-1;spacingBottom=-1;spacingLeft=-1;spacingRight=-1;points=[];labelBackgroundColor=none;rounded=0;html=1;whiteSpace=wrap;" parent="1" vertex="1">
            <mxGeometry x="975" y="1022" width="88" height="16" as="geometry" />
          </mxCell>
        </UserObject>
        <UserObject label="&lt;div style=&quot;font-size: 1px&quot;&gt;&lt;font style=&quot;font-size:11.29px;font-family:Arial;color:#000000;direction:ltr;letter-spacing:0px;line-height:120%;opacity:1&quot;&gt;&lt;i&gt;Подпись&lt;br/&gt;&lt;/i&gt;&lt;/font&gt;&lt;/div&gt;" tags="Фон" id="6">
          <mxCell style="verticalAlign=middle;align=center;overflow=width;vsdxID=85;fillColor=none;gradientColor=none;shape=stencil(nZBLDoAgDERP0z3SIyjew0SURgSD+Lu9kMZoXLhwN9O+tukAlrNpJg1SzDH4QW/URgNYgZTkjA4UkwJUgGXng+6DX1zLfmoymdXo17xh5zmRJ6Q42BWCfc2oJfdAr+Yv+AP9Cb7OJ3H/2JG1HNGz/84klThPVCc=);strokeColor=none;strokeWidth=4;spacingTop=-1;spacingBottom=-1;spacingLeft=-1;spacingRight=-1;points=[];labelBackgroundColor=none;rounded=0;html=1;whiteSpace=wrap;" parent="1" vertex="1">
            <mxGeometry x="1067" y="1022" width="56" height="16" as="geometry" />
          </mxCell>
        </UserObject>
        <UserObject label="&lt;div style=&quot;font-size: 1px&quot;&gt;&lt;font style=&quot;font-size:11.29px;font-family:Arial;color:#000000;direction:ltr;letter-spacing:0px;line-height:120%;opacity:1&quot;&gt;&lt;i&gt;Дата&lt;br/&gt;&lt;/i&gt;&lt;/font&gt;&lt;/div&gt;" tags="Фон" id="7">
          <mxCell style="verticalAlign=middle;align=center;overflow=width;vsdxID=86;fillColor=none;gradientColor=none;shape=stencil(nZBLDoAgDERP0z3SIyjew0SURgSD+Lu9kMZoXLhwN9O+tukAlrNpJg1SzDH4QW/URgNYgZTkjA4UkwJUgGXng+6DX1zLfmoymdXo17xh5zmRJ6Q42BWCfc2oJfdAr+Yv+AP9Cb7OJ3H/2JG1HNGz/84klThPVCc=);strokeColor=none;strokeWidth=4;spacingTop=-1;spacingBottom=-1;spacingLeft=-1;spacingRight=-1;points=[];labelBackgroundColor=none;rounded=0;html=1;whiteSpace=wrap;" parent="1" vertex="1">
            <mxGeometry x="1127" y="1022" width="36" height="16" as="geometry" />
          </mxCell>
        </UserObject>
        <UserObject label="&lt;div style=&quot;font-size: 1px&quot;&gt;&lt;font style=&quot;font-size:11.29px;font-family:Arial;color:#000000;direction:ltr;letter-spacing:0px;line-height:120%;opacity:1&quot;&gt;&lt;i&gt;Лит.&lt;br/&gt;&lt;/i&gt;&lt;/font&gt;&lt;/div&gt;" tags="Фон" id="8">
          <mxCell style="verticalAlign=middle;align=center;overflow=width;vsdxID=87;fillColor=none;gradientColor=none;shape=stencil(nZBLDoAgDERP0z3SIyjew0SURgSD+Lu9kMZoXLhwN9O+tukAlrNpJg1SzDH4QW/URgNYgZTkjA4UkwJUgGXng+6DX1zLfmoymdXo17xh5zmRJ6Q42BWCfc2oJfdAr+Yv+AP9Cb7OJ3H/2JG1HNGz/84klThPVCc=);strokeColor=none;strokeWidth=4;spacingTop=-1;spacingBottom=-1;spacingLeft=-1;spacingRight=-1;points=[];labelBackgroundColor=none;rounded=0;html=1;whiteSpace=wrap;" parent="1" vertex="1">
            <mxGeometry x="1447" y="1002" width="56" height="16" as="geometry" />
          </mxCell>
        </UserObject>
        <UserObject label="&lt;div style=&quot;font-size: 1px&quot;&gt;&lt;font style=&quot;font-size:11.29px;font-family:Arial;color:#000000;direction:ltr;letter-spacing:0px;line-height:120%;opacity:1&quot;&gt;&lt;i&gt;Масса&lt;br/&gt;&lt;/i&gt;&lt;/font&gt;&lt;/div&gt;" tags="Фон" id="9">
          <mxCell style="verticalAlign=middle;align=center;overflow=width;vsdxID=88;fillColor=none;gradientColor=none;shape=stencil(nZBLDoAgDERP0z3SIyjew0SURgSD+Lu9kMZoXLhwN9O+tukAlrNpJg1SzDH4QW/URgNYgZTkjA4UkwJUgGXng+6DX1zLfmoymdXo17xh5zmRJ6Q42BWCfc2oJfdAr+Yv+AP9Cb7OJ3H/2JG1HNGz/84klThPVCc=);strokeColor=none;strokeWidth=4;spacingTop=-1;spacingBottom=-1;spacingLeft=-1;spacingRight=-1;points=[];labelBackgroundColor=none;rounded=0;html=1;whiteSpace=wrap;" parent="1" vertex="1">
            <mxGeometry x="1507" y="1002" width="66" height="16" as="geometry" />
          </mxCell>
        </UserObject>
        <UserObject label="&lt;div style=&quot;font-size: 1px&quot;&gt;&lt;font style=&quot;font-size:11.29px;font-family:Arial;color:#000000;direction:ltr;letter-spacing:0px;line-height:120%;opacity:1&quot;&gt;&lt;i&gt;Масштаб&lt;br/&gt;&lt;/i&gt;&lt;/font&gt;&lt;/div&gt;" tags="Фон" id="10">
          <mxCell style="verticalAlign=middle;align=center;overflow=width;vsdxID=89;fillColor=none;gradientColor=none;shape=stencil(nZBLDoAgDERP0z3SIyjew0SURgSD+Lu9kMZoXLhwN9O+tukAlrNpJg1SzDH4QW/URgNYgZTkjA4UkwJUgGXng+6DX1zLfmoymdXo17xh5zmRJ6Q42BWCfc2oJfdAr+Yv+AP9Cb7OJ3H/2JG1HNGz/84klThPVCc=);strokeColor=none;strokeWidth=4;spacingTop=-1;spacingBottom=-1;spacingLeft=-1;spacingRight=-1;points=[];labelBackgroundColor=none;rounded=0;html=1;whiteSpace=wrap;" parent="1" vertex="1">
            <mxGeometry x="1577" y="1002" width="66" height="16" as="geometry" />
          </mxCell>
        </UserObject>
        <UserObject label="&lt;div style=&quot;font-size: 1px&quot;&gt;&lt;font style=&quot;font-size:11.29px;font-family:Arial;color:#000000;direction:ltr;letter-spacing:0px;line-height:120%;opacity:1&quot;&gt;&lt;i&gt;Лист&lt;br/&gt;&lt;/i&gt;&lt;/font&gt;&lt;/div&gt;" tags="Фон" id="11">
          <mxCell style="verticalAlign=middle;align=center;overflow=width;vsdxID=90;fillColor=none;gradientColor=none;shape=stencil(nZBLDoAgDERP0z3SIyjew0SURgSD+Lu9kMZoXLhwN9O+tukAlrNpJg1SzDH4QW/URgNYgZTkjA4UkwJUgGXng+6DX1zLfmoymdXo17xh5zmRJ6Q42BWCfc2oJfdAr+Yv+AP9Cb7OJ3H/2JG1HNGz/84klThPVCc=);strokeColor=none;strokeWidth=4;spacingTop=-1;spacingBottom=-1;spacingLeft=-1;spacingRight=-1;points=[];labelBackgroundColor=none;rounded=0;html=1;whiteSpace=wrap;" parent="1" vertex="1">
            <mxGeometry x="1447" y="1082" width="76" height="16" as="geometry" />
          </mxCell>
        </UserObject>
        <UserObject label="&lt;div style=&quot;font-size: 1px&quot;&gt;&lt;font style=&quot;font-size:11.29px;font-family:Arial;color:#000000;direction:ltr;letter-spacing:0px;line-height:120%;opacity:1&quot;&gt;&lt;i&gt;Листов&lt;br/&gt;&lt;/i&gt;&lt;/font&gt;&lt;/div&gt;" tags="Фон" id="12">
          <mxCell style="verticalAlign=middle;align=center;overflow=width;vsdxID=91;fillColor=none;gradientColor=none;shape=stencil(nZBLDoAgDERP0z3SIyjew0SURgSD+Lu9kMZoXLhwN9O+tukAlrNpJg1SzDH4QW/URgNYgZTkjA4UkwJUgGXng+6DX1zLfmoymdXo17xh5zmRJ6Q42BWCfc2oJfdAr+Yv+AP9Cb7OJ3H/2JG1HNGz/84klThPVCc=);strokeColor=none;strokeWidth=4;spacingTop=-1;spacingBottom=-1;spacingLeft=-1;spacingRight=-1;points=[];labelBackgroundColor=none;rounded=0;html=1;whiteSpace=wrap;" parent="1" vertex="1">
            <mxGeometry x="1527" y="1082" width="116" height="16" as="geometry" />
          </mxCell>
        </UserObject>
        <UserObject label="&lt;div style=&quot;font-size: 1px&quot;&gt;&lt;p style=&quot;text-align:right;margin-left:0;margin-right:0;margin-top:0px;margin-bottom:0px;text-indent:0;vertical-align:middle;direction:rtl;&quot;&gt;&lt;font style=&quot;font-size:14.11px;font-family:Arial;color:#000000;direction:ltr;letter-spacing:0px;line-height:120%;opacity:1&quot;&gt;&lt;i&gt;Сенкевич&lt;br&gt;&lt;/i&gt;&lt;/font&gt;&lt;/p&gt;&lt;/div&gt;" tags="Фон" id="15">
          <mxCell style="verticalAlign=middle;align=right;overflow=width;vsdxID=94;fillColor=none;gradientColor=none;shape=stencil(nZBLDoAgDERP0z3SIyjew0SURgSD+Lu9kMZoXLhwN9O+tukAlrNpJg1SzDH4QW/URgNYgZTkjA4UkwJUgGXng+6DX1zLfmoymdXo17xh5zmRJ6Q42BWCfc2oJfdAr+Yv+AP9Cb7OJ3H/2JG1HNGz/84klThPVCc=);strokeColor=none;spacingTop=-1;spacingBottom=-1;spacingLeft=-1;spacingRight=-1;points=[];labelBackgroundColor=none;rounded=0;html=1;whiteSpace=wrap;" parent="1" vertex="1">
            <mxGeometry x="938" y="1042" width="106" height="20" as="geometry" />
          </mxCell>
        </UserObject>
        <UserObject label="&lt;div style=&quot;font-size: 1px&quot;&gt;&lt;p style=&quot;text-align:right;margin-left:0;margin-right:0;margin-top:0px;margin-bottom:0px;text-indent:0;vertical-align:middle;direction:rtl;&quot;&gt;&lt;font style=&quot;font-size:14.11px;font-family:Arial;color:#000000;direction:ltr;letter-spacing:0px;line-height:120%;opacity:1&quot;&gt;&lt;i&gt;Русакович&lt;/i&gt;&lt;/font&gt;&lt;/p&gt;&lt;/div&gt;" tags="Фон" id="16">
          <mxCell style="verticalAlign=middle;align=right;overflow=width;vsdxID=95;fillColor=none;gradientColor=none;shape=stencil(nZBLDoAgDERP0z3SIyjew0SURgSD+Lu9kMZoXLhwN9O+tukAlrNpJg1SzDH4QW/URgNYgZTkjA4UkwJUgGXng+6DX1zLfmoymdXo17xh5zmRJ6Q42BWCfc2oJfdAr+Yv+AP9Cb7OJ3H/2JG1HNGz/84klThPVCc=);strokeColor=none;spacingTop=-1;spacingBottom=-1;spacingLeft=-1;spacingRight=-1;points=[];labelBackgroundColor=none;rounded=0;html=1;whiteSpace=wrap;" parent="1" vertex="1">
            <mxGeometry x="931" y="1062" width="120" height="20" as="geometry" />
          </mxCell>
        </UserObject>
        <UserObject label="&lt;div style=&quot;font-size: 1px&quot;&gt;&lt;font style=&quot;font-size:19.76px;font-family:Arial;color:#000000;direction:ltr;letter-spacing:0px;line-height:120%;opacity:1&quot;&gt;&lt;i&gt;ЭВМ&lt;/i&gt;&lt;/font&gt;&lt;font style=&quot;font-size:19.76px;font-family:Arial;color:#000000;direction:ltr;letter-spacing:0px;line-height:120%;opacity:1&quot;&gt;&lt;i&gt;, гр. &lt;/i&gt;&lt;/font&gt;&lt;font style=&quot;font-size:19.76px;font-family:Arial;color:#000000;direction:ltr;letter-spacing:0px;line-height:120%;opacity:1&quot;&gt;&lt;i&gt;050503&lt;br/&gt;&lt;/i&gt;&lt;/font&gt;&lt;/div&gt;" tags="Фон" id="17">
          <mxCell style="verticalAlign=middle;align=center;overflow=width;vsdxID=96;fillColor=none;gradientColor=none;shape=stencil(nZBLDoAgDERP0z3SIyjew0SURgSD+Lu9kMZoXLhwN9O+tukAlrNpJg1SzDH4QW/URgNYgZTkjA4UkwJUgGXng+6DX1zLfmoymdXo17xh5zmRJ6Q42BWCfc2oJfdAr+Yv+AP9Cb7OJ3H/2JG1HNGz/84klThPVCc=);strokeColor=none;spacingTop=-1;spacingBottom=-1;spacingLeft=-1;spacingRight=-1;points=[];labelBackgroundColor=none;rounded=0;html=1;whiteSpace=wrap;" parent="1" vertex="1">
            <mxGeometry x="1444" y="1100" width="200" height="60" as="geometry" />
          </mxCell>
        </UserObject>
        <UserObject label="&lt;div style=&quot;font-size: 1px&quot;&gt;&lt;p style=&quot;text-align:center;margin-left:0;margin-right:0;margin-top:0px;margin-bottom:0px;text-indent:0;vertical-align:middle;direction:rtl;&quot;&gt;&lt;font style=&quot;font-size:33.87px;font-family:Arial;color:#000000;direction:ltr;letter-spacing:0px;line-height:120%;opacity:1&quot;&gt;&lt;i&gt;ГУИР.&lt;/i&gt;&lt;/font&gt;&lt;font style=&quot;font-size:33.87px;font-family:Arial;color:#000000;direction:ltr;letter-spacing:0px;line-height:120%;opacity:1&quot;&gt;&lt;i&gt;400201&lt;/i&gt;&lt;/font&gt;&lt;font style=&quot;font-size:33.87px;font-family:Arial;color:#000000;direction:ltr;letter-spacing:0px;line-height:120%;opacity:1&quot;&gt;&lt;i&gt;.&lt;/i&gt;&lt;/font&gt;&lt;font style=&quot;font-size:33.87px;font-family:Arial;color:#000000;direction:ltr;letter-spacing:0px;line-height:120%;opacity:1&quot;&gt;&lt;i&gt;80&lt;/i&gt;&lt;/font&gt;&lt;font style=&quot;font-size:33.87px;font-family:Arial;color:#000000;direction:ltr;letter-spacing:0px;line-height:120%;opacity:1&quot;&gt;&lt;i&gt;&amp;nbsp;C2&lt;/i&gt;&lt;/font&gt;&lt;font style=&quot;font-size:33.87px;font-family:Arial;color:#000000;direction:ltr;letter-spacing:0px;line-height:120%;opacity:1&quot;&gt;&lt;i&gt;&lt;br&gt;&lt;/i&gt;&lt;/font&gt;&lt;/p&gt;&lt;/div&gt;" tags="Фон" id="18">
          <mxCell style="verticalAlign=middle;align=center;overflow=width;vsdxID=97;fillColor=none;gradientColor=none;shape=stencil(nZBLDoAgDERP0z3SIyjew0SURgSD+Lu9kMZoXLhwN9O+tukAlrNpJg1SzDH4QW/URgNYgZTkjA4UkwJUgGXng+6DX1zLfmoymdXo17xh5zmRJ6Q42BWCfc2oJfdAr+Yv+AP9Cb7OJ3H/2JG1HNGz/84klThPVCc=);strokeColor=none;spacingTop=-1;spacingBottom=-1;spacingLeft=-1;spacingRight=-1;points=[];labelBackgroundColor=none;rounded=0;html=1;whiteSpace=wrap;" parent="1" vertex="1">
            <mxGeometry x="1165" y="940" width="480" height="60" as="geometry" />
          </mxCell>
        </UserObject>
        <UserObject label="&lt;div style=&quot;font-size: 19px;&quot;&gt;&lt;font style=&quot;font-size: 19px; color: rgb(0, 0, 0); direction: ltr; letter-spacing: 0px; line-height: 120%; opacity: 1;&quot;&gt;&lt;font face=&quot;Arial&quot;&gt;&lt;i&gt;Локальная компьютерная&lt;br style=&quot;border-color: var(--border-color); padding: 0px; margin: 0px; text-align: left;&quot;&gt;&lt;span style=&quot;text-align: left;&quot;&gt;сеть.&lt;/span&gt;&lt;br style=&quot;border-color: var(--border-color); padding: 0px; margin: 0px; text-align: left;&quot;&gt;&lt;span style=&quot;text-align: left;&quot;&gt;Схема СКС функциональная&lt;/span&gt;&lt;/i&gt;&lt;/font&gt;&lt;i style=&quot;font-family: Arial;&quot;&gt;&lt;br&gt;&lt;/i&gt;&lt;/font&gt;&lt;/div&gt;" tags="Фон" id="19">
          <mxCell style="verticalAlign=middle;align=center;overflow=width;vsdxID=98;fillColor=none;gradientColor=none;shape=stencil(nZBLDoAgDERP0z3SIyjew0SURgSD+Lu9kMZoXLhwN9O+tukAlrNpJg1SzDH4QW/URgNYgZTkjA4UkwJUgGXng+6DX1zLfmoymdXo17xh5zmRJ6Q42BWCfc2oJfdAr+Yv+AP9Cb7OJ3H/2JG1HNGz/84klThPVCc=);strokeColor=none;spacingTop=-1;spacingBottom=-1;spacingLeft=-1;spacingRight=-1;points=[];labelBackgroundColor=none;rounded=0;html=1;whiteSpace=wrap;" parent="1" vertex="1">
            <mxGeometry x="1165" y="1000" width="280" height="100" as="geometry" />
          </mxCell>
        </UserObject>
        <UserObject label="&lt;div style=&quot;font-size: 1px&quot;&gt;&lt;font style=&quot;font-size:19.76px;font-family:Arial;color:#000000;direction:ltr;letter-spacing:0px;line-height:120%;opacity:1&quot;&gt;&lt;i&gt;У&lt;br/&gt;&lt;/i&gt;&lt;/font&gt;&lt;/div&gt;" tags="Фон" id="20">
          <mxCell style="verticalAlign=middle;align=center;overflow=width;vsdxID=99;fillColor=none;gradientColor=none;shape=stencil(nZBLDoAgDERP0z3SIyjew0SURgSD+Lu9kMZoXLhwN9O+tukAlrNpJg1SzDH4QW/URgNYgZTkjA4UkwJUgGXng+6DX1zLfmoymdXo17xh5zmRJ6Q42BWCfc2oJfdAr+Yv+AP9Cb7OJ3H/2JG1HNGz/84klThPVCc=);strokeColor=none;spacingTop=-1;spacingBottom=-1;spacingLeft=-1;spacingRight=-1;points=[];labelBackgroundColor=none;rounded=0;html=1;whiteSpace=wrap;" parent="1" vertex="1">
            <mxGeometry x="1465" y="1020" width="20" height="60" as="geometry" />
          </mxCell>
        </UserObject>
        <UserObject label="&lt;div style=&quot;font-size: 1px&quot;&gt;&lt;font style=&quot;font-size:11.29px;font-family:Arial;color:#000000;direction:ltr;letter-spacing:0px;line-height:120%;opacity:1&quot;&gt;&lt;i&gt;1&lt;br/&gt;&lt;/i&gt;&lt;/font&gt;&lt;/div&gt;" tags="Фон" id="21">
          <mxCell style="verticalAlign=middle;align=center;overflow=width;vsdxID=100;fillColor=none;gradientColor=none;shape=stencil(nZBLDoAgDERP0z3SIyjew0SURgSD+Lu9kMZoXLhwN9O+tukAlrNpJg1SzDH4QW/URgNYgZTkjA4UkwJUgGXng+6DX1zLfmoymdXo17xh5zmRJ6Q42BWCfc2oJfdAr+Yv+AP9Cb7OJ3H/2JG1HNGz/84klThPVCc=);strokeColor=none;spacingTop=-1;spacingBottom=-1;spacingLeft=-1;spacingRight=-1;points=[];labelBackgroundColor=none;rounded=0;html=1;whiteSpace=wrap;" parent="1" vertex="1">
            <mxGeometry x="1614" y="1081" width="20" height="16" as="geometry" />
          </mxCell>
        </UserObject>
        <UserObject label="&lt;div style=&quot;font-size: 1px&quot;&gt;&lt;p style=&quot;text-align:center;margin-left:0;margin-right:0;margin-top:0px;margin-bottom:0px;text-indent:0;vertical-align:middle;direction:ltr;&quot;&gt;&lt;font style=&quot;font-size:28.08px;font-family:Arial;color:#000000;direction:ltr;letter-spacing:0px;line-height:120%;opacity:1&quot;&gt;&lt;i&gt;ГУИР.400201.80 С2&lt;/i&gt;&lt;/font&gt;&lt;font style=&quot;font-size:28.08px;font-family:Arial;color:#000000;direction:ltr;letter-spacing:0px;line-height:120%;opacity:1&quot;&gt;&lt;i&gt;&lt;br&gt;&lt;/i&gt;&lt;/font&gt;&lt;/p&gt;&lt;/div&gt;" tags="Фон" id="22">
          <mxCell style="verticalAlign=middle;align=center;overflow=width;vsdxID=101;rotation=180;fillColor=none;gradientColor=none;shape=stencil(nZBLDoAgDERP0z3SIyjew0SURgSD+Lu9kMZoXLhwN9O+tukAlrNpJg1SzDH4QW/URgNYgZTkjA4UkwJUgGXng+6DX1zLfmoymdXo17xh5zmRJ6Q42BWCfc2oJfdAr+Yv+AP9Cb7OJ3H/2JG1HNGz/84klThPVCc=);strokeColor=none;spacingTop=-3;spacingBottom=-3;spacingLeft=-3;spacingRight=-3;points=[];labelBackgroundColor=none;rounded=0;html=1;whiteSpace=wrap;" parent="1" vertex="1">
            <mxGeometry x="65" y="12" width="280" height="56" as="geometry" />
          </mxCell>
        </UserObject>
        <UserObject label="" tags="Фон" id="76">
          <mxCell style="vsdxID=102;edgeStyle=none;startArrow=none;endArrow=none;startSize=5;endSize=5;strokeWidth=4;strokeColor=#000000;spacingTop=-1;spacingBottom=-1;spacingLeft=-1;spacingRight=-1;verticalAlign=middle;html=1;labelBackgroundColor=#ffffff;rounded=0;" parent="1" edge="1">
            <mxGeometry relative="1" as="geometry">
              <Array as="points" />
              <mxPoint x="345" y="12" as="sourcePoint" />
              <mxPoint x="345" y="72" as="targetPoint" />
            </mxGeometry>
          </mxCell>
        </UserObject>
        <UserObject label="" tags="Фон" id="77">
          <mxCell style="vsdxID=103;edgeStyle=none;startArrow=none;endArrow=none;startSize=5;endSize=5;strokeWidth=4;strokeColor=#000000;spacingTop=-1;spacingBottom=-1;spacingLeft=-1;spacingRight=-1;verticalAlign=middle;html=1;labelBackgroundColor=#ffffff;rounded=0;" parent="1" edge="1">
            <mxGeometry relative="1" as="geometry">
              <Array as="points" />
              <mxPoint x="345" y="72" as="sourcePoint" />
              <mxPoint x="65" y="72" as="targetPoint" />
            </mxGeometry>
          </mxCell>
        </UserObject>
        <UserObject label="" tags="Фон" id="47">
          <mxCell style="vsdxID=52;edgeStyle=none;startArrow=none;endArrow=none;startSize=5;endSize=5;strokeWidth=4;spacingTop=0;spacingBottom=0;spacingLeft=0;spacingRight=0;verticalAlign=middle;html=1;labelBackgroundColor=#ffffff;rounded=0;" parent="1" edge="1">
            <mxGeometry relative="1" as="geometry">
              <Array as="points" />
              <mxPoint x="65" y="12" as="sourcePoint" />
              <mxPoint x="1645" y="12" as="targetPoint" />
            </mxGeometry>
          </mxCell>
        </UserObject>
        <UserObject label="" tags="Фон" id="48">
          <mxCell style="vsdxID=53;edgeStyle=none;startArrow=none;endArrow=none;startSize=5;endSize=5;strokeWidth=4;spacingTop=0;spacingBottom=0;spacingLeft=0;spacingRight=0;verticalAlign=middle;html=1;labelBackgroundColor=#ffffff;rounded=0;" parent="1" edge="1">
            <mxGeometry relative="1" as="geometry">
              <Array as="points" />
              <mxPoint x="65" y="12" as="sourcePoint" />
              <mxPoint x="65" y="1160" as="targetPoint" />
            </mxGeometry>
          </mxCell>
        </UserObject>
        <UserObject label="" tags="Фон" id="49">
          <mxCell style="vsdxID=54;edgeStyle=none;startArrow=none;endArrow=none;startSize=5;endSize=5;strokeWidth=4;spacingTop=0;spacingBottom=0;spacingLeft=0;spacingRight=0;verticalAlign=middle;html=1;labelBackgroundColor=#ffffff;rounded=0;" parent="1" edge="1">
            <mxGeometry relative="1" as="geometry">
              <mxPoint as="offset" />
              <Array as="points" />
              <mxPoint x="64" y="1160" as="sourcePoint" />
              <mxPoint x="1644" y="1160" as="targetPoint" />
            </mxGeometry>
          </mxCell>
        </UserObject>
        <UserObject label="" tags="Фон" id="50">
          <mxCell style="vsdxID=55;edgeStyle=none;startArrow=none;endArrow=none;startSize=5;endSize=5;strokeWidth=4;spacingTop=0;spacingBottom=0;spacingLeft=0;spacingRight=0;verticalAlign=middle;html=1;labelBackgroundColor=#ffffff;rounded=0;" parent="1" edge="1">
            <mxGeometry relative="1" as="geometry">
              <Array as="points" />
              <mxPoint x="1645" y="12" as="sourcePoint" />
              <mxPoint x="1644" y="1160" as="targetPoint" />
            </mxGeometry>
          </mxCell>
        </UserObject>
        <mxCell id="TYtUx51rXMcj-3jW_ZR8-80" value="" style="group" parent="1" vertex="1" connectable="0">
          <mxGeometry x="700" y="260" width="70" height="53" as="geometry" />
        </mxCell>
        <mxCell id="TYtUx51rXMcj-3jW_ZR8-78" value="&lt;span&gt;&lt;font style=&quot;font-size: 14px;&quot;&gt;9 шт.&lt;/font&gt;&lt;/span&gt;" style="text;html=1;align=center;verticalAlign=middle;resizable=0;points=[];autosize=1;strokeColor=none;fillColor=none;fontSize=23;fontFamily=Arial;fontStyle=2" parent="TYtUx51rXMcj-3jW_ZR8-80" vertex="1">
          <mxGeometry x="5" width="60" height="40" as="geometry" />
        </mxCell>
        <mxCell id="TYtUx51rXMcj-3jW_ZR8-79" value="&lt;span&gt;&lt;font style=&quot;font-size: 16px;&quot;&gt;...&lt;/font&gt;&lt;/span&gt;" style="text;html=1;align=center;verticalAlign=middle;resizable=0;points=[];autosize=1;strokeColor=none;fillColor=none;fontSize=23;fontFamily=Arial;fontStyle=2" parent="TYtUx51rXMcj-3jW_ZR8-80" vertex="1">
          <mxGeometry x="16" y="13" width="40" height="40" as="geometry" />
        </mxCell>
        <mxCell id="TYtUx51rXMcj-3jW_ZR8-81" value="" style="group" parent="1" vertex="1" connectable="0">
          <mxGeometry x="741.3" y="760" width="70" height="53" as="geometry" />
        </mxCell>
        <mxCell id="TYtUx51rXMcj-3jW_ZR8-82" value="&lt;span&gt;&lt;font style=&quot;font-size: 14px;&quot;&gt;35 шт.&lt;/font&gt;&lt;/span&gt;" style="text;html=1;align=center;verticalAlign=middle;resizable=0;points=[];autosize=1;strokeColor=none;fillColor=none;fontSize=23;fontFamily=Arial;fontStyle=2" parent="TYtUx51rXMcj-3jW_ZR8-81" vertex="1">
          <mxGeometry width="70" height="40" as="geometry" />
        </mxCell>
        <mxCell id="TYtUx51rXMcj-3jW_ZR8-83" value="&lt;span&gt;&lt;font style=&quot;font-size: 16px;&quot;&gt;...&lt;/font&gt;&lt;/span&gt;" style="text;html=1;align=center;verticalAlign=middle;resizable=0;points=[];autosize=1;strokeColor=none;fillColor=none;fontSize=23;fontFamily=Arial;fontStyle=2" parent="TYtUx51rXMcj-3jW_ZR8-81" vertex="1">
          <mxGeometry x="16" y="13" width="40" height="40" as="geometry" />
        </mxCell>
        <mxCell id="TYtUx51rXMcj-3jW_ZR8-84" value="" style="group" parent="1" vertex="1" connectable="0">
          <mxGeometry x="704" y="440" width="70" height="53" as="geometry" />
        </mxCell>
        <mxCell id="TYtUx51rXMcj-3jW_ZR8-85" value="&lt;span&gt;&lt;font style=&quot;font-size: 14px;&quot;&gt;5 шт.&lt;/font&gt;&lt;/span&gt;" style="text;html=1;align=center;verticalAlign=middle;resizable=0;points=[];autosize=1;strokeColor=none;fillColor=none;fontSize=23;fontFamily=Arial;fontStyle=2" parent="TYtUx51rXMcj-3jW_ZR8-84" vertex="1">
          <mxGeometry x="5" width="60" height="40" as="geometry" />
        </mxCell>
        <mxCell id="TYtUx51rXMcj-3jW_ZR8-86" value="&lt;span&gt;&lt;font style=&quot;font-size: 16px;&quot;&gt;...&lt;/font&gt;&lt;/span&gt;" style="text;html=1;align=center;verticalAlign=middle;resizable=0;points=[];autosize=1;strokeColor=none;fillColor=none;fontSize=23;fontFamily=Arial;fontStyle=2" parent="TYtUx51rXMcj-3jW_ZR8-84" vertex="1">
          <mxGeometry x="16" y="13" width="40" height="40" as="geometry" />
        </mxCell>
        <mxCell id="TEB3pf0p3Yp_vwyzPoEA-77" value="Слой без названия" parent="0" />
        <mxCell id="TEB3pf0p3Yp_vwyzPoEA-685" style="edgeStyle=orthogonalEdgeStyle;rounded=0;orthogonalLoop=1;jettySize=auto;html=1;endArrow=none;endFill=0;dashed=1;" parent="TEB3pf0p3Yp_vwyzPoEA-77" edge="1">
          <mxGeometry relative="1" as="geometry">
            <mxPoint x="261" y="485" as="targetPoint" />
            <mxPoint x="313" y="582" as="sourcePoint" />
            <Array as="points">
              <mxPoint x="313" y="583" />
              <mxPoint x="331" y="583" />
              <mxPoint x="331" y="465" />
              <mxPoint x="261" y="465" />
            </Array>
          </mxGeometry>
        </mxCell>
        <mxCell id="TEB3pf0p3Yp_vwyzPoEA-738" style="edgeStyle=orthogonalEdgeStyle;rounded=0;orthogonalLoop=1;jettySize=auto;html=1;strokeWidth=1;fontFamily=Arial;fontSize=14;endArrow=none;endFill=0;align=center;fontStyle=2;entryX=0.156;entryY=0.516;entryDx=0;entryDy=0;entryPerimeter=0;" parent="TEB3pf0p3Yp_vwyzPoEA-77" target="TEB3pf0p3Yp_vwyzPoEA-361" edge="1">
          <mxGeometry relative="1" as="geometry">
            <mxPoint x="1451" y="185" as="targetPoint" />
            <mxPoint x="1371" y="185" as="sourcePoint" />
          </mxGeometry>
        </mxCell>
        <mxCell id="TEB3pf0p3Yp_vwyzPoEA-739" value="" style="group;fontFamily=Arial;fontStyle=2" parent="TEB3pf0p3Yp_vwyzPoEA-77" vertex="1" connectable="0">
          <mxGeometry x="1401" y="175" width="20" height="20" as="geometry" />
        </mxCell>
        <mxCell id="TEB3pf0p3Yp_vwyzPoEA-740" value="" style="rounded=0;whiteSpace=wrap;html=1;fontFamily=Arial;fontStyle=2" parent="TEB3pf0p3Yp_vwyzPoEA-739" vertex="1">
          <mxGeometry width="20" height="20" as="geometry" />
        </mxCell>
        <mxCell id="TEB3pf0p3Yp_vwyzPoEA-741" value="" style="rounded=0;whiteSpace=wrap;html=1;fontFamily=Arial;fillColor=#000000;strokeColor=none;fontStyle=2" parent="TEB3pf0p3Yp_vwyzPoEA-739" vertex="1">
          <mxGeometry x="4.40729999999985" width="1.9685" height="10" as="geometry" />
        </mxCell>
        <mxCell id="TEB3pf0p3Yp_vwyzPoEA-742" value="" style="rounded=0;whiteSpace=wrap;html=1;fontFamily=Arial;fillColor=#000000;strokeColor=none;fontStyle=2" parent="TEB3pf0p3Yp_vwyzPoEA-739" vertex="1">
          <mxGeometry x="13.462399999999889" width="1.9685" height="10" as="geometry" />
        </mxCell>
        <mxCell id="TEB3pf0p3Yp_vwyzPoEA-743" value="" style="rounded=0;whiteSpace=wrap;html=1;fontFamily=Arial;fillColor=#000000;strokeColor=none;fontStyle=2" parent="TEB3pf0p3Yp_vwyzPoEA-739" vertex="1">
          <mxGeometry x="10.312799999999925" width="1.9685" height="10" as="geometry" />
        </mxCell>
        <mxCell id="TEB3pf0p3Yp_vwyzPoEA-744" value="" style="rounded=0;whiteSpace=wrap;html=1;fontFamily=Arial;fillColor=#000000;strokeColor=none;fontStyle=2" parent="TEB3pf0p3Yp_vwyzPoEA-739" vertex="1">
          <mxGeometry x="7.556899999999814" width="1.9685" height="10" as="geometry" />
        </mxCell>
        <mxCell id="TEB3pf0p3Yp_vwyzPoEA-745" value="" style="group;fontFamily=Arial;fontStyle=2" parent="TEB3pf0p3Yp_vwyzPoEA-77" vertex="1" connectable="0">
          <mxGeometry x="1401" y="175" width="20" height="20" as="geometry" />
        </mxCell>
        <mxCell id="TEB3pf0p3Yp_vwyzPoEA-746" value="" style="rounded=0;whiteSpace=wrap;html=1;fontFamily=Arial;fontStyle=2" parent="TEB3pf0p3Yp_vwyzPoEA-745" vertex="1">
          <mxGeometry width="20" height="20" as="geometry" />
        </mxCell>
        <mxCell id="TEB3pf0p3Yp_vwyzPoEA-747" value="" style="rounded=0;whiteSpace=wrap;html=1;fontFamily=Arial;fillColor=#000000;strokeColor=none;fontStyle=2" parent="TEB3pf0p3Yp_vwyzPoEA-745" vertex="1">
          <mxGeometry x="4.40729999999985" width="1.9685" height="10" as="geometry" />
        </mxCell>
        <mxCell id="TEB3pf0p3Yp_vwyzPoEA-748" value="" style="rounded=0;whiteSpace=wrap;html=1;fontFamily=Arial;fillColor=#000000;strokeColor=none;fontStyle=2" parent="TEB3pf0p3Yp_vwyzPoEA-745" vertex="1">
          <mxGeometry x="13.462399999999889" width="1.9685" height="10" as="geometry" />
        </mxCell>
        <mxCell id="TEB3pf0p3Yp_vwyzPoEA-749" value="" style="rounded=0;whiteSpace=wrap;html=1;fontFamily=Arial;fillColor=#000000;strokeColor=none;fontStyle=2" parent="TEB3pf0p3Yp_vwyzPoEA-745" vertex="1">
          <mxGeometry x="10.312799999999925" width="1.9685" height="10" as="geometry" />
        </mxCell>
        <mxCell id="TEB3pf0p3Yp_vwyzPoEA-750" value="" style="rounded=0;whiteSpace=wrap;html=1;fontFamily=Arial;fillColor=#000000;strokeColor=none;fontStyle=2" parent="TEB3pf0p3Yp_vwyzPoEA-745" vertex="1">
          <mxGeometry x="7.556899999999814" width="1.9685" height="10" as="geometry" />
        </mxCell>
        <mxCell id="TEB3pf0p3Yp_vwyzPoEA-614" value="" style="group;rotation=90;" parent="TEB3pf0p3Yp_vwyzPoEA-77" vertex="1" connectable="0">
          <mxGeometry x="471.0000000000002" y="188.07999999999996" width="80" height="10" as="geometry" />
        </mxCell>
        <mxCell id="TEB3pf0p3Yp_vwyzPoEA-615" style="edgeStyle=orthogonalEdgeStyle;rounded=0;orthogonalLoop=1;jettySize=auto;html=1;strokeWidth=1;fontFamily=Arial;fontSize=14;endArrow=none;endFill=0;align=center;fontStyle=2;" parent="TEB3pf0p3Yp_vwyzPoEA-614" edge="1">
          <mxGeometry relative="1" as="geometry">
            <mxPoint x="40" y="45" as="targetPoint" />
            <mxPoint x="40" y="-35" as="sourcePoint" />
          </mxGeometry>
        </mxCell>
        <mxCell id="TEB3pf0p3Yp_vwyzPoEA-616" value="" style="group;fontFamily=Arial;fontStyle=2;rotation=90;" parent="TEB3pf0p3Yp_vwyzPoEA-614" vertex="1" connectable="0">
          <mxGeometry x="25" width="30" height="10" as="geometry" />
        </mxCell>
        <mxCell id="TEB3pf0p3Yp_vwyzPoEA-617" value="" style="rounded=0;whiteSpace=wrap;html=1;fontFamily=Arial;fontStyle=2;rotation=90;" parent="TEB3pf0p3Yp_vwyzPoEA-616" vertex="1">
          <mxGeometry width="30" height="10" as="geometry" />
        </mxCell>
        <mxCell id="TEB3pf0p3Yp_vwyzPoEA-618" value="" style="rounded=0;whiteSpace=wrap;html=1;fontFamily=Arial;fillColor=#000000;strokeColor=none;fontStyle=2;rotation=90;" parent="TEB3pf0p3Yp_vwyzPoEA-616" vertex="1">
          <mxGeometry x="16" y="-7" width="5.9055" height="1.9685" as="geometry" />
        </mxCell>
        <mxCell id="TEB3pf0p3Yp_vwyzPoEA-619" value="" style="rounded=0;whiteSpace=wrap;html=1;fontFamily=Arial;fillColor=#000000;strokeColor=none;fontStyle=2;rotation=90;" parent="TEB3pf0p3Yp_vwyzPoEA-616" vertex="1">
          <mxGeometry x="16" width="5.9055" height="1.9685" as="geometry" />
        </mxCell>
        <mxCell id="TEB3pf0p3Yp_vwyzPoEA-620" value="" style="rounded=0;whiteSpace=wrap;html=1;fontFamily=Arial;fillColor=#000000;strokeColor=none;fontStyle=2;rotation=90;" parent="TEB3pf0p3Yp_vwyzPoEA-616" vertex="1">
          <mxGeometry x="16" y="8" width="5.9055" height="1.9685" as="geometry" />
        </mxCell>
        <mxCell id="TEB3pf0p3Yp_vwyzPoEA-621" value="" style="rounded=0;whiteSpace=wrap;html=1;fontFamily=Arial;fillColor=#000000;strokeColor=none;fontStyle=2;rotation=90;" parent="TEB3pf0p3Yp_vwyzPoEA-616" vertex="1">
          <mxGeometry x="16" y="15" width="5.9055" height="1.9685" as="geometry" />
        </mxCell>
        <mxCell id="TEB3pf0p3Yp_vwyzPoEA-622" value="" style="group;fontFamily=Arial;fontStyle=2;rotation=90;" parent="TEB3pf0p3Yp_vwyzPoEA-614" vertex="1" connectable="0">
          <mxGeometry x="25" width="30" height="10" as="geometry" />
        </mxCell>
        <mxCell id="TEB3pf0p3Yp_vwyzPoEA-623" value="" style="rounded=0;whiteSpace=wrap;html=1;fontFamily=Arial;fillColor=#000000;strokeColor=none;fontStyle=2;rotation=90;" parent="TEB3pf0p3Yp_vwyzPoEA-622" vertex="1">
          <mxGeometry x="16" y="-7" width="5.9055" height="1.9685" as="geometry" />
        </mxCell>
        <mxCell id="TEB3pf0p3Yp_vwyzPoEA-624" value="" style="rounded=0;whiteSpace=wrap;html=1;fontFamily=Arial;fillColor=#000000;strokeColor=none;fontStyle=2;rotation=90;" parent="TEB3pf0p3Yp_vwyzPoEA-622" vertex="1">
          <mxGeometry x="16" width="5.9055" height="1.9685" as="geometry" />
        </mxCell>
        <mxCell id="TEB3pf0p3Yp_vwyzPoEA-625" value="" style="rounded=0;whiteSpace=wrap;html=1;fontFamily=Arial;fillColor=#000000;strokeColor=none;fontStyle=2;rotation=90;" parent="TEB3pf0p3Yp_vwyzPoEA-622" vertex="1">
          <mxGeometry x="16" y="8" width="5.9055" height="1.9685" as="geometry" />
        </mxCell>
        <mxCell id="TEB3pf0p3Yp_vwyzPoEA-626" value="" style="rounded=0;whiteSpace=wrap;html=1;fontFamily=Arial;fillColor=#000000;strokeColor=none;fontStyle=2;rotation=90;" parent="TEB3pf0p3Yp_vwyzPoEA-622" vertex="1">
          <mxGeometry x="16" y="15" width="5.9055" height="1.9685" as="geometry" />
        </mxCell>
        <mxCell id="TEB3pf0p3Yp_vwyzPoEA-627" value="USB-A" style="text;html=1;strokeColor=none;fillColor=none;align=right;verticalAlign=middle;whiteSpace=wrap;rounded=0;dashed=1;fillStyle=auto;strokeWidth=2;fontFamily=Arial;fontSize=11;fontStyle=2" parent="TEB3pf0p3Yp_vwyzPoEA-77" vertex="1">
          <mxGeometry x="511.62500000000057" y="211.24500000000003" width="40" height="20" as="geometry" />
        </mxCell>
        <mxCell id="TEB3pf0p3Yp_vwyzPoEA-628" value="USB-B" style="text;html=1;strokeColor=none;fillColor=none;align=right;verticalAlign=middle;whiteSpace=wrap;rounded=0;dashed=1;fillStyle=auto;strokeWidth=2;fontFamily=Arial;fontSize=11;fontStyle=2" parent="TEB3pf0p3Yp_vwyzPoEA-77" vertex="1">
          <mxGeometry x="510.9950000000006" y="154.97500000000002" width="40" height="20" as="geometry" />
        </mxCell>
        <mxCell id="TEB3pf0p3Yp_vwyzPoEA-599" value="" style="group;rotation=90;" parent="TEB3pf0p3Yp_vwyzPoEA-77" vertex="1" connectable="0">
          <mxGeometry x="311.0000000000002" y="188.10999999999996" width="80" height="10" as="geometry" />
        </mxCell>
        <mxCell id="TEB3pf0p3Yp_vwyzPoEA-600" style="edgeStyle=orthogonalEdgeStyle;rounded=0;orthogonalLoop=1;jettySize=auto;html=1;strokeWidth=1;fontFamily=Arial;fontSize=14;endArrow=none;endFill=0;align=center;fontStyle=2;" parent="TEB3pf0p3Yp_vwyzPoEA-599" edge="1">
          <mxGeometry relative="1" as="geometry">
            <mxPoint x="40" y="45" as="targetPoint" />
            <mxPoint x="40" y="-35" as="sourcePoint" />
          </mxGeometry>
        </mxCell>
        <mxCell id="TEB3pf0p3Yp_vwyzPoEA-601" value="" style="group;fontFamily=Arial;fontStyle=2;rotation=90;" parent="TEB3pf0p3Yp_vwyzPoEA-599" vertex="1" connectable="0">
          <mxGeometry x="25" width="30" height="10" as="geometry" />
        </mxCell>
        <mxCell id="TEB3pf0p3Yp_vwyzPoEA-602" value="" style="rounded=0;whiteSpace=wrap;html=1;fontFamily=Arial;fontStyle=2;rotation=90;" parent="TEB3pf0p3Yp_vwyzPoEA-601" vertex="1">
          <mxGeometry width="30" height="10" as="geometry" />
        </mxCell>
        <mxCell id="TEB3pf0p3Yp_vwyzPoEA-603" value="" style="rounded=0;whiteSpace=wrap;html=1;fontFamily=Arial;fillColor=#000000;strokeColor=none;fontStyle=2;rotation=90;" parent="TEB3pf0p3Yp_vwyzPoEA-601" vertex="1">
          <mxGeometry x="16" y="-7" width="5.9055" height="1.9685" as="geometry" />
        </mxCell>
        <mxCell id="TEB3pf0p3Yp_vwyzPoEA-604" value="" style="rounded=0;whiteSpace=wrap;html=1;fontFamily=Arial;fillColor=#000000;strokeColor=none;fontStyle=2;rotation=90;" parent="TEB3pf0p3Yp_vwyzPoEA-601" vertex="1">
          <mxGeometry x="16" width="5.9055" height="1.9685" as="geometry" />
        </mxCell>
        <mxCell id="TEB3pf0p3Yp_vwyzPoEA-605" value="" style="rounded=0;whiteSpace=wrap;html=1;fontFamily=Arial;fillColor=#000000;strokeColor=none;fontStyle=2;rotation=90;" parent="TEB3pf0p3Yp_vwyzPoEA-601" vertex="1">
          <mxGeometry x="16" y="8" width="5.9055" height="1.9685" as="geometry" />
        </mxCell>
        <mxCell id="TEB3pf0p3Yp_vwyzPoEA-606" value="" style="rounded=0;whiteSpace=wrap;html=1;fontFamily=Arial;fillColor=#000000;strokeColor=none;fontStyle=2;rotation=90;" parent="TEB3pf0p3Yp_vwyzPoEA-601" vertex="1">
          <mxGeometry x="16" y="15" width="5.9055" height="1.9685" as="geometry" />
        </mxCell>
        <mxCell id="TEB3pf0p3Yp_vwyzPoEA-607" value="" style="group;fontFamily=Arial;fontStyle=2;rotation=90;" parent="TEB3pf0p3Yp_vwyzPoEA-599" vertex="1" connectable="0">
          <mxGeometry x="25" width="30" height="10" as="geometry" />
        </mxCell>
        <mxCell id="TEB3pf0p3Yp_vwyzPoEA-608" value="" style="rounded=0;whiteSpace=wrap;html=1;fontFamily=Arial;fillColor=#000000;strokeColor=none;fontStyle=2;rotation=90;" parent="TEB3pf0p3Yp_vwyzPoEA-607" vertex="1">
          <mxGeometry x="16" y="-7" width="5.9055" height="1.9685" as="geometry" />
        </mxCell>
        <mxCell id="TEB3pf0p3Yp_vwyzPoEA-609" value="" style="rounded=0;whiteSpace=wrap;html=1;fontFamily=Arial;fillColor=#000000;strokeColor=none;fontStyle=2;rotation=90;" parent="TEB3pf0p3Yp_vwyzPoEA-607" vertex="1">
          <mxGeometry x="16" width="5.9055" height="1.9685" as="geometry" />
        </mxCell>
        <mxCell id="TEB3pf0p3Yp_vwyzPoEA-610" value="" style="rounded=0;whiteSpace=wrap;html=1;fontFamily=Arial;fillColor=#000000;strokeColor=none;fontStyle=2;rotation=90;" parent="TEB3pf0p3Yp_vwyzPoEA-607" vertex="1">
          <mxGeometry x="16" y="8" width="5.9055" height="1.9685" as="geometry" />
        </mxCell>
        <mxCell id="TEB3pf0p3Yp_vwyzPoEA-611" value="" style="rounded=0;whiteSpace=wrap;html=1;fontFamily=Arial;fillColor=#000000;strokeColor=none;fontStyle=2;rotation=90;" parent="TEB3pf0p3Yp_vwyzPoEA-607" vertex="1">
          <mxGeometry x="16" y="15" width="5.9055" height="1.9685" as="geometry" />
        </mxCell>
        <mxCell id="TEB3pf0p3Yp_vwyzPoEA-612" value="USB-A" style="text;html=1;strokeColor=none;fillColor=none;align=right;verticalAlign=middle;whiteSpace=wrap;rounded=0;dashed=1;fillStyle=auto;strokeWidth=2;fontFamily=Arial;fontSize=11;fontStyle=2" parent="TEB3pf0p3Yp_vwyzPoEA-77" vertex="1">
          <mxGeometry x="351.62500000000057" y="211.27500000000003" width="40" height="20" as="geometry" />
        </mxCell>
        <mxCell id="TEB3pf0p3Yp_vwyzPoEA-613" value="USB-B" style="text;html=1;strokeColor=none;fillColor=none;align=right;verticalAlign=middle;whiteSpace=wrap;rounded=0;dashed=1;fillStyle=auto;strokeWidth=2;fontFamily=Arial;fontSize=11;fontStyle=2" parent="TEB3pf0p3Yp_vwyzPoEA-77" vertex="1">
          <mxGeometry x="350.9950000000006" y="155.00500000000002" width="40" height="20" as="geometry" />
        </mxCell>
        <mxCell id="TEB3pf0p3Yp_vwyzPoEA-526" value="" style="group;rotation=90;" parent="TEB3pf0p3Yp_vwyzPoEA-77" vertex="1" connectable="0">
          <mxGeometry x="150.37000000000023" y="188.10999999999996" width="80" height="10" as="geometry" />
        </mxCell>
        <mxCell id="TEB3pf0p3Yp_vwyzPoEA-527" style="edgeStyle=orthogonalEdgeStyle;rounded=0;orthogonalLoop=1;jettySize=auto;html=1;strokeWidth=1;fontFamily=Arial;fontSize=14;endArrow=none;endFill=0;align=center;fontStyle=2;" parent="TEB3pf0p3Yp_vwyzPoEA-526" edge="1">
          <mxGeometry relative="1" as="geometry">
            <mxPoint x="40" y="45" as="targetPoint" />
            <mxPoint x="40" y="-35" as="sourcePoint" />
          </mxGeometry>
        </mxCell>
        <mxCell id="TEB3pf0p3Yp_vwyzPoEA-528" value="" style="group;fontFamily=Arial;fontStyle=2;rotation=90;" parent="TEB3pf0p3Yp_vwyzPoEA-526" vertex="1" connectable="0">
          <mxGeometry x="25" width="30" height="10" as="geometry" />
        </mxCell>
        <mxCell id="TEB3pf0p3Yp_vwyzPoEA-529" value="" style="rounded=0;whiteSpace=wrap;html=1;fontFamily=Arial;fontStyle=2;rotation=90;" parent="TEB3pf0p3Yp_vwyzPoEA-528" vertex="1">
          <mxGeometry width="30" height="10" as="geometry" />
        </mxCell>
        <mxCell id="TEB3pf0p3Yp_vwyzPoEA-530" value="" style="rounded=0;whiteSpace=wrap;html=1;fontFamily=Arial;fillColor=#000000;strokeColor=none;fontStyle=2;rotation=90;" parent="TEB3pf0p3Yp_vwyzPoEA-528" vertex="1">
          <mxGeometry x="16" y="-7" width="5.9055" height="1.9685" as="geometry" />
        </mxCell>
        <mxCell id="TEB3pf0p3Yp_vwyzPoEA-531" value="" style="rounded=0;whiteSpace=wrap;html=1;fontFamily=Arial;fillColor=#000000;strokeColor=none;fontStyle=2;rotation=90;" parent="TEB3pf0p3Yp_vwyzPoEA-528" vertex="1">
          <mxGeometry x="16" width="5.9055" height="1.9685" as="geometry" />
        </mxCell>
        <mxCell id="TEB3pf0p3Yp_vwyzPoEA-532" value="" style="rounded=0;whiteSpace=wrap;html=1;fontFamily=Arial;fillColor=#000000;strokeColor=none;fontStyle=2;rotation=90;" parent="TEB3pf0p3Yp_vwyzPoEA-528" vertex="1">
          <mxGeometry x="16" y="8" width="5.9055" height="1.9685" as="geometry" />
        </mxCell>
        <mxCell id="TEB3pf0p3Yp_vwyzPoEA-533" value="" style="rounded=0;whiteSpace=wrap;html=1;fontFamily=Arial;fillColor=#000000;strokeColor=none;fontStyle=2;rotation=90;" parent="TEB3pf0p3Yp_vwyzPoEA-528" vertex="1">
          <mxGeometry x="16" y="15" width="5.9055" height="1.9685" as="geometry" />
        </mxCell>
        <mxCell id="TEB3pf0p3Yp_vwyzPoEA-534" value="" style="group;fontFamily=Arial;fontStyle=2;rotation=90;" parent="TEB3pf0p3Yp_vwyzPoEA-526" vertex="1" connectable="0">
          <mxGeometry x="25" width="30" height="10" as="geometry" />
        </mxCell>
        <mxCell id="TEB3pf0p3Yp_vwyzPoEA-535" value="" style="rounded=0;whiteSpace=wrap;html=1;fontFamily=Arial;fillColor=#000000;strokeColor=none;fontStyle=2;rotation=90;" parent="TEB3pf0p3Yp_vwyzPoEA-534" vertex="1">
          <mxGeometry x="16" y="-7" width="5.9055" height="1.9685" as="geometry" />
        </mxCell>
        <mxCell id="TEB3pf0p3Yp_vwyzPoEA-536" value="" style="rounded=0;whiteSpace=wrap;html=1;fontFamily=Arial;fillColor=#000000;strokeColor=none;fontStyle=2;rotation=90;" parent="TEB3pf0p3Yp_vwyzPoEA-534" vertex="1">
          <mxGeometry x="16" width="5.9055" height="1.9685" as="geometry" />
        </mxCell>
        <mxCell id="TEB3pf0p3Yp_vwyzPoEA-537" value="" style="rounded=0;whiteSpace=wrap;html=1;fontFamily=Arial;fillColor=#000000;strokeColor=none;fontStyle=2;rotation=90;" parent="TEB3pf0p3Yp_vwyzPoEA-534" vertex="1">
          <mxGeometry x="16" y="8" width="5.9055" height="1.9685" as="geometry" />
        </mxCell>
        <mxCell id="TEB3pf0p3Yp_vwyzPoEA-538" value="" style="rounded=0;whiteSpace=wrap;html=1;fontFamily=Arial;fillColor=#000000;strokeColor=none;fontStyle=2;rotation=90;" parent="TEB3pf0p3Yp_vwyzPoEA-534" vertex="1">
          <mxGeometry x="16" y="15" width="5.9055" height="1.9685" as="geometry" />
        </mxCell>
        <mxCell id="TEB3pf0p3Yp_vwyzPoEA-241" value="USB-A" style="text;html=1;strokeColor=none;fillColor=none;align=right;verticalAlign=middle;whiteSpace=wrap;rounded=0;dashed=1;fillStyle=auto;strokeWidth=2;fontFamily=Arial;fontSize=11;fontStyle=2" parent="TEB3pf0p3Yp_vwyzPoEA-77" vertex="1">
          <mxGeometry x="190.99500000000057" y="211.27500000000003" width="40" height="20" as="geometry" />
        </mxCell>
        <mxCell id="TEB3pf0p3Yp_vwyzPoEA-684" style="edgeStyle=orthogonalEdgeStyle;rounded=0;orthogonalLoop=1;jettySize=auto;html=1;endArrow=none;endFill=0;dashed=1;" parent="TEB3pf0p3Yp_vwyzPoEA-77" source="TEB3pf0p3Yp_vwyzPoEA-329" edge="1">
          <mxGeometry relative="1" as="geometry">
            <mxPoint x="240.5" y="482.5" as="targetPoint" />
            <Array as="points">
              <mxPoint x="191" y="465" />
              <mxPoint x="241" y="465" />
            </Array>
          </mxGeometry>
        </mxCell>
        <mxCell id="TEB3pf0p3Yp_vwyzPoEA-329" value="" style="shape=mxgraph.cisco.computers_and_peripherals.laptop;sketch=0;html=1;pointerEvents=1;dashed=0;fillColor=#000000;strokeColor=#E6E6E6;strokeWidth=2;verticalLabelPosition=bottom;verticalAlign=top;align=center;outlineConnect=0;fillStyle=auto;fontSize=23;aspect=fixed;fontFamily=Arial;container=0;fontStyle=2" parent="TEB3pf0p3Yp_vwyzPoEA-77" vertex="1">
          <mxGeometry x="142.04000000000022" y="555.6299999999999" width="78.74" height="54.22" as="geometry" />
        </mxCell>
        <mxCell id="TEB3pf0p3Yp_vwyzPoEA-359" value="" style="shape=mxgraph.cisco.modems_and_phones.modem;sketch=0;html=1;pointerEvents=1;dashed=0;fillColor=#000000;strokeColor=#E6E6E6;strokeWidth=2;verticalLabelPosition=bottom;verticalAlign=top;align=center;outlineConnect=0;fontSize=23;fillStyle=auto;aspect=fixed;fontFamily=Arial;fontStyle=2" parent="TEB3pf0p3Yp_vwyzPoEA-77" vertex="1">
          <mxGeometry x="1293.5200000000007" y="170.07" width="78.74" height="28.04" as="geometry" />
        </mxCell>
        <mxCell id="TEB3pf0p3Yp_vwyzPoEA-361" value="Internet" style="ellipse;shape=cloud;whiteSpace=wrap;html=1;" parent="TEB3pf0p3Yp_vwyzPoEA-77" vertex="1">
          <mxGeometry x="1442.26" y="144.09" width="120" height="80" as="geometry" />
        </mxCell>
        <mxCell id="TEB3pf0p3Yp_vwyzPoEA-363" value="" style="shape=mxgraph.cisco.routers.router;sketch=0;html=1;pointerEvents=1;dashed=0;fillColor=#000000;strokeColor=#E6E6E6;strokeWidth=2;verticalLabelPosition=bottom;verticalAlign=top;align=center;outlineConnect=0;fontSize=23;fillStyle=auto;aspect=fixed;fontFamily=Arial;fontStyle=2" parent="TEB3pf0p3Yp_vwyzPoEA-77" vertex="1">
          <mxGeometry x="990" y="156.91000000000003" width="78.74" height="54.36" as="geometry" />
        </mxCell>
        <mxCell id="TEB3pf0p3Yp_vwyzPoEA-385" style="edgeStyle=orthogonalEdgeStyle;rounded=0;orthogonalLoop=1;jettySize=auto;html=1;strokeWidth=3;endArrow=none;endFill=0;" parent="TEB3pf0p3Yp_vwyzPoEA-77" source="TEB3pf0p3Yp_vwyzPoEA-367" edge="1">
          <mxGeometry relative="1" as="geometry">
            <mxPoint x="281" y="363" as="targetPoint" />
          </mxGeometry>
        </mxCell>
        <mxCell id="TEB3pf0p3Yp_vwyzPoEA-367" value="" style="shape=mxgraph.cisco.switches.workgroup_switch;sketch=0;html=1;pointerEvents=1;dashed=0;fillColor=#000000;strokeColor=#E6E6E6;strokeWidth=2;verticalLabelPosition=bottom;verticalAlign=top;align=center;outlineConnect=0;fontSize=23;fillStyle=auto;aspect=fixed;fontFamily=Arial;fontStyle=2" parent="TEB3pf0p3Yp_vwyzPoEA-77" vertex="1">
          <mxGeometry x="991" y="340.56349999999986" width="78.74" height="44.44" as="geometry" />
        </mxCell>
        <mxCell id="TEB3pf0p3Yp_vwyzPoEA-387" style="edgeStyle=orthogonalEdgeStyle;rounded=0;orthogonalLoop=1;jettySize=auto;html=1;strokeWidth=3;endArrow=none;endFill=0;" parent="TEB3pf0p3Yp_vwyzPoEA-77" source="TEB3pf0p3Yp_vwyzPoEA-369" edge="1">
          <mxGeometry relative="1" as="geometry">
            <mxPoint x="281" y="680" as="targetPoint" />
          </mxGeometry>
        </mxCell>
        <mxCell id="TEB3pf0p3Yp_vwyzPoEA-369" value="" style="shape=mxgraph.cisco.switches.workgroup_switch;sketch=0;html=1;pointerEvents=1;dashed=0;fillColor=#000000;strokeColor=#E6E6E6;strokeWidth=2;verticalLabelPosition=bottom;verticalAlign=top;align=center;outlineConnect=0;fontSize=23;fillStyle=auto;aspect=fixed;fontFamily=Arial;fontStyle=2" parent="TEB3pf0p3Yp_vwyzPoEA-77" vertex="1">
          <mxGeometry x="991" y="657.5634999999999" width="78.74" height="44.44" as="geometry" />
        </mxCell>
        <mxCell id="TEB3pf0p3Yp_vwyzPoEA-370" value="" style="shape=mxgraph.cisco.computers_and_peripherals.printer;sketch=0;html=1;pointerEvents=1;dashed=0;fillColor=#000000;strokeColor=#E6E6E6;strokeWidth=2;verticalLabelPosition=bottom;verticalAlign=top;align=center;outlineConnect=0;fontSize=23;fillStyle=auto;aspect=fixed;fontFamily=Arial;fontStyle=2" parent="TEB3pf0p3Yp_vwyzPoEA-77" vertex="1">
          <mxGeometry x="161.00000000000023" y="884.6800000000002" width="78.74" height="29.88" as="geometry" />
        </mxCell>
        <mxCell id="TEB3pf0p3Yp_vwyzPoEA-736" style="edgeStyle=orthogonalEdgeStyle;rounded=0;orthogonalLoop=1;jettySize=auto;html=1;endArrow=none;endFill=0;" parent="TEB3pf0p3Yp_vwyzPoEA-77" source="TEB3pf0p3Yp_vwyzPoEA-372" edge="1">
          <mxGeometry relative="1" as="geometry">
            <mxPoint x="321" y="365" as="targetPoint" />
            <Array as="points">
              <mxPoint x="250" y="435" />
              <mxPoint x="321" y="435" />
            </Array>
          </mxGeometry>
        </mxCell>
        <mxCell id="TEB3pf0p3Yp_vwyzPoEA-372" value="" style="shape=mxgraph.cisco.misc.access_point;html=1;pointerEvents=1;dashed=0;fillColor=#000000;strokeColor=#E6E6E6;strokeWidth=2;verticalLabelPosition=bottom;verticalAlign=top;align=center;outlineConnect=0;fillStyle=auto;fontSize=23;aspect=fixed;fontFamily=Arial;fontStyle=2" parent="TEB3pf0p3Yp_vwyzPoEA-77" vertex="1">
          <mxGeometry x="211" y="447.51000000000005" width="78.74" height="36.26" as="geometry" />
        </mxCell>
        <mxCell id="TEB3pf0p3Yp_vwyzPoEA-694" style="edgeStyle=orthogonalEdgeStyle;rounded=0;orthogonalLoop=1;jettySize=auto;html=1;endArrow=none;endFill=0;" parent="TEB3pf0p3Yp_vwyzPoEA-77" source="TEB3pf0p3Yp_vwyzPoEA-373" edge="1">
          <mxGeometry relative="1" as="geometry">
            <mxPoint x="280.8536585365854" y="680.0731707317074" as="targetPoint" />
            <Array as="points">
              <mxPoint x="200" y="680" />
            </Array>
          </mxGeometry>
        </mxCell>
        <mxCell id="TEB3pf0p3Yp_vwyzPoEA-373" value="" style="shape=mxgraph.cisco.computers_and_peripherals.pc;sketch=0;html=1;pointerEvents=1;dashed=0;fillColor=#000000;strokeColor=#E6E6E6;strokeWidth=2;verticalLabelPosition=bottom;verticalAlign=top;align=center;outlineConnect=0;fontSize=23;fillStyle=auto;aspect=fixed;fontFamily=Arial;fontStyle=2" parent="TEB3pf0p3Yp_vwyzPoEA-77" vertex="1">
          <mxGeometry x="161" y="733.2" width="78.74" height="71.8" as="geometry" />
        </mxCell>
        <mxCell id="TEB3pf0p3Yp_vwyzPoEA-692" style="edgeStyle=orthogonalEdgeStyle;rounded=0;orthogonalLoop=1;jettySize=auto;html=1;endArrow=none;endFill=0;" parent="TEB3pf0p3Yp_vwyzPoEA-77" source="TEB3pf0p3Yp_vwyzPoEA-375" edge="1">
          <mxGeometry relative="1" as="geometry">
            <mxPoint x="770" y="362" as="targetPoint" />
            <mxPoint x="780.3700000000002" y="463.29999999999995" as="sourcePoint" />
            <Array as="points">
              <mxPoint x="770" y="480" />
            </Array>
          </mxGeometry>
        </mxCell>
        <mxCell id="TEB3pf0p3Yp_vwyzPoEA-375" value="" style="fontColor=#0066CC;verticalAlign=top;verticalLabelPosition=bottom;labelPosition=center;align=center;html=1;outlineConnect=0;fillColor=#000000;strokeColor=none;gradientColor=none;gradientDirection=north;strokeWidth=2;shape=mxgraph.networks.security_camera;" parent="TEB3pf0p3Yp_vwyzPoEA-77" vertex="1">
          <mxGeometry x="780.3700000000002" y="438.77000000000004" width="60" height="45" as="geometry" />
        </mxCell>
        <mxCell id="TEB3pf0p3Yp_vwyzPoEA-691" style="edgeStyle=orthogonalEdgeStyle;rounded=0;orthogonalLoop=1;jettySize=auto;html=1;endArrow=none;endFill=0;" parent="TEB3pf0p3Yp_vwyzPoEA-77" edge="1">
          <mxGeometry relative="1" as="geometry">
            <mxPoint x="641" y="365" as="targetPoint" />
            <mxPoint x="650" y="480" as="sourcePoint" />
            <Array as="points">
              <mxPoint x="640" y="365" />
            </Array>
          </mxGeometry>
        </mxCell>
        <mxCell id="TEB3pf0p3Yp_vwyzPoEA-376" value="" style="fontColor=#0066CC;verticalAlign=top;verticalLabelPosition=bottom;labelPosition=center;align=center;html=1;outlineConnect=0;fillColor=#000000;strokeColor=none;gradientColor=none;gradientDirection=north;strokeWidth=2;shape=mxgraph.networks.security_camera;" parent="TEB3pf0p3Yp_vwyzPoEA-77" vertex="1">
          <mxGeometry x="650.0000000000002" y="438.77000000000004" width="60" height="45" as="geometry" />
        </mxCell>
        <mxCell id="TEB3pf0p3Yp_vwyzPoEA-693" style="edgeStyle=orthogonalEdgeStyle;rounded=0;orthogonalLoop=1;jettySize=auto;html=1;endArrow=none;endFill=0;" parent="TEB3pf0p3Yp_vwyzPoEA-77" source="TEB3pf0p3Yp_vwyzPoEA-377" edge="1">
          <mxGeometry relative="1" as="geometry">
            <mxPoint x="921.0000000000002" y="365" as="targetPoint" />
          </mxGeometry>
        </mxCell>
        <mxCell id="TEB3pf0p3Yp_vwyzPoEA-377" value="" style="sketch=0;pointerEvents=1;shadow=0;dashed=0;html=1;strokeColor=none;fillColor=#000000;labelPosition=center;verticalLabelPosition=bottom;verticalAlign=top;align=center;outlineConnect=0;shape=mxgraph.veeam2.storage;" parent="TEB3pf0p3Yp_vwyzPoEA-77" vertex="1">
          <mxGeometry x="881.0000000000002" y="455.14000000000004" width="80" height="21" as="geometry" />
        </mxCell>
        <mxCell id="TEB3pf0p3Yp_vwyzPoEA-378" style="edgeStyle=orthogonalEdgeStyle;rounded=0;orthogonalLoop=1;jettySize=auto;html=1;endArrow=none;endFill=0;entryX=1;entryY=0.5;entryDx=0;entryDy=0;entryPerimeter=0;" parent="TEB3pf0p3Yp_vwyzPoEA-77" source="TEB3pf0p3Yp_vwyzPoEA-359" target="TEB3pf0p3Yp_vwyzPoEA-363" edge="1">
          <mxGeometry relative="1" as="geometry">
            <mxPoint x="1231" y="184" as="targetPoint" />
            <Array as="points" />
          </mxGeometry>
        </mxCell>
        <mxCell id="TEB3pf0p3Yp_vwyzPoEA-680" style="edgeStyle=orthogonalEdgeStyle;rounded=0;orthogonalLoop=1;jettySize=auto;html=1;endArrow=none;endFill=0;" parent="TEB3pf0p3Yp_vwyzPoEA-77" source="TEB3pf0p3Yp_vwyzPoEA-382" edge="1">
          <mxGeometry relative="1" as="geometry">
            <mxPoint x="350.3700000000001" y="365" as="targetPoint" />
          </mxGeometry>
        </mxCell>
        <mxCell id="TEB3pf0p3Yp_vwyzPoEA-382" value="" style="shape=mxgraph.cisco.computers_and_peripherals.pc;sketch=0;html=1;pointerEvents=1;dashed=0;fillColor=#000000;strokeColor=#E6E6E6;strokeWidth=2;verticalLabelPosition=bottom;verticalAlign=top;align=center;outlineConnect=0;fontSize=23;fillStyle=auto;aspect=fixed;fontFamily=Arial;fontStyle=2" parent="TEB3pf0p3Yp_vwyzPoEA-77" vertex="1">
          <mxGeometry x="311" y="235.00000000000003" width="78.74" height="71.8" as="geometry" />
        </mxCell>
        <mxCell id="TEB3pf0p3Yp_vwyzPoEA-679" style="edgeStyle=orthogonalEdgeStyle;rounded=0;orthogonalLoop=1;jettySize=auto;html=1;endArrow=none;endFill=0;" parent="TEB3pf0p3Yp_vwyzPoEA-77" edge="1">
          <mxGeometry relative="1" as="geometry">
            <mxPoint x="281" y="363" as="targetPoint" />
            <mxPoint x="190.3512195121951" y="307.79999999999995" as="sourcePoint" />
            <Array as="points">
              <mxPoint x="190" y="363" />
            </Array>
          </mxGeometry>
        </mxCell>
        <mxCell id="TEB3pf0p3Yp_vwyzPoEA-383" value="" style="shape=mxgraph.cisco.computers_and_peripherals.pc;sketch=0;html=1;pointerEvents=1;dashed=0;fillColor=#000000;strokeColor=#E6E6E6;strokeWidth=2;verticalLabelPosition=bottom;verticalAlign=top;align=center;outlineConnect=0;fontSize=23;fillStyle=auto;aspect=fixed;fontFamily=Arial;fontStyle=2" parent="TEB3pf0p3Yp_vwyzPoEA-77" vertex="1">
          <mxGeometry x="151" y="235" width="78.74" height="71.8" as="geometry" />
        </mxCell>
        <mxCell id="TEB3pf0p3Yp_vwyzPoEA-386" style="edgeStyle=orthogonalEdgeStyle;rounded=0;orthogonalLoop=1;jettySize=auto;html=1;entryX=0.5;entryY=0.98;entryDx=0;entryDy=0;entryPerimeter=0;endArrow=none;endFill=0;" parent="TEB3pf0p3Yp_vwyzPoEA-77" source="TEB3pf0p3Yp_vwyzPoEA-369" target="TEB3pf0p3Yp_vwyzPoEA-367" edge="1">
          <mxGeometry relative="1" as="geometry" />
        </mxCell>
        <mxCell id="TEB3pf0p3Yp_vwyzPoEA-681" style="edgeStyle=orthogonalEdgeStyle;rounded=0;orthogonalLoop=1;jettySize=auto;html=1;endArrow=none;endFill=0;" parent="TEB3pf0p3Yp_vwyzPoEA-77" source="TEB3pf0p3Yp_vwyzPoEA-389" edge="1">
          <mxGeometry relative="1" as="geometry">
            <mxPoint x="510.3700000000001" y="365" as="targetPoint" />
          </mxGeometry>
        </mxCell>
        <mxCell id="TEB3pf0p3Yp_vwyzPoEA-389" value="" style="shape=mxgraph.cisco.computers_and_peripherals.pc;sketch=0;html=1;pointerEvents=1;dashed=0;fillColor=#000000;strokeColor=#E6E6E6;strokeWidth=2;verticalLabelPosition=bottom;verticalAlign=top;align=center;outlineConnect=0;fontSize=23;fillStyle=auto;aspect=fixed;fontFamily=Arial;fontStyle=2" parent="TEB3pf0p3Yp_vwyzPoEA-77" vertex="1">
          <mxGeometry x="471" y="235.00000000000003" width="78.74" height="71.8" as="geometry" />
        </mxCell>
        <mxCell id="TEB3pf0p3Yp_vwyzPoEA-391" value="" style="shape=mxgraph.cisco.computers_and_peripherals.printer;sketch=0;html=1;pointerEvents=1;dashed=0;fillColor=#000000;strokeColor=#E6E6E6;strokeWidth=2;verticalLabelPosition=bottom;verticalAlign=top;align=center;outlineConnect=0;fontSize=23;fillStyle=auto;aspect=fixed;fontFamily=Arial;fontStyle=2" parent="TEB3pf0p3Yp_vwyzPoEA-77" vertex="1">
          <mxGeometry x="161.00000000000023" y="125.12000000000023" width="78.74" height="29.88" as="geometry" />
        </mxCell>
        <mxCell id="TEB3pf0p3Yp_vwyzPoEA-392" value="" style="shape=mxgraph.cisco.computers_and_peripherals.printer;sketch=0;html=1;pointerEvents=1;dashed=0;fillColor=#000000;strokeColor=#E6E6E6;strokeWidth=2;verticalLabelPosition=bottom;verticalAlign=top;align=center;outlineConnect=0;fontSize=23;fillStyle=auto;aspect=fixed;fontFamily=Arial;fontStyle=2" parent="TEB3pf0p3Yp_vwyzPoEA-77" vertex="1">
          <mxGeometry x="321.0000000000002" y="125.12000000000023" width="78.74" height="29.88" as="geometry" />
        </mxCell>
        <mxCell id="TEB3pf0p3Yp_vwyzPoEA-393" value="" style="shape=mxgraph.cisco.computers_and_peripherals.printer;sketch=0;html=1;pointerEvents=1;dashed=0;fillColor=#000000;strokeColor=#E6E6E6;strokeWidth=2;verticalLabelPosition=bottom;verticalAlign=top;align=center;outlineConnect=0;fontSize=23;fillStyle=auto;aspect=fixed;fontFamily=Arial;fontStyle=2" parent="TEB3pf0p3Yp_vwyzPoEA-77" vertex="1">
          <mxGeometry x="479.74000000000024" y="125.12000000000023" width="78.74" height="29.88" as="geometry" />
        </mxCell>
        <mxCell id="TEB3pf0p3Yp_vwyzPoEA-682" style="edgeStyle=orthogonalEdgeStyle;rounded=0;orthogonalLoop=1;jettySize=auto;html=1;endArrow=none;endFill=0;" parent="TEB3pf0p3Yp_vwyzPoEA-77" source="TEB3pf0p3Yp_vwyzPoEA-395" edge="1">
          <mxGeometry relative="1" as="geometry">
            <mxPoint x="661.6300000000001" y="365" as="targetPoint" />
          </mxGeometry>
        </mxCell>
        <mxCell id="TEB3pf0p3Yp_vwyzPoEA-395" value="" style="shape=mxgraph.cisco.computers_and_peripherals.pc;sketch=0;html=1;pointerEvents=1;dashed=0;fillColor=#000000;strokeColor=#E6E6E6;strokeWidth=2;verticalLabelPosition=bottom;verticalAlign=top;align=center;outlineConnect=0;fontSize=23;fillStyle=auto;aspect=fixed;fontFamily=Arial;fontStyle=2" parent="TEB3pf0p3Yp_vwyzPoEA-77" vertex="1">
          <mxGeometry x="622.26" y="235.00000000000003" width="78.74" height="71.8" as="geometry" />
        </mxCell>
        <mxCell id="TEB3pf0p3Yp_vwyzPoEA-683" style="edgeStyle=orthogonalEdgeStyle;rounded=0;orthogonalLoop=1;jettySize=auto;html=1;endArrow=none;endFill=0;" parent="TEB3pf0p3Yp_vwyzPoEA-77" source="TEB3pf0p3Yp_vwyzPoEA-396" edge="1">
          <mxGeometry relative="1" as="geometry">
            <mxPoint x="810.3699999999999" y="365" as="targetPoint" />
          </mxGeometry>
        </mxCell>
        <mxCell id="TEB3pf0p3Yp_vwyzPoEA-396" value="" style="shape=mxgraph.cisco.computers_and_peripherals.pc;sketch=0;html=1;pointerEvents=1;dashed=0;fillColor=#000000;strokeColor=#E6E6E6;strokeWidth=2;verticalLabelPosition=bottom;verticalAlign=top;align=center;outlineConnect=0;fontSize=23;fillStyle=auto;aspect=fixed;fontFamily=Arial;fontStyle=2" parent="TEB3pf0p3Yp_vwyzPoEA-77" vertex="1">
          <mxGeometry x="771" y="235.00000000000003" width="78.74" height="71.8" as="geometry" />
        </mxCell>
        <mxCell id="TEB3pf0p3Yp_vwyzPoEA-734" style="edgeStyle=orthogonalEdgeStyle;rounded=0;orthogonalLoop=1;jettySize=auto;html=1;endArrow=none;endFill=0;" parent="TEB3pf0p3Yp_vwyzPoEA-77" source="TEB3pf0p3Yp_vwyzPoEA-397" edge="1">
          <mxGeometry relative="1" as="geometry">
            <mxPoint x="699.7619047619048" y="678.5714285714284" as="targetPoint" />
          </mxGeometry>
        </mxCell>
        <mxCell id="TEB3pf0p3Yp_vwyzPoEA-397" value="" style="shape=mxgraph.cisco.computers_and_peripherals.pc;sketch=0;html=1;pointerEvents=1;dashed=0;fillColor=#000000;strokeColor=#E6E6E6;strokeWidth=2;verticalLabelPosition=bottom;verticalAlign=top;align=center;outlineConnect=0;fontSize=23;fillStyle=auto;aspect=fixed;fontFamily=Arial;fontStyle=2" parent="TEB3pf0p3Yp_vwyzPoEA-77" vertex="1">
          <mxGeometry x="661" y="733.2" width="78.74" height="71.8" as="geometry" />
        </mxCell>
        <mxCell id="TEB3pf0p3Yp_vwyzPoEA-735" style="edgeStyle=orthogonalEdgeStyle;rounded=0;orthogonalLoop=1;jettySize=auto;html=1;endArrow=none;endFill=0;" parent="TEB3pf0p3Yp_vwyzPoEA-77" source="TEB3pf0p3Yp_vwyzPoEA-398" edge="1">
          <mxGeometry relative="1" as="geometry">
            <mxPoint x="859.2857142857142" y="680" as="targetPoint" />
          </mxGeometry>
        </mxCell>
        <mxCell id="TEB3pf0p3Yp_vwyzPoEA-398" value="" style="shape=mxgraph.cisco.computers_and_peripherals.pc;sketch=0;html=1;pointerEvents=1;dashed=0;fillColor=#000000;strokeColor=#E6E6E6;strokeWidth=2;verticalLabelPosition=bottom;verticalAlign=top;align=center;outlineConnect=0;fontSize=23;fillStyle=auto;aspect=fixed;fontFamily=Arial;fontStyle=2" parent="TEB3pf0p3Yp_vwyzPoEA-77" vertex="1">
          <mxGeometry x="820.37" y="733.2" width="78.74" height="71.8" as="geometry" />
        </mxCell>
        <mxCell id="TEB3pf0p3Yp_vwyzPoEA-399" style="edgeStyle=orthogonalEdgeStyle;rounded=0;orthogonalLoop=1;jettySize=auto;html=1;strokeWidth=1;fontFamily=Arial;fontSize=14;endArrow=none;endFill=0;dashed=1;align=center;fontStyle=2" parent="TEB3pf0p3Yp_vwyzPoEA-77" edge="1">
          <mxGeometry relative="1" as="geometry">
            <mxPoint x="281.00000000000045" y="1043.75" as="targetPoint" />
            <mxPoint x="201.00000000000045" y="1043.75" as="sourcePoint" />
          </mxGeometry>
        </mxCell>
        <mxCell id="TEB3pf0p3Yp_vwyzPoEA-400" value="" style="endArrow=none;html=1;rounded=0;strokeWidth=1;fontFamily=Arial;fontSize=14;exitX=0;exitY=1;exitDx=0;exitDy=0;align=center;fontStyle=2" parent="TEB3pf0p3Yp_vwyzPoEA-77" edge="1">
          <mxGeometry width="50" height="50" relative="1" as="geometry">
            <mxPoint x="201.00000000000045" y="1096.76" as="sourcePoint" />
            <mxPoint x="281.00000000000045" y="1096.76" as="targetPoint" />
          </mxGeometry>
        </mxCell>
        <mxCell id="TEB3pf0p3Yp_vwyzPoEA-401" style="edgeStyle=orthogonalEdgeStyle;rounded=0;orthogonalLoop=1;jettySize=auto;html=1;strokeWidth=1;fontFamily=Arial;fontSize=14;endArrow=none;endFill=0;align=center;fontStyle=2;" parent="TEB3pf0p3Yp_vwyzPoEA-77" edge="1">
          <mxGeometry relative="1" as="geometry">
            <mxPoint x="525.3400000000001" y="1097.08" as="targetPoint" />
            <mxPoint x="445.34000000000015" y="1097.08" as="sourcePoint" />
          </mxGeometry>
        </mxCell>
        <mxCell id="TEB3pf0p3Yp_vwyzPoEA-403" value="" style="shape=mxgraph.cisco.routers.router;sketch=0;html=1;pointerEvents=1;dashed=0;fillColor=#000000;strokeColor=#E6E6E6;strokeWidth=2;verticalLabelPosition=bottom;verticalAlign=top;align=center;outlineConnect=0;fontSize=23;fillStyle=auto;aspect=fixed;fontFamily=Arial;fontStyle=2" parent="TEB3pf0p3Yp_vwyzPoEA-77" vertex="1">
          <mxGeometry x="1174.3900000000006" y="647.6400000000003" width="78.74" height="54.36" as="geometry" />
        </mxCell>
        <mxCell id="TEB3pf0p3Yp_vwyzPoEA-404" value="" style="shape=mxgraph.cisco.switches.workgroup_switch;sketch=0;html=1;pointerEvents=1;dashed=0;fillColor=#000000;strokeColor=#E6E6E6;strokeWidth=2;verticalLabelPosition=bottom;verticalAlign=top;align=center;outlineConnect=0;fontSize=23;fillStyle=auto;aspect=fixed;fontFamily=Arial;fontStyle=2" parent="TEB3pf0p3Yp_vwyzPoEA-77" vertex="1">
          <mxGeometry x="1482.2600000000004" y="402.91999999999985" width="78.74" height="44.44" as="geometry" />
        </mxCell>
        <mxCell id="TEB3pf0p3Yp_vwyzPoEA-407" value="" style="shape=mxgraph.cisco.misc.access_point;html=1;pointerEvents=1;dashed=0;fillColor=#000000;strokeColor=#E6E6E6;strokeWidth=2;verticalLabelPosition=bottom;verticalAlign=top;align=center;outlineConnect=0;fillStyle=auto;fontSize=23;aspect=fixed;fontFamily=Arial;container=0;fontStyle=2" parent="TEB3pf0p3Yp_vwyzPoEA-77" vertex="1">
          <mxGeometry x="1328.2600000000002" y="407.0099999999999" width="78.74" height="36.26" as="geometry" />
        </mxCell>
        <mxCell id="TEB3pf0p3Yp_vwyzPoEA-408" value="" style="shape=mxgraph.cisco.modems_and_phones.modem;sketch=0;html=1;pointerEvents=1;dashed=0;fillColor=#000000;strokeColor=#E6E6E6;strokeWidth=2;verticalLabelPosition=bottom;verticalAlign=top;align=center;outlineConnect=0;fontSize=23;fillStyle=auto;aspect=fixed;fontFamily=Arial;fontStyle=2" parent="TEB3pf0p3Yp_vwyzPoEA-77" vertex="1">
          <mxGeometry x="1171.2600000000002" y="411.1199999999999" width="78.74" height="28.04" as="geometry" />
        </mxCell>
        <mxCell id="TEB3pf0p3Yp_vwyzPoEA-409" style="edgeStyle=orthogonalEdgeStyle;rounded=0;orthogonalLoop=1;jettySize=auto;html=1;strokeWidth=3;fontFamily=Arial;fontSize=14;endArrow=none;endFill=0;align=center;fontStyle=2" parent="TEB3pf0p3Yp_vwyzPoEA-77" edge="1">
          <mxGeometry relative="1" as="geometry">
            <mxPoint x="631.0000000000003" y="1043.8999999999999" as="targetPoint" />
            <mxPoint x="711.0000000000003" y="1043.8999999999999" as="sourcePoint" />
          </mxGeometry>
        </mxCell>
        <mxCell id="TEB3pf0p3Yp_vwyzPoEA-410" value="Коммутатор" style="text;html=1;strokeColor=none;fillColor=none;align=center;verticalAlign=middle;whiteSpace=wrap;rounded=0;dashed=1;fillStyle=auto;strokeWidth=2;fontFamily=Arial;fontSize=14;fontStyle=2;container=0;" parent="TEB3pf0p3Yp_vwyzPoEA-77" vertex="1">
          <mxGeometry x="1482.2600000000004" y="355.94999999999993" width="78.74" height="29.53" as="geometry" />
        </mxCell>
        <mxCell id="TEB3pf0p3Yp_vwyzPoEA-411" value="Модем" style="text;html=1;strokeColor=none;fillColor=none;align=center;verticalAlign=middle;whiteSpace=wrap;rounded=0;dashed=1;fillStyle=auto;strokeWidth=2;fontFamily=Arial;fontSize=14;fontStyle=2;container=0;" parent="TEB3pf0p3Yp_vwyzPoEA-77" vertex="1">
          <mxGeometry x="1171" y="355.94999999999993" width="78.74" height="29.53" as="geometry" />
        </mxCell>
        <mxCell id="TEB3pf0p3Yp_vwyzPoEA-413" value="Беспроводная точка доступа Wi-Fi" style="text;html=1;strokeColor=none;fillColor=none;align=center;verticalAlign=middle;whiteSpace=wrap;rounded=0;dashed=1;fillStyle=auto;strokeWidth=2;fontFamily=Arial;fontSize=14;fontStyle=2;container=0;" parent="TEB3pf0p3Yp_vwyzPoEA-77" vertex="1">
          <mxGeometry x="1289.1100000000006" y="355.94999999999993" width="157.48" height="29.53" as="geometry" />
        </mxCell>
        <mxCell id="TEB3pf0p3Yp_vwyzPoEA-414" value="Беспроводное устройство" style="text;html=1;strokeColor=none;fillColor=none;align=center;verticalAlign=middle;whiteSpace=wrap;rounded=0;dashed=1;fillStyle=auto;strokeWidth=2;fontFamily=Arial;fontSize=14;fontStyle=2;container=0;" parent="TEB3pf0p3Yp_vwyzPoEA-77" vertex="1">
          <mxGeometry x="1328.4800000000005" y="464.2199999999999" width="78.74" height="29.53" as="geometry" />
        </mxCell>
        <mxCell id="TEB3pf0p3Yp_vwyzPoEA-415" value="Рабочая станция" style="text;html=1;strokeColor=none;fillColor=none;align=center;verticalAlign=middle;whiteSpace=wrap;rounded=0;dashed=1;fillStyle=auto;strokeWidth=2;fontFamily=Arial;fontSize=14;fontStyle=2;container=0;" parent="TEB3pf0p3Yp_vwyzPoEA-77" vertex="1">
          <mxGeometry x="1466.2800000000007" y="464.2199999999999" width="118.11" height="29.53" as="geometry" />
        </mxCell>
        <mxCell id="TEB3pf0p3Yp_vwyzPoEA-416" value="Принтер" style="text;html=1;strokeColor=none;fillColor=none;align=center;verticalAlign=middle;whiteSpace=wrap;rounded=0;dashed=1;fillStyle=auto;strokeWidth=2;fontFamily=Arial;fontSize=14;fontStyle=2;container=0;" parent="TEB3pf0p3Yp_vwyzPoEA-77" vertex="1">
          <mxGeometry x="1171" y="464.2199999999999" width="78.74" height="29.53" as="geometry" />
        </mxCell>
        <mxCell id="TEB3pf0p3Yp_vwyzPoEA-417" value="Кабель UTP категории 6" style="text;html=1;strokeColor=none;fillColor=none;align=center;verticalAlign=bottom;whiteSpace=wrap;rounded=0;dashed=1;fillStyle=auto;strokeWidth=2;fontFamily=Arial;fontSize=14;fontStyle=2;container=0;" parent="TEB3pf0p3Yp_vwyzPoEA-77" vertex="1">
          <mxGeometry x="121.00000000000045" y="1056.76" width="240" height="30" as="geometry" />
        </mxCell>
        <mxCell id="TEB3pf0p3Yp_vwyzPoEA-418" value="Шина" style="text;html=1;strokeColor=none;fillColor=none;align=center;verticalAlign=bottom;whiteSpace=wrap;rounded=0;dashed=1;fillStyle=auto;strokeWidth=2;fontFamily=Arial;fontSize=14;fontStyle=2;container=0;" parent="TEB3pf0p3Yp_vwyzPoEA-77" vertex="1">
          <mxGeometry x="591.0000000000003" y="1003.75" width="160" height="30" as="geometry" />
        </mxCell>
        <mxCell id="TEB3pf0p3Yp_vwyzPoEA-419" value="Кабель коаксиальный" style="text;html=1;strokeColor=none;fillColor=none;align=center;verticalAlign=bottom;whiteSpace=wrap;rounded=0;dashed=1;fillStyle=auto;strokeWidth=2;fontFamily=Arial;fontSize=14;fontStyle=2;container=0;" parent="TEB3pf0p3Yp_vwyzPoEA-77" vertex="1">
          <mxGeometry x="405.34000000000015" y="1057.08" width="160" height="30" as="geometry" />
        </mxCell>
        <mxCell id="TEB3pf0p3Yp_vwyzPoEA-420" value="Кабель Universal Serial Bus" style="text;html=1;strokeColor=none;fillColor=none;align=center;verticalAlign=bottom;whiteSpace=wrap;rounded=0;dashed=1;fillStyle=auto;strokeWidth=2;fontFamily=Arial;fontSize=14;fontStyle=2;container=0;" parent="TEB3pf0p3Yp_vwyzPoEA-77" vertex="1">
          <mxGeometry x="367.22000000000025" y="1003.75" width="240" height="30" as="geometry" />
        </mxCell>
        <mxCell id="TEB3pf0p3Yp_vwyzPoEA-421" value="Беспроводное соединение Wi-Fi" style="text;html=1;strokeColor=none;fillColor=none;align=center;verticalAlign=bottom;whiteSpace=wrap;rounded=0;dashed=1;fillStyle=auto;strokeWidth=2;fontFamily=Arial;fontSize=14;fontStyle=2;container=0;" parent="TEB3pf0p3Yp_vwyzPoEA-77" vertex="1">
          <mxGeometry x="121.00000000000045" y="1003.75" width="240" height="30" as="geometry" />
        </mxCell>
        <mxCell id="TEB3pf0p3Yp_vwyzPoEA-430" value="" style="group;fontFamily=Arial;fontStyle=2" parent="TEB3pf0p3Yp_vwyzPoEA-77" vertex="1" connectable="0">
          <mxGeometry x="475.34000000000015" y="1087.08" width="20" height="20" as="geometry" />
        </mxCell>
        <mxCell id="TEB3pf0p3Yp_vwyzPoEA-431" value="" style="rounded=0;whiteSpace=wrap;html=1;fontFamily=Arial;fontStyle=2" parent="TEB3pf0p3Yp_vwyzPoEA-430" vertex="1">
          <mxGeometry width="20" height="20" as="geometry" />
        </mxCell>
        <mxCell id="TEB3pf0p3Yp_vwyzPoEA-432" value="" style="rounded=0;whiteSpace=wrap;html=1;fontFamily=Arial;fillColor=#000000;strokeColor=none;fontStyle=2" parent="TEB3pf0p3Yp_vwyzPoEA-430" vertex="1">
          <mxGeometry x="4.40729999999985" width="1.9685" height="10" as="geometry" />
        </mxCell>
        <mxCell id="TEB3pf0p3Yp_vwyzPoEA-433" value="" style="rounded=0;whiteSpace=wrap;html=1;fontFamily=Arial;fillColor=#000000;strokeColor=none;fontStyle=2" parent="TEB3pf0p3Yp_vwyzPoEA-430" vertex="1">
          <mxGeometry x="13.462399999999889" width="1.9685" height="10" as="geometry" />
        </mxCell>
        <mxCell id="TEB3pf0p3Yp_vwyzPoEA-434" value="" style="rounded=0;whiteSpace=wrap;html=1;fontFamily=Arial;fillColor=#000000;strokeColor=none;fontStyle=2" parent="TEB3pf0p3Yp_vwyzPoEA-430" vertex="1">
          <mxGeometry x="10.312799999999925" width="1.9685" height="10" as="geometry" />
        </mxCell>
        <mxCell id="TEB3pf0p3Yp_vwyzPoEA-435" value="" style="rounded=0;whiteSpace=wrap;html=1;fontFamily=Arial;fillColor=#000000;strokeColor=none;fontStyle=2" parent="TEB3pf0p3Yp_vwyzPoEA-430" vertex="1">
          <mxGeometry x="7.556899999999814" width="1.9685" height="10" as="geometry" />
        </mxCell>
        <mxCell id="TEB3pf0p3Yp_vwyzPoEA-436" style="edgeStyle=orthogonalEdgeStyle;rounded=0;orthogonalLoop=1;jettySize=auto;html=1;strokeWidth=1;fontFamily=Arial;fontSize=14;endArrow=none;endFill=0;dashed=1;align=center;fontStyle=2" parent="TEB3pf0p3Yp_vwyzPoEA-77" edge="1">
          <mxGeometry relative="1" as="geometry">
            <mxPoint x="281.00000000000045" y="1043.75" as="targetPoint" />
            <mxPoint x="201.00000000000045" y="1043.75" as="sourcePoint" />
          </mxGeometry>
        </mxCell>
        <mxCell id="TEB3pf0p3Yp_vwyzPoEA-437" value="" style="endArrow=none;html=1;rounded=0;strokeWidth=1;fontFamily=Arial;fontSize=14;exitX=0;exitY=1;exitDx=0;exitDy=0;align=center;fontStyle=2" parent="TEB3pf0p3Yp_vwyzPoEA-77" edge="1">
          <mxGeometry width="50" height="50" relative="1" as="geometry">
            <mxPoint x="201.00000000000045" y="1096.76" as="sourcePoint" />
            <mxPoint x="281.00000000000045" y="1096.76" as="targetPoint" />
          </mxGeometry>
        </mxCell>
        <mxCell id="TEB3pf0p3Yp_vwyzPoEA-440" value="" style="shape=mxgraph.cisco.computers_and_peripherals.pc;sketch=0;html=1;pointerEvents=1;dashed=0;fillColor=#000000;strokeColor=#E6E6E6;strokeWidth=2;verticalLabelPosition=bottom;verticalAlign=top;align=center;outlineConnect=0;fontSize=23;fillStyle=auto;aspect=fixed;fontFamily=Arial;fontStyle=2" parent="TEB3pf0p3Yp_vwyzPoEA-77" vertex="1">
          <mxGeometry x="1482.26" y="512.7900000000003" width="78.74" height="71.8" as="geometry" />
        </mxCell>
        <mxCell id="TEB3pf0p3Yp_vwyzPoEA-441" value="" style="shape=mxgraph.cisco.computers_and_peripherals.laptop;sketch=0;html=1;pointerEvents=1;dashed=0;fillColor=#000000;strokeColor=#E6E6E6;strokeWidth=2;verticalLabelPosition=bottom;verticalAlign=top;align=center;outlineConnect=0;fillStyle=auto;fontSize=23;aspect=fixed;fontFamily=Arial;container=0;fontStyle=2" parent="TEB3pf0p3Yp_vwyzPoEA-77" vertex="1">
          <mxGeometry x="1328.2600000000002" y="521.5800000000003" width="78.74" height="54.22" as="geometry" />
        </mxCell>
        <mxCell id="TEB3pf0p3Yp_vwyzPoEA-446" value="Модем" style="text;html=1;strokeColor=none;fillColor=none;align=center;verticalAlign=middle;whiteSpace=wrap;rounded=0;dashed=1;fillStyle=auto;strokeWidth=2;fontFamily=Arial;fontSize=14;fontStyle=2;container=0;" parent="TEB3pf0p3Yp_vwyzPoEA-77" vertex="1">
          <mxGeometry x="1171.2600000000002" y="355.94999999999993" width="78.74" height="29.53" as="geometry" />
        </mxCell>
        <mxCell id="TEB3pf0p3Yp_vwyzPoEA-447" value="Маршрутизатор" style="text;html=1;strokeColor=none;fillColor=none;align=center;verticalAlign=middle;whiteSpace=wrap;rounded=0;dashed=1;fillStyle=auto;strokeWidth=2;fontFamily=Arial;fontSize=14;fontStyle=2;container=0;" parent="TEB3pf0p3Yp_vwyzPoEA-77" vertex="1">
          <mxGeometry x="1174.3900000000006" y="606.27" width="78.74" height="29.53" as="geometry" />
        </mxCell>
        <mxCell id="TEB3pf0p3Yp_vwyzPoEA-448" value="Беспроводная точка доступа Wi-Fi" style="text;html=1;strokeColor=none;fillColor=none;align=center;verticalAlign=middle;whiteSpace=wrap;rounded=0;dashed=1;fillStyle=auto;strokeWidth=2;fontFamily=Arial;fontSize=14;fontStyle=2;container=0;" parent="TEB3pf0p3Yp_vwyzPoEA-77" vertex="1">
          <mxGeometry x="1288.89" y="355.94999999999993" width="157.48" height="29.53" as="geometry" />
        </mxCell>
        <mxCell id="TEB3pf0p3Yp_vwyzPoEA-449" value="Беспроводное устройство" style="text;html=1;strokeColor=none;fillColor=none;align=center;verticalAlign=middle;whiteSpace=wrap;rounded=0;dashed=1;fillStyle=auto;strokeWidth=2;fontFamily=Arial;fontSize=14;fontStyle=2;container=0;" parent="TEB3pf0p3Yp_vwyzPoEA-77" vertex="1">
          <mxGeometry x="1328.4800000000005" y="464.2199999999999" width="78.74" height="29.53" as="geometry" />
        </mxCell>
        <mxCell id="TEB3pf0p3Yp_vwyzPoEA-450" value="Рабочая станция" style="text;html=1;strokeColor=none;fillColor=none;align=center;verticalAlign=middle;whiteSpace=wrap;rounded=0;dashed=1;fillStyle=auto;strokeWidth=2;fontFamily=Arial;fontSize=14;fontStyle=2;container=0;" parent="TEB3pf0p3Yp_vwyzPoEA-77" vertex="1">
          <mxGeometry x="1466.2800000000007" y="464.2199999999999" width="118.11" height="29.53" as="geometry" />
        </mxCell>
        <mxCell id="TEB3pf0p3Yp_vwyzPoEA-451" value="Принтер" style="text;html=1;strokeColor=none;fillColor=none;align=center;verticalAlign=middle;whiteSpace=wrap;rounded=0;dashed=1;fillStyle=auto;strokeWidth=2;fontFamily=Arial;fontSize=14;fontStyle=2;container=0;" parent="TEB3pf0p3Yp_vwyzPoEA-77" vertex="1">
          <mxGeometry x="1171" y="464.2199999999999" width="78.74" height="29.53" as="geometry" />
        </mxCell>
        <mxCell id="TEB3pf0p3Yp_vwyzPoEA-457" value="Устройства:" style="text;html=1;strokeColor=none;fillColor=none;align=left;verticalAlign=bottom;whiteSpace=wrap;rounded=0;dashed=1;fillStyle=auto;strokeWidth=2;fontFamily=Arial;fontSize=16;fontStyle=2;container=0;" parent="TEB3pf0p3Yp_vwyzPoEA-77" vertex="1">
          <mxGeometry x="1171.0000000000002" y="313.75" width="410" height="30" as="geometry" />
        </mxCell>
        <mxCell id="TEB3pf0p3Yp_vwyzPoEA-458" value="Соединения:" style="text;html=1;strokeColor=none;fillColor=none;align=left;verticalAlign=bottom;whiteSpace=wrap;rounded=0;dashed=1;fillStyle=auto;strokeWidth=2;fontFamily=Arial;fontSize=16;fontStyle=2;container=0;" parent="TEB3pf0p3Yp_vwyzPoEA-77" vertex="1">
          <mxGeometry x="131.00000000000023" y="964.96" width="410" height="30" as="geometry" />
        </mxCell>
        <mxCell id="TEB3pf0p3Yp_vwyzPoEA-465" value="" style="group;fontFamily=Arial;fontStyle=2" parent="TEB3pf0p3Yp_vwyzPoEA-77" vertex="1" connectable="0">
          <mxGeometry x="475.34000000000015" y="1087.08" width="20" height="20" as="geometry" />
        </mxCell>
        <mxCell id="TEB3pf0p3Yp_vwyzPoEA-466" value="" style="rounded=0;whiteSpace=wrap;html=1;fontFamily=Arial;fontStyle=2" parent="TEB3pf0p3Yp_vwyzPoEA-465" vertex="1">
          <mxGeometry width="20" height="20" as="geometry" />
        </mxCell>
        <mxCell id="TEB3pf0p3Yp_vwyzPoEA-467" value="" style="rounded=0;whiteSpace=wrap;html=1;fontFamily=Arial;fillColor=#000000;strokeColor=none;fontStyle=2" parent="TEB3pf0p3Yp_vwyzPoEA-465" vertex="1">
          <mxGeometry x="4.40729999999985" width="1.9685" height="10" as="geometry" />
        </mxCell>
        <mxCell id="TEB3pf0p3Yp_vwyzPoEA-468" value="" style="rounded=0;whiteSpace=wrap;html=1;fontFamily=Arial;fillColor=#000000;strokeColor=none;fontStyle=2" parent="TEB3pf0p3Yp_vwyzPoEA-465" vertex="1">
          <mxGeometry x="13.462399999999889" width="1.9685" height="10" as="geometry" />
        </mxCell>
        <mxCell id="TEB3pf0p3Yp_vwyzPoEA-469" value="" style="rounded=0;whiteSpace=wrap;html=1;fontFamily=Arial;fillColor=#000000;strokeColor=none;fontStyle=2" parent="TEB3pf0p3Yp_vwyzPoEA-465" vertex="1">
          <mxGeometry x="10.312799999999925" width="1.9685" height="10" as="geometry" />
        </mxCell>
        <mxCell id="TEB3pf0p3Yp_vwyzPoEA-470" value="" style="rounded=0;whiteSpace=wrap;html=1;fontFamily=Arial;fillColor=#000000;strokeColor=none;fontStyle=2" parent="TEB3pf0p3Yp_vwyzPoEA-465" vertex="1">
          <mxGeometry x="7.556899999999814" width="1.9685" height="10" as="geometry" />
        </mxCell>
        <mxCell id="TEB3pf0p3Yp_vwyzPoEA-473" style="edgeStyle=orthogonalEdgeStyle;rounded=0;orthogonalLoop=1;jettySize=auto;html=1;entryX=0.5;entryY=0;entryDx=0;entryDy=0;entryPerimeter=0;endArrow=none;endFill=0;" parent="TEB3pf0p3Yp_vwyzPoEA-77" target="TEB3pf0p3Yp_vwyzPoEA-367" edge="1">
          <mxGeometry relative="1" as="geometry">
            <mxPoint x="1029.4827586206898" y="209.59000000000015" as="sourcePoint" />
          </mxGeometry>
        </mxCell>
        <mxCell id="TEB3pf0p3Yp_vwyzPoEA-474" value="" style="shape=mxgraph.cisco.computers_and_peripherals.laptop;sketch=0;html=1;pointerEvents=1;dashed=0;fillColor=#000000;strokeColor=#E6E6E6;strokeWidth=2;verticalLabelPosition=bottom;verticalAlign=top;align=center;outlineConnect=0;fillStyle=auto;fontSize=23;aspect=fixed;fontFamily=Arial;container=0;fontStyle=2" parent="TEB3pf0p3Yp_vwyzPoEA-77" vertex="1">
          <mxGeometry x="282.04000000000025" y="555.6299999999999" width="78.74" height="54.22" as="geometry" />
        </mxCell>
        <mxCell id="TEB3pf0p3Yp_vwyzPoEA-480" value="" style="shape=mxgraph.cisco.computers_and_peripherals.printer;sketch=0;html=1;pointerEvents=1;dashed=0;fillColor=#000000;strokeColor=#E6E6E6;strokeWidth=2;verticalLabelPosition=bottom;verticalAlign=top;align=center;outlineConnect=0;fontSize=23;fillStyle=auto;aspect=fixed;fontFamily=Arial;fontStyle=2" parent="TEB3pf0p3Yp_vwyzPoEA-77" vertex="1">
          <mxGeometry x="1181.0000000000002" y="533.7500000000002" width="78.74" height="29.88" as="geometry" />
        </mxCell>
        <mxCell id="TEB3pf0p3Yp_vwyzPoEA-482" value="" style="group" parent="TEB3pf0p3Yp_vwyzPoEA-77" vertex="1" connectable="0">
          <mxGeometry x="447.0000000000002" y="1039.08" width="80" height="10" as="geometry" />
        </mxCell>
        <mxCell id="TEB3pf0p3Yp_vwyzPoEA-402" style="edgeStyle=orthogonalEdgeStyle;rounded=0;orthogonalLoop=1;jettySize=auto;html=1;strokeWidth=1;fontFamily=Arial;fontSize=14;endArrow=none;endFill=0;align=center;fontStyle=2;" parent="TEB3pf0p3Yp_vwyzPoEA-482" edge="1">
          <mxGeometry relative="1" as="geometry">
            <mxPoint x="80" y="5" as="targetPoint" />
            <mxPoint y="5" as="sourcePoint" />
          </mxGeometry>
        </mxCell>
        <mxCell id="TEB3pf0p3Yp_vwyzPoEA-424" value="" style="group;fontFamily=Arial;fontStyle=2" parent="TEB3pf0p3Yp_vwyzPoEA-482" vertex="1" connectable="0">
          <mxGeometry x="25" width="30" height="10" as="geometry" />
        </mxCell>
        <mxCell id="TEB3pf0p3Yp_vwyzPoEA-425" value="" style="rounded=0;whiteSpace=wrap;html=1;fontFamily=Arial;fontStyle=2" parent="TEB3pf0p3Yp_vwyzPoEA-424" vertex="1">
          <mxGeometry width="30" height="10" as="geometry" />
        </mxCell>
        <mxCell id="TEB3pf0p3Yp_vwyzPoEA-426" value="" style="rounded=0;whiteSpace=wrap;html=1;fontFamily=Arial;fillColor=#000000;strokeColor=none;fontStyle=2" parent="TEB3pf0p3Yp_vwyzPoEA-424" vertex="1">
          <mxGeometry x="0.7502999999999247" width="5.9055" height="1.9685" as="geometry" />
        </mxCell>
        <mxCell id="TEB3pf0p3Yp_vwyzPoEA-427" value="" style="rounded=0;whiteSpace=wrap;html=1;fontFamily=Arial;fillColor=#000000;strokeColor=none;fontStyle=2" parent="TEB3pf0p3Yp_vwyzPoEA-424" vertex="1">
          <mxGeometry x="8.250299999999925" width="5.9055" height="1.9685" as="geometry" />
        </mxCell>
        <mxCell id="TEB3pf0p3Yp_vwyzPoEA-428" value="" style="rounded=0;whiteSpace=wrap;html=1;fontFamily=Arial;fillColor=#000000;strokeColor=none;fontStyle=2" parent="TEB3pf0p3Yp_vwyzPoEA-424" vertex="1">
          <mxGeometry x="15.750299999999925" width="5.9055" height="1.9685" as="geometry" />
        </mxCell>
        <mxCell id="TEB3pf0p3Yp_vwyzPoEA-429" value="" style="rounded=0;whiteSpace=wrap;html=1;fontFamily=Arial;fillColor=#000000;strokeColor=none;fontStyle=2" parent="TEB3pf0p3Yp_vwyzPoEA-424" vertex="1">
          <mxGeometry x="23.250299999999925" width="5.9055" height="1.9685" as="geometry" />
        </mxCell>
        <mxCell id="TEB3pf0p3Yp_vwyzPoEA-459" value="" style="group;fontFamily=Arial;fontStyle=2" parent="TEB3pf0p3Yp_vwyzPoEA-482" vertex="1" connectable="0">
          <mxGeometry x="25" width="30" height="10" as="geometry" />
        </mxCell>
        <mxCell id="TEB3pf0p3Yp_vwyzPoEA-461" value="" style="rounded=0;whiteSpace=wrap;html=1;fontFamily=Arial;fillColor=#000000;strokeColor=none;fontStyle=2" parent="TEB3pf0p3Yp_vwyzPoEA-459" vertex="1">
          <mxGeometry x="0.7502999999999247" width="5.9055" height="1.9685" as="geometry" />
        </mxCell>
        <mxCell id="TEB3pf0p3Yp_vwyzPoEA-462" value="" style="rounded=0;whiteSpace=wrap;html=1;fontFamily=Arial;fillColor=#000000;strokeColor=none;fontStyle=2" parent="TEB3pf0p3Yp_vwyzPoEA-459" vertex="1">
          <mxGeometry x="8.250299999999925" width="5.9055" height="1.9685" as="geometry" />
        </mxCell>
        <mxCell id="TEB3pf0p3Yp_vwyzPoEA-463" value="" style="rounded=0;whiteSpace=wrap;html=1;fontFamily=Arial;fillColor=#000000;strokeColor=none;fontStyle=2" parent="TEB3pf0p3Yp_vwyzPoEA-459" vertex="1">
          <mxGeometry x="15.750299999999925" width="5.9055" height="1.9685" as="geometry" />
        </mxCell>
        <mxCell id="TEB3pf0p3Yp_vwyzPoEA-464" value="" style="rounded=0;whiteSpace=wrap;html=1;fontFamily=Arial;fillColor=#000000;strokeColor=none;fontStyle=2" parent="TEB3pf0p3Yp_vwyzPoEA-459" vertex="1">
          <mxGeometry x="23.250299999999925" width="5.9055" height="1.9685" as="geometry" />
        </mxCell>
        <mxCell id="TEB3pf0p3Yp_vwyzPoEA-566" value="USB-B" style="text;html=1;strokeColor=none;fillColor=none;align=right;verticalAlign=middle;whiteSpace=wrap;rounded=0;dashed=1;fillStyle=auto;strokeWidth=2;fontFamily=Arial;fontSize=11;fontStyle=2" parent="TEB3pf0p3Yp_vwyzPoEA-77" vertex="1">
          <mxGeometry x="190.36500000000058" y="155.00500000000002" width="40" height="20" as="geometry" />
        </mxCell>
        <mxCell id="TEB3pf0p3Yp_vwyzPoEA-644" value="" style="group" parent="TEB3pf0p3Yp_vwyzPoEA-77" vertex="1" connectable="0">
          <mxGeometry x="187.55000000000024" y="804.68" width="45.62500000000034" height="80" as="geometry" />
        </mxCell>
        <mxCell id="TEB3pf0p3Yp_vwyzPoEA-629" value="" style="group;rotation=90;" parent="TEB3pf0p3Yp_vwyzPoEA-644" vertex="1" connectable="0">
          <mxGeometry x="-35" y="35" width="80" height="10" as="geometry" />
        </mxCell>
        <mxCell id="TEB3pf0p3Yp_vwyzPoEA-630" style="edgeStyle=orthogonalEdgeStyle;rounded=0;orthogonalLoop=1;jettySize=auto;html=1;strokeWidth=1;fontFamily=Arial;fontSize=14;endArrow=none;endFill=0;align=center;fontStyle=2;" parent="TEB3pf0p3Yp_vwyzPoEA-629" edge="1">
          <mxGeometry relative="1" as="geometry">
            <mxPoint x="40" y="45" as="targetPoint" />
            <mxPoint x="40" y="-35" as="sourcePoint" />
          </mxGeometry>
        </mxCell>
        <mxCell id="TEB3pf0p3Yp_vwyzPoEA-631" value="" style="group;fontFamily=Arial;fontStyle=2;rotation=90;" parent="TEB3pf0p3Yp_vwyzPoEA-629" vertex="1" connectable="0">
          <mxGeometry x="25" width="30" height="10" as="geometry" />
        </mxCell>
        <mxCell id="TEB3pf0p3Yp_vwyzPoEA-632" value="" style="rounded=0;whiteSpace=wrap;html=1;fontFamily=Arial;fontStyle=2;rotation=90;" parent="TEB3pf0p3Yp_vwyzPoEA-631" vertex="1">
          <mxGeometry width="30" height="10" as="geometry" />
        </mxCell>
        <mxCell id="TEB3pf0p3Yp_vwyzPoEA-633" value="" style="rounded=0;whiteSpace=wrap;html=1;fontFamily=Arial;fillColor=#000000;strokeColor=none;fontStyle=2;rotation=90;" parent="TEB3pf0p3Yp_vwyzPoEA-631" vertex="1">
          <mxGeometry x="16" y="-7" width="5.9055" height="1.9685" as="geometry" />
        </mxCell>
        <mxCell id="TEB3pf0p3Yp_vwyzPoEA-634" value="" style="rounded=0;whiteSpace=wrap;html=1;fontFamily=Arial;fillColor=#000000;strokeColor=none;fontStyle=2;rotation=90;" parent="TEB3pf0p3Yp_vwyzPoEA-631" vertex="1">
          <mxGeometry x="16" width="5.9055" height="1.9685" as="geometry" />
        </mxCell>
        <mxCell id="TEB3pf0p3Yp_vwyzPoEA-635" value="" style="rounded=0;whiteSpace=wrap;html=1;fontFamily=Arial;fillColor=#000000;strokeColor=none;fontStyle=2;rotation=90;" parent="TEB3pf0p3Yp_vwyzPoEA-631" vertex="1">
          <mxGeometry x="16" y="8" width="5.9055" height="1.9685" as="geometry" />
        </mxCell>
        <mxCell id="TEB3pf0p3Yp_vwyzPoEA-636" value="" style="rounded=0;whiteSpace=wrap;html=1;fontFamily=Arial;fillColor=#000000;strokeColor=none;fontStyle=2;rotation=90;" parent="TEB3pf0p3Yp_vwyzPoEA-631" vertex="1">
          <mxGeometry x="16" y="15" width="5.9055" height="1.9685" as="geometry" />
        </mxCell>
        <mxCell id="TEB3pf0p3Yp_vwyzPoEA-637" value="" style="group;fontFamily=Arial;fontStyle=2;rotation=90;" parent="TEB3pf0p3Yp_vwyzPoEA-629" vertex="1" connectable="0">
          <mxGeometry x="25" width="30" height="10" as="geometry" />
        </mxCell>
        <mxCell id="TEB3pf0p3Yp_vwyzPoEA-638" value="" style="rounded=0;whiteSpace=wrap;html=1;fontFamily=Arial;fillColor=#000000;strokeColor=none;fontStyle=2;rotation=90;" parent="TEB3pf0p3Yp_vwyzPoEA-637" vertex="1">
          <mxGeometry x="16" y="-7" width="5.9055" height="1.9685" as="geometry" />
        </mxCell>
        <mxCell id="TEB3pf0p3Yp_vwyzPoEA-639" value="" style="rounded=0;whiteSpace=wrap;html=1;fontFamily=Arial;fillColor=#000000;strokeColor=none;fontStyle=2;rotation=90;" parent="TEB3pf0p3Yp_vwyzPoEA-637" vertex="1">
          <mxGeometry x="16" width="5.9055" height="1.9685" as="geometry" />
        </mxCell>
        <mxCell id="TEB3pf0p3Yp_vwyzPoEA-640" value="" style="rounded=0;whiteSpace=wrap;html=1;fontFamily=Arial;fillColor=#000000;strokeColor=none;fontStyle=2;rotation=90;" parent="TEB3pf0p3Yp_vwyzPoEA-637" vertex="1">
          <mxGeometry x="16" y="8" width="5.9055" height="1.9685" as="geometry" />
        </mxCell>
        <mxCell id="TEB3pf0p3Yp_vwyzPoEA-641" value="" style="rounded=0;whiteSpace=wrap;html=1;fontFamily=Arial;fillColor=#000000;strokeColor=none;fontStyle=2;rotation=90;" parent="TEB3pf0p3Yp_vwyzPoEA-637" vertex="1">
          <mxGeometry x="16" y="15" width="5.9055" height="1.9685" as="geometry" />
        </mxCell>
        <mxCell id="TEB3pf0p3Yp_vwyzPoEA-642" value="USB-A" style="text;html=1;strokeColor=none;fillColor=none;align=right;verticalAlign=middle;whiteSpace=wrap;rounded=0;dashed=1;fillStyle=auto;strokeWidth=2;fontFamily=Arial;fontSize=11;fontStyle=2" parent="TEB3pf0p3Yp_vwyzPoEA-644" vertex="1">
          <mxGeometry x="5.625000000000341" y="58.16500000000008" width="40" height="20" as="geometry" />
        </mxCell>
        <mxCell id="TEB3pf0p3Yp_vwyzPoEA-643" value="USB-B" style="text;html=1;strokeColor=none;fillColor=none;align=right;verticalAlign=middle;whiteSpace=wrap;rounded=0;dashed=1;fillStyle=auto;strokeWidth=2;fontFamily=Arial;fontSize=11;fontStyle=2" parent="TEB3pf0p3Yp_vwyzPoEA-644" vertex="1">
          <mxGeometry x="4.995000000000346" y="1.895000000000067" width="40" height="20" as="geometry" />
        </mxCell>
        <mxCell id="TEB3pf0p3Yp_vwyzPoEA-695" value="" style="shape=mxgraph.cisco.computers_and_peripherals.printer;sketch=0;html=1;pointerEvents=1;dashed=0;fillColor=#000000;strokeColor=#E6E6E6;strokeWidth=2;verticalLabelPosition=bottom;verticalAlign=top;align=center;outlineConnect=0;fontSize=23;fillStyle=auto;aspect=fixed;fontFamily=Arial;fontStyle=2" parent="TEB3pf0p3Yp_vwyzPoEA-77" vertex="1">
          <mxGeometry x="312.8900000000002" y="884.3600000000001" width="78.74" height="29.88" as="geometry" />
        </mxCell>
        <mxCell id="TEB3pf0p3Yp_vwyzPoEA-714" style="edgeStyle=orthogonalEdgeStyle;rounded=0;orthogonalLoop=1;jettySize=auto;html=1;endArrow=none;endFill=0;exitX=0.5;exitY=0;exitDx=0;exitDy=0;exitPerimeter=0;" parent="TEB3pf0p3Yp_vwyzPoEA-77" source="TEB3pf0p3Yp_vwyzPoEA-696" edge="1">
          <mxGeometry relative="1" as="geometry">
            <mxPoint x="352.26" y="681" as="targetPoint" />
            <mxPoint x="352.256" y="728.88" as="sourcePoint" />
          </mxGeometry>
        </mxCell>
        <mxCell id="TEB3pf0p3Yp_vwyzPoEA-696" value="" style="shape=mxgraph.cisco.computers_and_peripherals.pc;sketch=0;html=1;pointerEvents=1;dashed=0;fillColor=#000000;strokeColor=#E6E6E6;strokeWidth=2;verticalLabelPosition=bottom;verticalAlign=top;align=center;outlineConnect=0;fontSize=23;fillStyle=auto;aspect=fixed;fontFamily=Arial;fontStyle=2" parent="TEB3pf0p3Yp_vwyzPoEA-77" vertex="1">
          <mxGeometry x="312.89" y="732.88" width="78.74" height="71.8" as="geometry" />
        </mxCell>
        <mxCell id="TEB3pf0p3Yp_vwyzPoEA-697" value="" style="group" parent="TEB3pf0p3Yp_vwyzPoEA-77" vertex="1" connectable="0">
          <mxGeometry x="339.4400000000002" y="804.3599999999999" width="45.62500000000034" height="80" as="geometry" />
        </mxCell>
        <mxCell id="TEB3pf0p3Yp_vwyzPoEA-698" value="" style="group;rotation=90;" parent="TEB3pf0p3Yp_vwyzPoEA-697" vertex="1" connectable="0">
          <mxGeometry x="-35" y="35" width="80" height="10" as="geometry" />
        </mxCell>
        <mxCell id="TEB3pf0p3Yp_vwyzPoEA-699" style="edgeStyle=orthogonalEdgeStyle;rounded=0;orthogonalLoop=1;jettySize=auto;html=1;strokeWidth=1;fontFamily=Arial;fontSize=14;endArrow=none;endFill=0;align=center;fontStyle=2;" parent="TEB3pf0p3Yp_vwyzPoEA-698" edge="1">
          <mxGeometry relative="1" as="geometry">
            <mxPoint x="40" y="45" as="targetPoint" />
            <mxPoint x="40" y="-35" as="sourcePoint" />
          </mxGeometry>
        </mxCell>
        <mxCell id="TEB3pf0p3Yp_vwyzPoEA-700" value="" style="group;fontFamily=Arial;fontStyle=2;rotation=90;" parent="TEB3pf0p3Yp_vwyzPoEA-698" vertex="1" connectable="0">
          <mxGeometry x="25" width="30" height="10" as="geometry" />
        </mxCell>
        <mxCell id="TEB3pf0p3Yp_vwyzPoEA-701" value="" style="rounded=0;whiteSpace=wrap;html=1;fontFamily=Arial;fontStyle=2;rotation=90;" parent="TEB3pf0p3Yp_vwyzPoEA-700" vertex="1">
          <mxGeometry width="30" height="10" as="geometry" />
        </mxCell>
        <mxCell id="TEB3pf0p3Yp_vwyzPoEA-702" value="" style="rounded=0;whiteSpace=wrap;html=1;fontFamily=Arial;fillColor=#000000;strokeColor=none;fontStyle=2;rotation=90;" parent="TEB3pf0p3Yp_vwyzPoEA-700" vertex="1">
          <mxGeometry x="16" y="-7" width="5.9055" height="1.9685" as="geometry" />
        </mxCell>
        <mxCell id="TEB3pf0p3Yp_vwyzPoEA-703" value="" style="rounded=0;whiteSpace=wrap;html=1;fontFamily=Arial;fillColor=#000000;strokeColor=none;fontStyle=2;rotation=90;" parent="TEB3pf0p3Yp_vwyzPoEA-700" vertex="1">
          <mxGeometry x="16" width="5.9055" height="1.9685" as="geometry" />
        </mxCell>
        <mxCell id="TEB3pf0p3Yp_vwyzPoEA-704" value="" style="rounded=0;whiteSpace=wrap;html=1;fontFamily=Arial;fillColor=#000000;strokeColor=none;fontStyle=2;rotation=90;" parent="TEB3pf0p3Yp_vwyzPoEA-700" vertex="1">
          <mxGeometry x="16" y="8" width="5.9055" height="1.9685" as="geometry" />
        </mxCell>
        <mxCell id="TEB3pf0p3Yp_vwyzPoEA-705" value="" style="rounded=0;whiteSpace=wrap;html=1;fontFamily=Arial;fillColor=#000000;strokeColor=none;fontStyle=2;rotation=90;" parent="TEB3pf0p3Yp_vwyzPoEA-700" vertex="1">
          <mxGeometry x="16" y="15" width="5.9055" height="1.9685" as="geometry" />
        </mxCell>
        <mxCell id="TEB3pf0p3Yp_vwyzPoEA-706" value="" style="group;fontFamily=Arial;fontStyle=2;rotation=90;" parent="TEB3pf0p3Yp_vwyzPoEA-698" vertex="1" connectable="0">
          <mxGeometry x="25" width="30" height="10" as="geometry" />
        </mxCell>
        <mxCell id="TEB3pf0p3Yp_vwyzPoEA-707" value="" style="rounded=0;whiteSpace=wrap;html=1;fontFamily=Arial;fillColor=#000000;strokeColor=none;fontStyle=2;rotation=90;" parent="TEB3pf0p3Yp_vwyzPoEA-706" vertex="1">
          <mxGeometry x="16" y="-7" width="5.9055" height="1.9685" as="geometry" />
        </mxCell>
        <mxCell id="TEB3pf0p3Yp_vwyzPoEA-708" value="" style="rounded=0;whiteSpace=wrap;html=1;fontFamily=Arial;fillColor=#000000;strokeColor=none;fontStyle=2;rotation=90;" parent="TEB3pf0p3Yp_vwyzPoEA-706" vertex="1">
          <mxGeometry x="16" width="5.9055" height="1.9685" as="geometry" />
        </mxCell>
        <mxCell id="TEB3pf0p3Yp_vwyzPoEA-709" value="" style="rounded=0;whiteSpace=wrap;html=1;fontFamily=Arial;fillColor=#000000;strokeColor=none;fontStyle=2;rotation=90;" parent="TEB3pf0p3Yp_vwyzPoEA-706" vertex="1">
          <mxGeometry x="16" y="8" width="5.9055" height="1.9685" as="geometry" />
        </mxCell>
        <mxCell id="TEB3pf0p3Yp_vwyzPoEA-710" value="" style="rounded=0;whiteSpace=wrap;html=1;fontFamily=Arial;fillColor=#000000;strokeColor=none;fontStyle=2;rotation=90;" parent="TEB3pf0p3Yp_vwyzPoEA-706" vertex="1">
          <mxGeometry x="16" y="15" width="5.9055" height="1.9685" as="geometry" />
        </mxCell>
        <mxCell id="TEB3pf0p3Yp_vwyzPoEA-711" value="USB-A" style="text;html=1;strokeColor=none;fillColor=none;align=right;verticalAlign=middle;whiteSpace=wrap;rounded=0;dashed=1;fillStyle=auto;strokeWidth=2;fontFamily=Arial;fontSize=11;fontStyle=2" parent="TEB3pf0p3Yp_vwyzPoEA-697" vertex="1">
          <mxGeometry x="5.625000000000341" y="58.16500000000008" width="40" height="20" as="geometry" />
        </mxCell>
        <mxCell id="TEB3pf0p3Yp_vwyzPoEA-712" value="USB-B" style="text;html=1;strokeColor=none;fillColor=none;align=right;verticalAlign=middle;whiteSpace=wrap;rounded=0;dashed=1;fillStyle=auto;strokeWidth=2;fontFamily=Arial;fontSize=11;fontStyle=2" parent="TEB3pf0p3Yp_vwyzPoEA-697" vertex="1">
          <mxGeometry x="4.995000000000346" y="1.895000000000067" width="40" height="20" as="geometry" />
        </mxCell>
        <mxCell id="TEB3pf0p3Yp_vwyzPoEA-715" value="" style="shape=mxgraph.cisco.computers_and_peripherals.printer;sketch=0;html=1;pointerEvents=1;dashed=0;fillColor=#000000;strokeColor=#E6E6E6;strokeWidth=2;verticalLabelPosition=bottom;verticalAlign=top;align=center;outlineConnect=0;fontSize=23;fillStyle=auto;aspect=fixed;fontFamily=Arial;fontStyle=2" parent="TEB3pf0p3Yp_vwyzPoEA-77" vertex="1">
          <mxGeometry x="462.8900000000002" y="884.6800000000002" width="78.74" height="29.88" as="geometry" />
        </mxCell>
        <mxCell id="TEB3pf0p3Yp_vwyzPoEA-716" style="edgeStyle=orthogonalEdgeStyle;rounded=0;orthogonalLoop=1;jettySize=auto;html=1;endArrow=none;endFill=0;exitX=0.5;exitY=0;exitDx=0;exitDy=0;exitPerimeter=0;" parent="TEB3pf0p3Yp_vwyzPoEA-77" source="TEB3pf0p3Yp_vwyzPoEA-717" edge="1">
          <mxGeometry relative="1" as="geometry">
            <mxPoint x="502.26" y="681.32" as="targetPoint" />
            <mxPoint x="502.256" y="729.2" as="sourcePoint" />
          </mxGeometry>
        </mxCell>
        <mxCell id="TEB3pf0p3Yp_vwyzPoEA-717" value="" style="shape=mxgraph.cisco.computers_and_peripherals.pc;sketch=0;html=1;pointerEvents=1;dashed=0;fillColor=#000000;strokeColor=#E6E6E6;strokeWidth=2;verticalLabelPosition=bottom;verticalAlign=top;align=center;outlineConnect=0;fontSize=23;fillStyle=auto;aspect=fixed;fontFamily=Arial;fontStyle=2" parent="TEB3pf0p3Yp_vwyzPoEA-77" vertex="1">
          <mxGeometry x="462.89" y="733.2" width="78.74" height="71.8" as="geometry" />
        </mxCell>
        <mxCell id="TEB3pf0p3Yp_vwyzPoEA-718" value="" style="group" parent="TEB3pf0p3Yp_vwyzPoEA-77" vertex="1" connectable="0">
          <mxGeometry x="489.4400000000002" y="804.68" width="45.62500000000034" height="80" as="geometry" />
        </mxCell>
        <mxCell id="TEB3pf0p3Yp_vwyzPoEA-719" value="" style="group;rotation=90;" parent="TEB3pf0p3Yp_vwyzPoEA-718" vertex="1" connectable="0">
          <mxGeometry x="-35" y="35" width="80" height="10" as="geometry" />
        </mxCell>
        <mxCell id="TEB3pf0p3Yp_vwyzPoEA-720" style="edgeStyle=orthogonalEdgeStyle;rounded=0;orthogonalLoop=1;jettySize=auto;html=1;strokeWidth=1;fontFamily=Arial;fontSize=14;endArrow=none;endFill=0;align=center;fontStyle=2;" parent="TEB3pf0p3Yp_vwyzPoEA-719" edge="1">
          <mxGeometry relative="1" as="geometry">
            <mxPoint x="40" y="45" as="targetPoint" />
            <mxPoint x="40" y="-35" as="sourcePoint" />
          </mxGeometry>
        </mxCell>
        <mxCell id="TEB3pf0p3Yp_vwyzPoEA-721" value="" style="group;fontFamily=Arial;fontStyle=2;rotation=90;" parent="TEB3pf0p3Yp_vwyzPoEA-719" vertex="1" connectable="0">
          <mxGeometry x="25" width="30" height="10" as="geometry" />
        </mxCell>
        <mxCell id="TEB3pf0p3Yp_vwyzPoEA-722" value="" style="rounded=0;whiteSpace=wrap;html=1;fontFamily=Arial;fontStyle=2;rotation=90;" parent="TEB3pf0p3Yp_vwyzPoEA-721" vertex="1">
          <mxGeometry width="30" height="10" as="geometry" />
        </mxCell>
        <mxCell id="TEB3pf0p3Yp_vwyzPoEA-723" value="" style="rounded=0;whiteSpace=wrap;html=1;fontFamily=Arial;fillColor=#000000;strokeColor=none;fontStyle=2;rotation=90;" parent="TEB3pf0p3Yp_vwyzPoEA-721" vertex="1">
          <mxGeometry x="16" y="-7" width="5.9055" height="1.9685" as="geometry" />
        </mxCell>
        <mxCell id="TEB3pf0p3Yp_vwyzPoEA-724" value="" style="rounded=0;whiteSpace=wrap;html=1;fontFamily=Arial;fillColor=#000000;strokeColor=none;fontStyle=2;rotation=90;" parent="TEB3pf0p3Yp_vwyzPoEA-721" vertex="1">
          <mxGeometry x="16" width="5.9055" height="1.9685" as="geometry" />
        </mxCell>
        <mxCell id="TEB3pf0p3Yp_vwyzPoEA-725" value="" style="rounded=0;whiteSpace=wrap;html=1;fontFamily=Arial;fillColor=#000000;strokeColor=none;fontStyle=2;rotation=90;" parent="TEB3pf0p3Yp_vwyzPoEA-721" vertex="1">
          <mxGeometry x="16" y="8" width="5.9055" height="1.9685" as="geometry" />
        </mxCell>
        <mxCell id="TEB3pf0p3Yp_vwyzPoEA-726" value="" style="rounded=0;whiteSpace=wrap;html=1;fontFamily=Arial;fillColor=#000000;strokeColor=none;fontStyle=2;rotation=90;" parent="TEB3pf0p3Yp_vwyzPoEA-721" vertex="1">
          <mxGeometry x="16" y="15" width="5.9055" height="1.9685" as="geometry" />
        </mxCell>
        <mxCell id="TEB3pf0p3Yp_vwyzPoEA-727" value="" style="group;fontFamily=Arial;fontStyle=2;rotation=90;" parent="TEB3pf0p3Yp_vwyzPoEA-719" vertex="1" connectable="0">
          <mxGeometry x="25" width="30" height="10" as="geometry" />
        </mxCell>
        <mxCell id="TEB3pf0p3Yp_vwyzPoEA-728" value="" style="rounded=0;whiteSpace=wrap;html=1;fontFamily=Arial;fillColor=#000000;strokeColor=none;fontStyle=2;rotation=90;" parent="TEB3pf0p3Yp_vwyzPoEA-727" vertex="1">
          <mxGeometry x="16" y="-7" width="5.9055" height="1.9685" as="geometry" />
        </mxCell>
        <mxCell id="TEB3pf0p3Yp_vwyzPoEA-729" value="" style="rounded=0;whiteSpace=wrap;html=1;fontFamily=Arial;fillColor=#000000;strokeColor=none;fontStyle=2;rotation=90;" parent="TEB3pf0p3Yp_vwyzPoEA-727" vertex="1">
          <mxGeometry x="16" width="5.9055" height="1.9685" as="geometry" />
        </mxCell>
        <mxCell id="TEB3pf0p3Yp_vwyzPoEA-730" value="" style="rounded=0;whiteSpace=wrap;html=1;fontFamily=Arial;fillColor=#000000;strokeColor=none;fontStyle=2;rotation=90;" parent="TEB3pf0p3Yp_vwyzPoEA-727" vertex="1">
          <mxGeometry x="16" y="8" width="5.9055" height="1.9685" as="geometry" />
        </mxCell>
        <mxCell id="TEB3pf0p3Yp_vwyzPoEA-731" value="" style="rounded=0;whiteSpace=wrap;html=1;fontFamily=Arial;fillColor=#000000;strokeColor=none;fontStyle=2;rotation=90;" parent="TEB3pf0p3Yp_vwyzPoEA-727" vertex="1">
          <mxGeometry x="16" y="15" width="5.9055" height="1.9685" as="geometry" />
        </mxCell>
        <mxCell id="TEB3pf0p3Yp_vwyzPoEA-732" value="USB-A" style="text;html=1;strokeColor=none;fillColor=none;align=right;verticalAlign=middle;whiteSpace=wrap;rounded=0;dashed=1;fillStyle=auto;strokeWidth=2;fontFamily=Arial;fontSize=11;fontStyle=2" parent="TEB3pf0p3Yp_vwyzPoEA-718" vertex="1">
          <mxGeometry x="5.625000000000341" y="58.16500000000008" width="40" height="20" as="geometry" />
        </mxCell>
        <mxCell id="TEB3pf0p3Yp_vwyzPoEA-733" value="USB-B" style="text;html=1;strokeColor=none;fillColor=none;align=right;verticalAlign=middle;whiteSpace=wrap;rounded=0;dashed=1;fillStyle=auto;strokeWidth=2;fontFamily=Arial;fontSize=11;fontStyle=2" parent="TEB3pf0p3Yp_vwyzPoEA-718" vertex="1">
          <mxGeometry x="4.995000000000346" y="1.895000000000067" width="40" height="20" as="geometry" />
        </mxCell>
        <mxCell id="TEB3pf0p3Yp_vwyzPoEA-754" value="Wireless 1" style="text;html=1;strokeColor=none;fillColor=none;align=center;verticalAlign=middle;whiteSpace=wrap;rounded=0;dashed=1;fillStyle=auto;strokeWidth=2;fontFamily=Arial;fontSize=14;fontStyle=2;container=0;" parent="TEB3pf0p3Yp_vwyzPoEA-77" vertex="1">
          <mxGeometry x="140.78" y="615" width="80" height="20" as="geometry" />
        </mxCell>
        <mxCell id="TEB3pf0p3Yp_vwyzPoEA-755" value="Wireless 25" style="text;html=1;strokeColor=none;fillColor=none;align=center;verticalAlign=middle;whiteSpace=wrap;rounded=0;dashed=1;fillStyle=auto;strokeWidth=2;fontFamily=Arial;fontSize=14;fontStyle=2;container=0;" parent="TEB3pf0p3Yp_vwyzPoEA-77" vertex="1">
          <mxGeometry x="280.78" y="615" width="80" height="20" as="geometry" />
        </mxCell>
        <mxCell id="TEB3pf0p3Yp_vwyzPoEA-759" value="&lt;span&gt;&lt;font style=&quot;font-size: 24px;&quot;&gt;...&lt;/font&gt;&lt;/span&gt;" style="text;html=1;align=center;verticalAlign=middle;resizable=0;points=[];autosize=1;strokeColor=none;fillColor=none;fontSize=23;fontFamily=Arial;fontStyle=2" parent="TEB3pf0p3Yp_vwyzPoEA-77" vertex="1">
          <mxGeometry x="231" y="585.63" width="39.37" height="39.37" as="geometry" />
        </mxCell>
        <mxCell id="TEB3pf0p3Yp_vwyzPoEA-764" value="AP-1" style="text;html=1;strokeColor=none;fillColor=none;align=center;verticalAlign=middle;whiteSpace=wrap;rounded=0;dashed=1;fillStyle=auto;strokeWidth=2;fontFamily=Arial;fontSize=14;fontStyle=2" parent="TEB3pf0p3Yp_vwyzPoEA-77" vertex="1">
          <mxGeometry x="170.36" y="427.51" width="80" height="20" as="geometry" />
        </mxCell>
        <mxCell id="TEB3pf0p3Yp_vwyzPoEA-766" style="edgeStyle=orthogonalEdgeStyle;rounded=0;orthogonalLoop=1;jettySize=auto;html=1;endArrow=none;endFill=0;dashed=1;" parent="TEB3pf0p3Yp_vwyzPoEA-77" edge="1">
          <mxGeometry relative="1" as="geometry">
            <mxPoint x="497.44" y="485" as="targetPoint" />
            <mxPoint x="549.44" y="582" as="sourcePoint" />
            <Array as="points">
              <mxPoint x="549.44" y="583" />
              <mxPoint x="567.44" y="583" />
              <mxPoint x="567.44" y="465" />
              <mxPoint x="497.44" y="465" />
            </Array>
          </mxGeometry>
        </mxCell>
        <mxCell id="TEB3pf0p3Yp_vwyzPoEA-767" style="edgeStyle=orthogonalEdgeStyle;rounded=0;orthogonalLoop=1;jettySize=auto;html=1;endArrow=none;endFill=0;dashed=1;" parent="TEB3pf0p3Yp_vwyzPoEA-77" source="TEB3pf0p3Yp_vwyzPoEA-768" edge="1">
          <mxGeometry relative="1" as="geometry">
            <mxPoint x="476.94" y="482.5" as="targetPoint" />
            <Array as="points">
              <mxPoint x="427.44" y="465" />
              <mxPoint x="477.44" y="465" />
            </Array>
          </mxGeometry>
        </mxCell>
        <mxCell id="TEB3pf0p3Yp_vwyzPoEA-768" value="" style="shape=mxgraph.cisco.computers_and_peripherals.laptop;sketch=0;html=1;pointerEvents=1;dashed=0;fillColor=#000000;strokeColor=#E6E6E6;strokeWidth=2;verticalLabelPosition=bottom;verticalAlign=top;align=center;outlineConnect=0;fillStyle=auto;fontSize=23;aspect=fixed;fontFamily=Arial;container=0;fontStyle=2" parent="TEB3pf0p3Yp_vwyzPoEA-77" vertex="1">
          <mxGeometry x="378.48000000000025" y="555.6299999999999" width="78.74" height="54.22" as="geometry" />
        </mxCell>
        <mxCell id="TEB3pf0p3Yp_vwyzPoEA-769" style="edgeStyle=orthogonalEdgeStyle;rounded=0;orthogonalLoop=1;jettySize=auto;html=1;endArrow=none;endFill=0;" parent="TEB3pf0p3Yp_vwyzPoEA-77" source="TEB3pf0p3Yp_vwyzPoEA-770" edge="1">
          <mxGeometry relative="1" as="geometry">
            <mxPoint x="557.44" y="365" as="targetPoint" />
            <Array as="points">
              <mxPoint x="486.44" y="435" />
              <mxPoint x="557.44" y="435" />
            </Array>
          </mxGeometry>
        </mxCell>
        <mxCell id="TEB3pf0p3Yp_vwyzPoEA-770" value="" style="shape=mxgraph.cisco.misc.access_point;html=1;pointerEvents=1;dashed=0;fillColor=#000000;strokeColor=#E6E6E6;strokeWidth=2;verticalLabelPosition=bottom;verticalAlign=top;align=center;outlineConnect=0;fillStyle=auto;fontSize=23;aspect=fixed;fontFamily=Arial;fontStyle=2" parent="TEB3pf0p3Yp_vwyzPoEA-77" vertex="1">
          <mxGeometry x="447.44" y="447.51000000000005" width="78.74" height="36.26" as="geometry" />
        </mxCell>
        <mxCell id="TEB3pf0p3Yp_vwyzPoEA-771" value="" style="shape=mxgraph.cisco.computers_and_peripherals.laptop;sketch=0;html=1;pointerEvents=1;dashed=0;fillColor=#000000;strokeColor=#E6E6E6;strokeWidth=2;verticalLabelPosition=bottom;verticalAlign=top;align=center;outlineConnect=0;fillStyle=auto;fontSize=23;aspect=fixed;fontFamily=Arial;container=0;fontStyle=2" parent="TEB3pf0p3Yp_vwyzPoEA-77" vertex="1">
          <mxGeometry x="518.4800000000002" y="555.6299999999999" width="78.74" height="54.22" as="geometry" />
        </mxCell>
        <mxCell id="TEB3pf0p3Yp_vwyzPoEA-772" value="Wireless 26" style="text;html=1;strokeColor=none;fillColor=none;align=center;verticalAlign=middle;whiteSpace=wrap;rounded=0;dashed=1;fillStyle=auto;strokeWidth=2;fontFamily=Arial;fontSize=14;fontStyle=2;container=0;" parent="TEB3pf0p3Yp_vwyzPoEA-77" vertex="1">
          <mxGeometry x="377.22" y="615" width="80" height="20" as="geometry" />
        </mxCell>
        <mxCell id="TEB3pf0p3Yp_vwyzPoEA-773" value="Wireless 50" style="text;html=1;strokeColor=none;fillColor=none;align=center;verticalAlign=middle;whiteSpace=wrap;rounded=0;dashed=1;fillStyle=auto;strokeWidth=2;fontFamily=Arial;fontSize=14;fontStyle=2;container=0;" parent="TEB3pf0p3Yp_vwyzPoEA-77" vertex="1">
          <mxGeometry x="517.22" y="615" width="80" height="20" as="geometry" />
        </mxCell>
        <mxCell id="TEB3pf0p3Yp_vwyzPoEA-774" value="&lt;span&gt;&lt;font style=&quot;font-size: 24px;&quot;&gt;...&lt;/font&gt;&lt;/span&gt;" style="text;html=1;align=center;verticalAlign=middle;resizable=0;points=[];autosize=1;strokeColor=none;fillColor=none;fontSize=23;fontFamily=Arial;fontStyle=2" parent="TEB3pf0p3Yp_vwyzPoEA-77" vertex="1">
          <mxGeometry x="467.44" y="585.63" width="39.37" height="39.37" as="geometry" />
        </mxCell>
        <mxCell id="TEB3pf0p3Yp_vwyzPoEA-775" value="AP-2" style="text;html=1;strokeColor=none;fillColor=none;align=center;verticalAlign=middle;whiteSpace=wrap;rounded=0;dashed=1;fillStyle=auto;strokeWidth=2;fontFamily=Arial;fontSize=14;fontStyle=2" parent="TEB3pf0p3Yp_vwyzPoEA-77" vertex="1">
          <mxGeometry x="406.8" y="427.51" width="80" height="20" as="geometry" />
        </mxCell>
        <mxCell id="TEB3pf0p3Yp_vwyzPoEA-776" value="CAM-1" style="text;html=1;strokeColor=none;fillColor=none;align=center;verticalAlign=middle;whiteSpace=wrap;rounded=0;dashed=1;fillStyle=auto;strokeWidth=2;fontFamily=Arial;fontSize=14;fontStyle=2" parent="TEB3pf0p3Yp_vwyzPoEA-77" vertex="1">
          <mxGeometry x="640" y="416.39" width="80" height="20" as="geometry" />
        </mxCell>
        <mxCell id="TEB3pf0p3Yp_vwyzPoEA-777" value="CAM-5" style="text;html=1;strokeColor=none;fillColor=none;align=center;verticalAlign=middle;whiteSpace=wrap;rounded=0;dashed=1;fillStyle=auto;strokeWidth=2;fontFamily=Arial;fontSize=14;fontStyle=2" parent="TEB3pf0p3Yp_vwyzPoEA-77" vertex="1">
          <mxGeometry x="769.74" y="416.39" width="80" height="20" as="geometry" />
        </mxCell>
        <mxCell id="TEB3pf0p3Yp_vwyzPoEA-778" value="NVR" style="text;html=1;strokeColor=none;fillColor=none;align=center;verticalAlign=middle;whiteSpace=wrap;rounded=0;dashed=1;fillStyle=auto;strokeWidth=2;fontFamily=Arial;fontSize=14;fontStyle=2" parent="TEB3pf0p3Yp_vwyzPoEA-77" vertex="1">
          <mxGeometry x="840.37" y="435.14" width="80" height="20" as="geometry" />
        </mxCell>
        <mxCell id="TEB3pf0p3Yp_vwyzPoEA-779" value="PC-0" style="text;html=1;strokeColor=none;fillColor=none;align=center;verticalAlign=middle;whiteSpace=wrap;rounded=0;dashed=1;fillStyle=auto;strokeWidth=2;fontFamily=Arial;fontSize=14;fontStyle=2" parent="TEB3pf0p3Yp_vwyzPoEA-77" vertex="1">
          <mxGeometry x="111" y="215" width="80" height="20" as="geometry" />
        </mxCell>
        <mxCell id="TEB3pf0p3Yp_vwyzPoEA-780" value="PC-1" style="text;html=1;strokeColor=none;fillColor=none;align=center;verticalAlign=middle;whiteSpace=wrap;rounded=0;dashed=1;fillStyle=auto;strokeWidth=2;fontFamily=Arial;fontSize=14;fontStyle=2" parent="TEB3pf0p3Yp_vwyzPoEA-77" vertex="1">
          <mxGeometry x="271.63" y="215" width="80" height="20" as="geometry" />
        </mxCell>
        <mxCell id="TEB3pf0p3Yp_vwyzPoEA-781" value="PC-2" style="text;html=1;strokeColor=none;fillColor=none;align=center;verticalAlign=middle;whiteSpace=wrap;rounded=0;dashed=1;fillStyle=auto;strokeWidth=2;fontFamily=Arial;fontSize=14;fontStyle=2" parent="TEB3pf0p3Yp_vwyzPoEA-77" vertex="1">
          <mxGeometry x="431" y="215" width="80" height="20" as="geometry" />
        </mxCell>
        <mxCell id="TEB3pf0p3Yp_vwyzPoEA-782" value="PC-3" style="text;html=1;strokeColor=none;fillColor=none;align=center;verticalAlign=middle;whiteSpace=wrap;rounded=0;dashed=1;fillStyle=auto;strokeWidth=2;fontFamily=Arial;fontSize=14;fontStyle=2" parent="TEB3pf0p3Yp_vwyzPoEA-77" vertex="1">
          <mxGeometry x="621" y="215" width="80" height="20" as="geometry" />
        </mxCell>
        <mxCell id="TEB3pf0p3Yp_vwyzPoEA-783" value="PC-11" style="text;html=1;strokeColor=none;fillColor=none;align=center;verticalAlign=middle;whiteSpace=wrap;rounded=0;dashed=1;fillStyle=auto;strokeWidth=2;fontFamily=Arial;fontSize=14;fontStyle=2" parent="TEB3pf0p3Yp_vwyzPoEA-77" vertex="1">
          <mxGeometry x="771" y="215" width="80" height="20" as="geometry" />
        </mxCell>
        <mxCell id="TEB3pf0p3Yp_vwyzPoEA-784" value="PC-12" style="text;html=1;strokeColor=none;fillColor=none;align=center;verticalAlign=middle;whiteSpace=wrap;rounded=0;dashed=1;fillStyle=auto;strokeWidth=2;fontFamily=Arial;fontSize=14;fontStyle=2" parent="TEB3pf0p3Yp_vwyzPoEA-77" vertex="1">
          <mxGeometry x="121" y="711.6800000000001" width="80" height="20" as="geometry" />
        </mxCell>
        <mxCell id="TEB3pf0p3Yp_vwyzPoEA-785" value="PC-13" style="text;html=1;strokeColor=none;fillColor=none;align=center;verticalAlign=middle;whiteSpace=wrap;rounded=0;dashed=1;fillStyle=auto;strokeWidth=2;fontFamily=Arial;fontSize=14;fontStyle=2" parent="TEB3pf0p3Yp_vwyzPoEA-77" vertex="1">
          <mxGeometry x="270.37" y="713.2" width="80" height="20" as="geometry" />
        </mxCell>
        <mxCell id="TEB3pf0p3Yp_vwyzPoEA-786" value="PC-14" style="text;html=1;strokeColor=none;fillColor=none;align=center;verticalAlign=middle;whiteSpace=wrap;rounded=0;dashed=1;fillStyle=auto;strokeWidth=2;fontFamily=Arial;fontSize=14;fontStyle=2" parent="TEB3pf0p3Yp_vwyzPoEA-77" vertex="1">
          <mxGeometry x="422.34000000000003" y="711.6800000000001" width="80" height="20" as="geometry" />
        </mxCell>
        <mxCell id="TEB3pf0p3Yp_vwyzPoEA-787" value="PC-15" style="text;html=1;strokeColor=none;fillColor=none;align=center;verticalAlign=middle;whiteSpace=wrap;rounded=0;dashed=1;fillStyle=auto;strokeWidth=2;fontFamily=Arial;fontSize=14;fontStyle=2" parent="TEB3pf0p3Yp_vwyzPoEA-77" vertex="1">
          <mxGeometry x="621" y="711.68" width="80" height="20" as="geometry" />
        </mxCell>
        <mxCell id="TEB3pf0p3Yp_vwyzPoEA-788" value="PC-49" style="text;html=1;strokeColor=none;fillColor=none;align=center;verticalAlign=middle;whiteSpace=wrap;rounded=0;dashed=1;fillStyle=auto;strokeWidth=2;fontFamily=Arial;fontSize=14;fontStyle=2" parent="TEB3pf0p3Yp_vwyzPoEA-77" vertex="1">
          <mxGeometry x="780.37" y="711.6899999999999" width="80" height="20" as="geometry" />
        </mxCell>
        <mxCell id="TEB3pf0p3Yp_vwyzPoEA-790" value="&lt;span style=&quot;font-size: 11px;&quot;&gt;GE/0&lt;/span&gt;" style="text;html=1;strokeColor=none;fillColor=none;align=left;verticalAlign=middle;whiteSpace=wrap;rounded=0;dashed=1;fillStyle=auto;strokeWidth=2;fontFamily=Arial;fontSize=11;fontStyle=2" parent="TEB3pf0p3Yp_vwyzPoEA-77" vertex="1">
          <mxGeometry x="1269.74" y="158.59" width="40" height="20" as="geometry" />
        </mxCell>
        <mxCell id="TEB3pf0p3Yp_vwyzPoEA-791" value="&lt;span style=&quot;font-size: 11px;&quot;&gt;GE0/0/0&lt;/span&gt;" style="text;html=1;strokeColor=none;fillColor=none;align=left;verticalAlign=middle;whiteSpace=wrap;rounded=0;dashed=1;fillStyle=auto;strokeWidth=2;fontFamily=Arial;fontSize=11;fontStyle=2" parent="TEB3pf0p3Yp_vwyzPoEA-77" vertex="1">
          <mxGeometry x="1071" y="163" width="40" height="20" as="geometry" />
        </mxCell>
        <mxCell id="TEB3pf0p3Yp_vwyzPoEA-792" value="&lt;span style=&quot;font-size: 11px;&quot;&gt;GE0/1/0&lt;/span&gt;" style="text;html=1;strokeColor=none;fillColor=none;align=left;verticalAlign=middle;whiteSpace=wrap;rounded=0;dashed=1;fillStyle=auto;strokeWidth=2;fontFamily=Arial;fontSize=11;fontStyle=2" parent="TEB3pf0p3Yp_vwyzPoEA-77" vertex="1">
          <mxGeometry x="985" y="210" width="40" height="20" as="geometry" />
        </mxCell>
        <mxCell id="TEB3pf0p3Yp_vwyzPoEA-795" value="&lt;span style=&quot;font-size: 11px;&quot;&gt;GE0/0&lt;/span&gt;" style="text;html=1;strokeColor=none;fillColor=none;align=left;verticalAlign=middle;whiteSpace=wrap;rounded=0;dashed=1;fillStyle=auto;strokeWidth=2;fontFamily=Arial;fontSize=11;fontStyle=2" parent="TEB3pf0p3Yp_vwyzPoEA-77" vertex="1">
          <mxGeometry x="1029.74" y="320" width="40" height="20" as="geometry" />
        </mxCell>
        <mxCell id="TEB3pf0p3Yp_vwyzPoEA-796" value="&lt;span style=&quot;font-size: 11px;&quot;&gt;GE0/0&lt;/span&gt;" style="text;html=1;strokeColor=none;fillColor=none;align=left;verticalAlign=middle;whiteSpace=wrap;rounded=0;dashed=1;fillStyle=auto;strokeWidth=2;fontFamily=Arial;fontSize=11;fontStyle=2" parent="TEB3pf0p3Yp_vwyzPoEA-77" vertex="1">
          <mxGeometry x="1031" y="637.56" width="40" height="20" as="geometry" />
        </mxCell>
        <mxCell id="TEB3pf0p3Yp_vwyzPoEA-797" value="&lt;span style=&quot;font-size: 11px;&quot;&gt;GE0/1&lt;/span&gt;" style="text;html=1;strokeColor=none;fillColor=none;align=left;verticalAlign=middle;whiteSpace=wrap;rounded=0;dashed=1;fillStyle=auto;strokeWidth=2;fontFamily=Arial;fontSize=11;fontStyle=2" parent="TEB3pf0p3Yp_vwyzPoEA-77" vertex="1">
          <mxGeometry x="984.98" y="384.99999999999994" width="40" height="20" as="geometry" />
        </mxCell>
        <mxCell id="TEB3pf0p3Yp_vwyzPoEA-798" value="SW-1" style="text;html=1;strokeColor=none;fillColor=none;align=center;verticalAlign=middle;whiteSpace=wrap;rounded=0;dashed=1;fillStyle=auto;strokeWidth=2;fontFamily=Arial;fontSize=14;fontStyle=2" parent="TEB3pf0p3Yp_vwyzPoEA-77" vertex="1">
          <mxGeometry x="961" y="320" width="80" height="20" as="geometry" />
        </mxCell>
        <mxCell id="TEB3pf0p3Yp_vwyzPoEA-799" value="SW-2" style="text;html=1;strokeColor=none;fillColor=none;align=center;verticalAlign=middle;whiteSpace=wrap;rounded=0;dashed=1;fillStyle=auto;strokeWidth=2;fontFamily=Arial;fontSize=14;fontStyle=2" parent="TEB3pf0p3Yp_vwyzPoEA-77" vertex="1">
          <mxGeometry x="961" y="637.56" width="80" height="20" as="geometry" />
        </mxCell>
        <mxCell id="TEB3pf0p3Yp_vwyzPoEA-800" value="R-1" style="text;html=1;strokeColor=none;fillColor=none;align=center;verticalAlign=middle;whiteSpace=wrap;rounded=0;dashed=1;fillStyle=auto;strokeWidth=2;fontFamily=Arial;fontSize=14;fontStyle=2" parent="TEB3pf0p3Yp_vwyzPoEA-77" vertex="1">
          <mxGeometry x="988.74" y="136.91" width="80" height="20" as="geometry" />
        </mxCell>
        <mxCell id="TEB3pf0p3Yp_vwyzPoEA-802" value="M-1" style="text;html=1;strokeColor=none;fillColor=none;align=center;verticalAlign=middle;whiteSpace=wrap;rounded=0;dashed=1;fillStyle=auto;strokeWidth=2;fontFamily=Arial;fontSize=14;fontStyle=2" parent="TEB3pf0p3Yp_vwyzPoEA-77" vertex="1">
          <mxGeometry x="1292.26" y="150.07" width="80" height="20" as="geometry" />
        </mxCell>
        <mxCell id="TEB3pf0p3Yp_vwyzPoEA-803" value="PR-1" style="text;html=1;strokeColor=none;fillColor=none;align=center;verticalAlign=middle;whiteSpace=wrap;rounded=0;dashed=1;fillStyle=auto;strokeWidth=2;fontFamily=Arial;fontSize=14;fontStyle=2" parent="TEB3pf0p3Yp_vwyzPoEA-77" vertex="1">
          <mxGeometry x="111" y="864.36" width="80" height="20" as="geometry" />
        </mxCell>
        <mxCell id="TEB3pf0p3Yp_vwyzPoEA-804" value="PR-2" style="text;html=1;strokeColor=none;fillColor=none;align=center;verticalAlign=middle;whiteSpace=wrap;rounded=0;dashed=1;fillStyle=auto;strokeWidth=2;fontFamily=Arial;fontSize=14;fontStyle=2" parent="TEB3pf0p3Yp_vwyzPoEA-77" vertex="1">
          <mxGeometry x="270.37" y="864.36" width="80" height="20" as="geometry" />
        </mxCell>
        <mxCell id="TEB3pf0p3Yp_vwyzPoEA-805" value="PR-3" style="text;html=1;strokeColor=none;fillColor=none;align=center;verticalAlign=middle;whiteSpace=wrap;rounded=0;dashed=1;fillStyle=auto;strokeWidth=2;fontFamily=Arial;fontSize=14;fontStyle=2" parent="TEB3pf0p3Yp_vwyzPoEA-77" vertex="1">
          <mxGeometry x="415.34" y="864.36" width="80" height="20" as="geometry" />
        </mxCell>
        <mxCell id="TEB3pf0p3Yp_vwyzPoEA-806" value="PR-4" style="text;html=1;strokeColor=none;fillColor=none;align=center;verticalAlign=middle;whiteSpace=wrap;rounded=0;dashed=1;fillStyle=auto;strokeWidth=2;fontFamily=Arial;fontSize=14;fontStyle=2" parent="TEB3pf0p3Yp_vwyzPoEA-77" vertex="1">
          <mxGeometry x="149.74" y="105.12" width="80" height="20" as="geometry" />
        </mxCell>
        <mxCell id="TEB3pf0p3Yp_vwyzPoEA-807" value="PR-5" style="text;html=1;strokeColor=none;fillColor=none;align=center;verticalAlign=middle;whiteSpace=wrap;rounded=0;dashed=1;fillStyle=auto;strokeWidth=2;fontFamily=Arial;fontSize=14;fontStyle=2" parent="TEB3pf0p3Yp_vwyzPoEA-77" vertex="1">
          <mxGeometry x="309.74" y="105.12" width="80" height="20" as="geometry" />
        </mxCell>
        <mxCell id="TEB3pf0p3Yp_vwyzPoEA-808" value="PR-6" style="text;html=1;strokeColor=none;fillColor=none;align=center;verticalAlign=middle;whiteSpace=wrap;rounded=0;dashed=1;fillStyle=auto;strokeWidth=2;fontFamily=Arial;fontSize=14;fontStyle=2" parent="TEB3pf0p3Yp_vwyzPoEA-77" vertex="1">
          <mxGeometry x="469.74" y="105.12" width="80" height="20" as="geometry" />
        </mxCell>
        <mxCell id="TEB3pf0p3Yp_vwyzPoEA-809" value="&lt;span style=&quot;font-size: 11px;&quot;&gt;GE0/2&lt;/span&gt;" style="text;html=1;strokeColor=none;fillColor=none;align=left;verticalAlign=middle;whiteSpace=wrap;rounded=0;dashed=1;fillStyle=auto;strokeWidth=2;fontFamily=Arial;fontSize=11;fontStyle=2" parent="TEB3pf0p3Yp_vwyzPoEA-77" vertex="1">
          <mxGeometry x="189.74" y="345" width="40" height="20" as="geometry" />
        </mxCell>
        <mxCell id="TEB3pf0p3Yp_vwyzPoEA-810" value="&lt;span style=&quot;font-size: 11px;&quot;&gt;GE0/3&lt;/span&gt;" style="text;html=1;strokeColor=none;fillColor=none;align=left;verticalAlign=middle;whiteSpace=wrap;rounded=0;dashed=1;fillStyle=auto;strokeWidth=2;fontFamily=Arial;fontSize=11;fontStyle=2" parent="TEB3pf0p3Yp_vwyzPoEA-77" vertex="1">
          <mxGeometry x="351.63" y="345" width="40" height="20" as="geometry" />
        </mxCell>
        <mxCell id="TEB3pf0p3Yp_vwyzPoEA-811" value="&lt;span style=&quot;font-size: 11px;&quot;&gt;GE0/5&lt;/span&gt;" style="text;html=1;strokeColor=none;fillColor=none;align=left;verticalAlign=middle;whiteSpace=wrap;rounded=0;dashed=1;fillStyle=auto;strokeWidth=2;fontFamily=Arial;fontSize=11;fontStyle=2" parent="TEB3pf0p3Yp_vwyzPoEA-77" vertex="1">
          <mxGeometry x="661" y="345" width="40" height="20" as="geometry" />
        </mxCell>
        <mxCell id="TEB3pf0p3Yp_vwyzPoEA-812" value="&lt;span style=&quot;font-size: 11px;&quot;&gt;GE0/4&lt;/span&gt;" style="text;html=1;strokeColor=none;fillColor=none;align=left;verticalAlign=middle;whiteSpace=wrap;rounded=0;dashed=1;fillStyle=auto;strokeWidth=2;fontFamily=Arial;fontSize=11;fontStyle=2" parent="TEB3pf0p3Yp_vwyzPoEA-77" vertex="1">
          <mxGeometry x="509.74" y="345" width="40" height="20" as="geometry" />
        </mxCell>
        <mxCell id="TEB3pf0p3Yp_vwyzPoEA-816" value="&lt;span style=&quot;font-size: 11px;&quot;&gt;GE0/13&lt;/span&gt;" style="text;html=1;strokeColor=none;fillColor=none;align=left;verticalAlign=middle;whiteSpace=wrap;rounded=0;dashed=1;fillStyle=auto;strokeWidth=2;fontFamily=Arial;fontSize=11;fontStyle=2" parent="TEB3pf0p3Yp_vwyzPoEA-77" vertex="1">
          <mxGeometry x="811" y="345" width="40" height="20" as="geometry" />
        </mxCell>
        <mxCell id="TEB3pf0p3Yp_vwyzPoEA-817" value="&lt;span style=&quot;font-size: 11px;&quot;&gt;GE0/19&lt;/span&gt;" style="text;html=1;strokeColor=none;fillColor=none;align=left;verticalAlign=middle;whiteSpace=wrap;rounded=0;dashed=1;fillStyle=auto;strokeWidth=2;fontFamily=Arial;fontSize=11;fontStyle=2" parent="TEB3pf0p3Yp_vwyzPoEA-77" vertex="1">
          <mxGeometry x="920.37" y="365" width="40" height="20" as="geometry" />
        </mxCell>
        <mxCell id="TEB3pf0p3Yp_vwyzPoEA-818" value="&lt;span style=&quot;font-size: 11px;&quot;&gt;GE0/14&lt;/span&gt;" style="text;html=1;strokeColor=none;fillColor=none;align=left;verticalAlign=middle;whiteSpace=wrap;rounded=0;dashed=1;fillStyle=auto;strokeWidth=2;fontFamily=Arial;fontSize=11;fontStyle=2" parent="TEB3pf0p3Yp_vwyzPoEA-77" vertex="1">
          <mxGeometry x="641.63" y="361.97" width="40" height="20" as="geometry" />
        </mxCell>
        <mxCell id="TEB3pf0p3Yp_vwyzPoEA-819" value="&lt;span style=&quot;font-size: 11px;&quot;&gt;GE0/18&lt;/span&gt;" style="text;html=1;strokeColor=none;fillColor=none;align=left;verticalAlign=middle;whiteSpace=wrap;rounded=0;dashed=1;fillStyle=auto;strokeWidth=2;fontFamily=Arial;fontSize=11;fontStyle=2" parent="TEB3pf0p3Yp_vwyzPoEA-77" vertex="1">
          <mxGeometry x="780" y="365" width="40" height="20" as="geometry" />
        </mxCell>
        <mxCell id="TEB3pf0p3Yp_vwyzPoEA-820" value="&lt;span style=&quot;font-size: 11px;&quot;&gt;GE0/21&lt;/span&gt;" style="text;html=1;strokeColor=none;fillColor=none;align=left;verticalAlign=middle;whiteSpace=wrap;rounded=0;dashed=1;fillStyle=auto;strokeWidth=2;fontFamily=Arial;fontSize=11;fontStyle=2" parent="TEB3pf0p3Yp_vwyzPoEA-77" vertex="1">
          <mxGeometry x="321" y="361.97" width="40" height="20" as="geometry" />
        </mxCell>
        <mxCell id="TEB3pf0p3Yp_vwyzPoEA-821" value="&lt;span style=&quot;font-size: 11px;&quot;&gt;GE0/20&lt;/span&gt;" style="text;html=1;strokeColor=none;fillColor=none;align=left;verticalAlign=middle;whiteSpace=wrap;rounded=0;dashed=1;fillStyle=auto;strokeWidth=2;fontFamily=Arial;fontSize=11;fontStyle=2" parent="TEB3pf0p3Yp_vwyzPoEA-77" vertex="1">
          <mxGeometry x="557.22" y="365" width="40" height="20" as="geometry" />
        </mxCell>
        <mxCell id="TEB3pf0p3Yp_vwyzPoEA-822" value="&lt;span style=&quot;font-size: 11px;&quot;&gt;GE0/2&lt;/span&gt;" style="text;html=1;strokeColor=none;fillColor=none;align=left;verticalAlign=middle;whiteSpace=wrap;rounded=0;dashed=1;fillStyle=auto;strokeWidth=2;fontFamily=Arial;fontSize=11;fontStyle=2" parent="TEB3pf0p3Yp_vwyzPoEA-77" vertex="1">
          <mxGeometry x="201" y="678" width="40" height="20" as="geometry" />
        </mxCell>
        <mxCell id="TEB3pf0p3Yp_vwyzPoEA-823" value="&lt;span style=&quot;font-size: 11px;&quot;&gt;GE0/3&lt;/span&gt;" style="text;html=1;strokeColor=none;fillColor=none;align=left;verticalAlign=middle;whiteSpace=wrap;rounded=0;dashed=1;fillStyle=auto;strokeWidth=2;fontFamily=Arial;fontSize=11;fontStyle=2" parent="TEB3pf0p3Yp_vwyzPoEA-77" vertex="1">
          <mxGeometry x="351.63" y="678" width="40" height="20" as="geometry" />
        </mxCell>
        <mxCell id="TEB3pf0p3Yp_vwyzPoEA-824" value="&lt;span style=&quot;font-size: 11px;&quot;&gt;GE0/4&lt;/span&gt;" style="text;html=1;strokeColor=none;fillColor=none;align=left;verticalAlign=middle;whiteSpace=wrap;rounded=0;dashed=1;fillStyle=auto;strokeWidth=2;fontFamily=Arial;fontSize=11;fontStyle=2" parent="TEB3pf0p3Yp_vwyzPoEA-77" vertex="1">
          <mxGeometry x="502.34000000000003" y="678" width="40" height="20" as="geometry" />
        </mxCell>
        <mxCell id="TEB3pf0p3Yp_vwyzPoEA-825" value="&lt;span style=&quot;font-size: 11px;&quot;&gt;GE0/5&lt;/span&gt;" style="text;html=1;strokeColor=none;fillColor=none;align=left;verticalAlign=middle;whiteSpace=wrap;rounded=0;dashed=1;fillStyle=auto;strokeWidth=2;fontFamily=Arial;fontSize=11;fontStyle=2" parent="TEB3pf0p3Yp_vwyzPoEA-77" vertex="1">
          <mxGeometry x="699.74" y="681" width="40" height="20" as="geometry" />
        </mxCell>
        <mxCell id="TEB3pf0p3Yp_vwyzPoEA-827" value="&lt;span style=&quot;font-size: 11px;&quot;&gt;GE0/40&lt;/span&gt;" style="text;html=1;strokeColor=none;fillColor=none;align=left;verticalAlign=middle;whiteSpace=wrap;rounded=0;dashed=1;fillStyle=auto;strokeWidth=2;fontFamily=Arial;fontSize=11;fontStyle=2" parent="TEB3pf0p3Yp_vwyzPoEA-77" vertex="1">
          <mxGeometry x="860.37" y="681" width="40" height="20" as="geometry" />
        </mxCell>
        <mxCell id="7BEgjLZ_TTTmj8pTz8JW-78" value="&lt;div style=&quot;line-height: 19px;&quot;&gt;Catalyst 9300-48P&lt;br&gt;&lt;/div&gt;" style="text;html=1;strokeColor=none;fillColor=none;align=center;verticalAlign=middle;whiteSpace=wrap;rounded=0;dashed=1;fillStyle=auto;strokeWidth=2;fontFamily=Arial;fontSize=14;fontStyle=2;container=0;" parent="TEB3pf0p3Yp_vwyzPoEA-77" vertex="1">
          <mxGeometry x="973" y="711.69" width="127.96" height="20" as="geometry" />
        </mxCell>
        <mxCell id="7BEgjLZ_TTTmj8pTz8JW-80" value="&lt;div style=&quot;line-height: 19px;&quot;&gt;Catalyst 9300-48P&lt;/div&gt;" style="text;html=1;strokeColor=none;fillColor=none;align=center;verticalAlign=middle;whiteSpace=wrap;rounded=0;dashed=1;fillStyle=auto;strokeWidth=2;fontFamily=Arial;fontSize=14;fontStyle=2;container=0;" parent="TEB3pf0p3Yp_vwyzPoEA-77" vertex="1">
          <mxGeometry x="1031" y="394.00000000000006" width="127.96" height="20" as="geometry" />
        </mxCell>
        <mxCell id="7BEgjLZ_TTTmj8pTz8JW-82" value="&lt;div style=&quot;line-height: 19px;&quot;&gt;&lt;div style=&quot;line-height: 19px;&quot;&gt;Hikvision DS-2CD2345G0P-I&lt;/div&gt;&lt;/div&gt;" style="text;html=1;strokeColor=none;fillColor=none;align=center;verticalAlign=middle;whiteSpace=wrap;rounded=0;dashed=1;fillStyle=auto;strokeWidth=2;fontFamily=Arial;fontSize=14;fontStyle=2;container=0;" parent="TEB3pf0p3Yp_vwyzPoEA-77" vertex="1">
          <mxGeometry x="680" y="495.04000000000013" width="127.96" height="20" as="geometry" />
        </mxCell>
        <mxCell id="7BEgjLZ_TTTmj8pTz8JW-84" value="&lt;div style=&quot;line-height: 19px;&quot;&gt;&lt;div style=&quot;line-height: 19px;&quot;&gt;Hikvision DS-7604NI-K1&lt;br&gt;&lt;/div&gt;&lt;/div&gt;" style="text;html=1;strokeColor=none;fillColor=none;align=center;verticalAlign=middle;whiteSpace=wrap;rounded=0;dashed=1;fillStyle=auto;strokeWidth=2;fontFamily=Arial;fontSize=14;fontStyle=2;container=0;" parent="TEB3pf0p3Yp_vwyzPoEA-77" vertex="1">
          <mxGeometry x="857.02" y="495.04000000000013" width="127.96" height="20" as="geometry" />
        </mxCell>
        <mxCell id="7BEgjLZ_TTTmj8pTz8JW-87" value="&lt;div style=&quot;line-height: 19px;&quot;&gt;&lt;div style=&quot;line-height: 19px;&quot;&gt;&lt;div style=&quot;line-height: 19px;&quot;&gt;Catalyst 8200-1N-4T&lt;/div&gt;&lt;/div&gt;&lt;/div&gt;" style="text;html=1;strokeColor=none;fillColor=none;align=center;verticalAlign=middle;whiteSpace=wrap;rounded=0;dashed=1;fillStyle=auto;strokeWidth=2;fontFamily=Arial;fontSize=14;fontStyle=2;container=0;" parent="TEB3pf0p3Yp_vwyzPoEA-77" vertex="1">
          <mxGeometry x="1030" y="219.00000000000006" width="127.96" height="20" as="geometry" />
        </mxCell>
        <mxCell id="7BEgjLZ_TTTmj8pTz8JW-88" value="&lt;div style=&quot;line-height: 19px;&quot;&gt;&lt;div style=&quot;line-height: 19px;&quot;&gt;&lt;div style=&quot;line-height: 19px;&quot;&gt;&lt;div style=&quot;line-height: 19px;&quot;&gt;Motorola MB8611&lt;/div&gt;&lt;/div&gt;&lt;/div&gt;&lt;/div&gt;" style="text;html=1;strokeColor=none;fillColor=none;align=center;verticalAlign=middle;whiteSpace=wrap;rounded=0;dashed=1;fillStyle=auto;strokeWidth=2;fontFamily=Arial;fontSize=14;fontStyle=2;container=0;" parent="TEB3pf0p3Yp_vwyzPoEA-77" vertex="1">
          <mxGeometry x="1268.28" y="211.25000000000006" width="127.96" height="20" as="geometry" />
        </mxCell>
        <mxCell id="7BEgjLZ_TTTmj8pTz8JW-90" value="&lt;div style=&quot;line-height: 19px;&quot;&gt;&lt;div style=&quot;line-height: 19px;&quot;&gt;Cisco CBW140AC&lt;br&gt;&lt;/div&gt;&lt;/div&gt;" style="text;html=1;strokeColor=none;fillColor=none;align=center;verticalAlign=middle;whiteSpace=wrap;rounded=0;dashed=1;fillStyle=auto;strokeWidth=2;fontFamily=Arial;fontSize=14;fontStyle=2;container=0;" parent="TEB3pf0p3Yp_vwyzPoEA-77" vertex="1">
          <mxGeometry x="193.03999999999996" y="492.7900000000001" width="127.96" height="20" as="geometry" />
        </mxCell>
        <mxCell id="7BEgjLZ_TTTmj8pTz8JW-91" value="&lt;div style=&quot;line-height: 19px;&quot;&gt;&lt;div style=&quot;line-height: 19px;&quot;&gt;Cisco CBW140AC&lt;br&gt;&lt;/div&gt;&lt;/div&gt;" style="text;html=1;strokeColor=none;fillColor=none;align=center;verticalAlign=middle;whiteSpace=wrap;rounded=0;dashed=1;fillStyle=auto;strokeWidth=2;fontFamily=Arial;fontSize=14;fontStyle=2;container=0;" parent="TEB3pf0p3Yp_vwyzPoEA-77" vertex="1">
          <mxGeometry x="431" y="492.7900000000001" width="127.96" height="20" as="geometry" />
        </mxCell>
        <mxCell id="7BEgjLZ_TTTmj8pTz8JW-94" value="&lt;div style=&quot;line-height: 19px;&quot;&gt;&lt;div style=&quot;line-height: 19px;&quot;&gt;Canon&amp;nbsp; LBP6030B&lt;br&gt;&lt;/div&gt;&lt;/div&gt;" style="text;html=1;strokeColor=none;fillColor=none;align=center;verticalAlign=middle;whiteSpace=wrap;rounded=0;dashed=1;fillStyle=auto;strokeWidth=2;fontFamily=Arial;fontSize=14;fontStyle=2;container=0;" parent="TEB3pf0p3Yp_vwyzPoEA-77" vertex="1">
          <mxGeometry x="131" y="85.12000000000006" width="127.96" height="20" as="geometry" />
        </mxCell>
        <mxCell id="7BEgjLZ_TTTmj8pTz8JW-95" value="&lt;div style=&quot;line-height: 19px;&quot;&gt;&lt;div style=&quot;line-height: 19px;&quot;&gt;Canon&amp;nbsp; LBP6030B&lt;br&gt;&lt;/div&gt;&lt;/div&gt;" style="text;html=1;strokeColor=none;fillColor=none;align=center;verticalAlign=middle;whiteSpace=wrap;rounded=0;dashed=1;fillStyle=auto;strokeWidth=2;fontFamily=Arial;fontSize=14;fontStyle=2;container=0;" parent="TEB3pf0p3Yp_vwyzPoEA-77" vertex="1">
          <mxGeometry x="282.03999999999996" y="85.12000000000006" width="127.96" height="20" as="geometry" />
        </mxCell>
        <mxCell id="7BEgjLZ_TTTmj8pTz8JW-96" value="&lt;div style=&quot;line-height: 19px;&quot;&gt;&lt;div style=&quot;line-height: 19px;&quot;&gt;Canon&amp;nbsp; LBP6030B&lt;br&gt;&lt;/div&gt;&lt;/div&gt;" style="text;html=1;strokeColor=none;fillColor=none;align=center;verticalAlign=middle;whiteSpace=wrap;rounded=0;dashed=1;fillStyle=auto;strokeWidth=2;fontFamily=Arial;fontSize=14;fontStyle=2;container=0;" parent="TEB3pf0p3Yp_vwyzPoEA-77" vertex="1">
          <mxGeometry x="437.38" y="85.12000000000006" width="127.96" height="20" as="geometry" />
        </mxCell>
        <mxCell id="7BEgjLZ_TTTmj8pTz8JW-97" value="&lt;div style=&quot;line-height: 19px;&quot;&gt;&lt;div style=&quot;line-height: 19px;&quot;&gt;Canon&amp;nbsp; LBP6030B&lt;br&gt;&lt;/div&gt;&lt;/div&gt;" style="text;html=1;strokeColor=none;fillColor=none;align=center;verticalAlign=middle;whiteSpace=wrap;rounded=0;dashed=1;fillStyle=auto;strokeWidth=2;fontFamily=Arial;fontSize=14;fontStyle=2;container=0;" parent="TEB3pf0p3Yp_vwyzPoEA-77" vertex="1">
          <mxGeometry x="126.39" y="925" width="127.96" height="20" as="geometry" />
        </mxCell>
        <mxCell id="7BEgjLZ_TTTmj8pTz8JW-98" value="&lt;div style=&quot;line-height: 19px;&quot;&gt;&lt;div style=&quot;line-height: 19px;&quot;&gt;Canon&amp;nbsp; LBP6030B&lt;br&gt;&lt;/div&gt;&lt;/div&gt;" style="text;html=1;strokeColor=none;fillColor=none;align=center;verticalAlign=middle;whiteSpace=wrap;rounded=0;dashed=1;fillStyle=auto;strokeWidth=2;fontFamily=Arial;fontSize=14;fontStyle=2;container=0;" parent="TEB3pf0p3Yp_vwyzPoEA-77" vertex="1">
          <mxGeometry x="270.37" y="925" width="127.96" height="20" as="geometry" />
        </mxCell>
        <mxCell id="7BEgjLZ_TTTmj8pTz8JW-99" value="&lt;div style=&quot;line-height: 19px;&quot;&gt;&lt;div style=&quot;line-height: 19px;&quot;&gt;Canon&amp;nbsp; LBP6030B&lt;br&gt;&lt;/div&gt;&lt;/div&gt;" style="text;html=1;strokeColor=none;fillColor=none;align=center;verticalAlign=middle;whiteSpace=wrap;rounded=0;dashed=1;fillStyle=auto;strokeWidth=2;fontFamily=Arial;fontSize=14;fontStyle=2;container=0;" parent="TEB3pf0p3Yp_vwyzPoEA-77" vertex="1">
          <mxGeometry x="421.36" y="925" width="127.96" height="20" as="geometry" />
        </mxCell>
        <mxCell id="7BEgjLZ_TTTmj8pTz8JW-101" value="&lt;div style=&quot;line-height: 19px;&quot;&gt;&lt;div style=&quot;line-height: 19px;&quot;&gt;Pentium G2030, PC3-10600 8 GB&lt;br&gt;&lt;/div&gt;&lt;/div&gt;" style="text;html=1;strokeColor=none;fillColor=none;align=center;verticalAlign=middle;whiteSpace=wrap;rounded=0;dashed=1;fillStyle=auto;strokeWidth=2;fontFamily=Arial;fontSize=14;fontStyle=2;container=0;" parent="TEB3pf0p3Yp_vwyzPoEA-77" vertex="1">
          <mxGeometry x="190" y="316.00000000000006" width="127.96" height="20" as="geometry" />
        </mxCell>
        <mxCell id="7BEgjLZ_TTTmj8pTz8JW-102" value="&lt;div style=&quot;line-height: 19px;&quot;&gt;&lt;div style=&quot;line-height: 19px;&quot;&gt;HP 1C7L8ES&lt;br&gt;&lt;/div&gt;&lt;/div&gt;" style="text;html=1;strokeColor=none;fillColor=none;align=center;verticalAlign=middle;whiteSpace=wrap;rounded=0;dashed=1;fillStyle=auto;strokeWidth=2;fontFamily=Arial;fontSize=14;fontStyle=2;container=0;" parent="TEB3pf0p3Yp_vwyzPoEA-77" vertex="1">
          <mxGeometry x="334.93" y="306.80000000000007" width="127.96" height="20" as="geometry" />
        </mxCell>
        <mxCell id="7BEgjLZ_TTTmj8pTz8JW-103" value="&lt;div style=&quot;line-height: 19px;&quot;&gt;&lt;div style=&quot;line-height: 19px;&quot;&gt;HP 1C7L8ES&lt;br&gt;&lt;/div&gt;&lt;/div&gt;" style="text;html=1;strokeColor=none;fillColor=none;align=center;verticalAlign=middle;whiteSpace=wrap;rounded=0;dashed=1;fillStyle=auto;strokeWidth=2;fontFamily=Arial;fontSize=14;fontStyle=2;container=0;" parent="TEB3pf0p3Yp_vwyzPoEA-77" vertex="1">
          <mxGeometry x="495.34000000000003" y="306.80000000000007" width="127.96" height="20" as="geometry" />
        </mxCell>
        <mxCell id="7BEgjLZ_TTTmj8pTz8JW-104" value="&lt;div style=&quot;line-height: 19px;&quot;&gt;&lt;div style=&quot;line-height: 19px;&quot;&gt;HP 1C7L8ES&lt;br&gt;&lt;/div&gt;&lt;/div&gt;" style="text;html=1;strokeColor=none;fillColor=none;align=center;verticalAlign=middle;whiteSpace=wrap;rounded=0;dashed=1;fillStyle=auto;strokeWidth=2;fontFamily=Arial;fontSize=14;fontStyle=2;container=0;" parent="TEB3pf0p3Yp_vwyzPoEA-77" vertex="1">
          <mxGeometry x="672.4100000000001" y="313.75000000000006" width="127.96" height="20" as="geometry" />
        </mxCell>
        <mxCell id="7BEgjLZ_TTTmj8pTz8JW-106" value="&lt;div style=&quot;line-height: 19px;&quot;&gt;&lt;div style=&quot;line-height: 19px;&quot;&gt;FK BY 133164&lt;br&gt;&lt;/div&gt;&lt;/div&gt;" style="text;html=1;strokeColor=none;fillColor=none;align=center;verticalAlign=middle;whiteSpace=wrap;rounded=0;dashed=1;fillStyle=auto;strokeWidth=2;fontFamily=Arial;fontSize=14;fontStyle=2;container=0;" parent="TEB3pf0p3Yp_vwyzPoEA-77" vertex="1">
          <mxGeometry x="73.03999999999996" y="804.1700000000001" width="127.96" height="20" as="geometry" />
        </mxCell>
        <mxCell id="7BEgjLZ_TTTmj8pTz8JW-107" value="&lt;div style=&quot;line-height: 19px;&quot;&gt;&lt;div style=&quot;line-height: 19px;&quot;&gt;FK BY 133164&lt;br&gt;&lt;/div&gt;&lt;/div&gt;" style="text;html=1;strokeColor=none;fillColor=none;align=center;verticalAlign=middle;whiteSpace=wrap;rounded=0;dashed=1;fillStyle=auto;strokeWidth=2;fontFamily=Arial;fontSize=14;fontStyle=2;container=0;" parent="TEB3pf0p3Yp_vwyzPoEA-77" vertex="1">
          <mxGeometry x="230.36999999999995" y="804.1700000000001" width="127.96" height="20" as="geometry" />
        </mxCell>
        <mxCell id="7BEgjLZ_TTTmj8pTz8JW-108" value="&lt;div style=&quot;line-height: 19px;&quot;&gt;&lt;div style=&quot;line-height: 19px;&quot;&gt;FK BY 133164&lt;br&gt;&lt;/div&gt;&lt;/div&gt;" style="text;html=1;strokeColor=none;fillColor=none;align=center;verticalAlign=middle;whiteSpace=wrap;rounded=0;dashed=1;fillStyle=auto;strokeWidth=2;fontFamily=Arial;fontSize=14;fontStyle=2;container=0;" parent="TEB3pf0p3Yp_vwyzPoEA-77" vertex="1">
          <mxGeometry x="381.66999999999996" y="805.0000000000001" width="127.96" height="20" as="geometry" />
        </mxCell>
        <mxCell id="7BEgjLZ_TTTmj8pTz8JW-109" value="&lt;div style=&quot;line-height: 19px;&quot;&gt;&lt;div style=&quot;line-height: 19px;&quot;&gt;FK BY 133164&lt;br&gt;&lt;/div&gt;&lt;/div&gt;" style="text;html=1;strokeColor=none;fillColor=none;align=center;verticalAlign=middle;whiteSpace=wrap;rounded=0;dashed=1;fillStyle=auto;strokeWidth=2;fontFamily=Arial;fontSize=14;fontStyle=2;container=0;" parent="TEB3pf0p3Yp_vwyzPoEA-77" vertex="1">
          <mxGeometry x="714.9999999999999" y="814.2200000000001" width="127.96" height="20" as="geometry" />
        </mxCell>
        <mxCell id="7BEgjLZ_TTTmj8pTz8JW-112" value="&lt;font size=&quot;1&quot; face=&quot;Arial&quot;&gt;&lt;i style=&quot;font-size: 14px;&quot;&gt;Разраб.&lt;/i&gt;&lt;/font&gt;" style="text;html=1;strokeColor=none;fillColor=none;align=left;verticalAlign=middle;whiteSpace=wrap;rounded=0;" parent="TEB3pf0p3Yp_vwyzPoEA-77" vertex="1">
          <mxGeometry x="909" y="1042" width="69.96" height="19.92" as="geometry" />
        </mxCell>
        <mxCell id="7BEgjLZ_TTTmj8pTz8JW-113" value="&lt;font size=&quot;1&quot; face=&quot;Arial&quot;&gt;&lt;i style=&quot;font-size: 14px;&quot;&gt;Пров.&lt;/i&gt;&lt;/font&gt;" style="text;html=1;strokeColor=none;fillColor=none;align=left;verticalAlign=middle;whiteSpace=wrap;rounded=0;" parent="TEB3pf0p3Yp_vwyzPoEA-77" vertex="1">
          <mxGeometry x="909" y="1060.83" width="69.96" height="19.92" as="geometry" />
        </mxCell>
      </root>
    </mxGraphModel>
  </diagram>
</mxfile>
